<?xml version="1.0" encoding="UTF-8" standalone="no"?>
<!-- Created with Inkscape (http://www.inkscape.org/) -->

<svg
   version="1.1"
   id="svg2"
   width="1333.3333"
   height="1333.3333"
   viewBox="0 0 1333.3333 1333.3333"
   sodipodi:docname="62865.eps"
   xmlns:inkscape="http://www.inkscape.org/namespaces/inkscape"
   xmlns:sodipodi="http://sodipodi.sourceforge.net/DTD/sodipodi-0.dtd"
   xmlns="http://www.w3.org/2000/svg"
   xmlns:svg="http://www.w3.org/2000/svg">
  <defs
     id="defs6" />
  <sodipodi:namedview
     id="namedview4"
     pagecolor="#ffffff"
     bordercolor="#000000"
     borderopacity="0.25"
     inkscape:showpageshadow="2"
     inkscape:pageopacity="0.0"
     inkscape:pagecheckerboard="0"
     inkscape:deskcolor="#d1d1d1" />
  <g
     id="g8"
     inkscape:groupmode="layer"
     inkscape:label="ink_ext_XXXXXX"
     transform="matrix(1.3333333,0,0,-1.3333333,0,1333.3333)">
    <g
       id="g10"
       transform="scale(0.1)">
      <path
         d="M 10000,0 H 0 V 10000 H 10000 V 0"
         style="fill:#ffffff;fill-opacity:1;fill-rule:nonzero;stroke:none"
         id="path12" />
      <path
         d="m 8252.2,2577.9 v -174.5 c -52.8,15.2 -110.7,25.4 -172.2,29.9 -10.2,0.8 -20.4,1.4 -30.8,1.8 -1.6,0.1 -3.2,0.2 -4.8,0.2 -8,0.5 -16.2,0.7 -24.4,0.9 -5.8,0.1 -11.6,0.2 -17.5,0.2 -15.5,0 -31.1,-0.4 -46.8,-1.2 -0.6,0 -1.3,0 -1.9,-0.1 -67.4,-3.4 -136.4,-14 -205.8,-31.5 -69.8,-17.6 -137.2,-41.8 -198.8,-71.2 v -809.9 c 36.9,12.6 74.8,23.7 113.6,33.5 114,28.7 228.3,43.3 339.7,43.3 5.8,0 11.7,0 17.5,-0.1 v -174.4 c -5.8,0.2 -11.6,0.2 -17.5,0.2 -17.7,0 -35.5,-0.4 -53.6,-1.3 -0.9,0 -1.8,-0.1 -2.7,-0.1 -77.5,-4 -158.6,-16 -240.8,-36.7 -124,-31.2 -236.3,-78.8 -330.6,-136.6 V 2436 c 94.3,57.8 206.6,105.4 330.6,136.6 102.4,25.9 203,38.1 297.1,38.1 5.9,0 11.7,0 17.5,-0.1 20.3,-0.4 40.3,-1.3 60,-2.8 61.5,-4.5 119.4,-14.7 172.2,-29.9"
         style="fill:#100f0d;fill-opacity:1;fill-rule:nonzero;stroke:none"
         id="path14" />
      <path
         d="m 8327.4,1386 c -25.9,0 -51.1,1.09 -75.4,3.19 v 3.01 c 0,0 0.1,-0.11 0.2,-0.11 v 833.31 c 24.7,-1.61 49.7,-2.3 75.2,-2.3 111.3,0 225.6,14.5 339.7,43.3 38.7,9.8 76.6,21 113.6,33.5 v -810 C 8719,1460.5 8651.6,1436.4 8581.8,1418.79 8495.6,1397 8410,1386 8327.4,1386 Z m 627.6,0.29 v 1165.8 c -94.3,-57.79 -206.5,-105.4 -330.5,-136.69 -102.4,-25.81 -203,-38 -297.1,-38 -25.6,0 -50.7,0.9 -75.2,2.7 -30,2.19 -59.1,5.7 -87.2,10.4 -29.5,5 -58,11.39 -85,19.09 -0.7,0.2 -1.5,0.41 -2.2,0.61 h -0.1 V 1244.5 c 0.8,-0.2 1.5,-0.4 2.3,-0.6 73.8,-21.1 157.6,-32.21 247.4,-32.21 94,0 194.7,12.21 297.1,38.01 124,31.3 236.2,78.89 330.5,136.59"
         style="fill:#100f0d;fill-opacity:1;fill-rule:nonzero;stroke:none"
         id="path16" />
      <path
         d="m 7482.52,920.902 c -11.41,11.93 -26.26,17.887 -44.52,17.887 -9.38,0 -17.95,-1.59 -25.68,-4.758 -7.74,-3.172 -14.4,-7.551 -19.97,-13.129 -5.59,-5.582 -9.9,-12.172 -12.94,-19.781 -3.05,-7.609 -4.57,-15.859 -4.57,-24.73 V 727.242 c 0,-12.441 1.96,-22.64 5.9,-30.633 3.93,-7.988 8.94,-14.527 15.03,-19.589 6.09,-5.079 12.93,-8.629 20.54,-10.661 7.62,-2.027 15.09,-3.039 22.45,-3.039 8.63,0 16.68,1.711 24.16,5.129 7.48,3.422 14.02,8.051 19.6,13.891 5.58,5.832 9.95,12.492 13.12,19.973 3.17,7.476 4.76,15.406 4.76,23.789 v 16.738 h -38.81 v -13.32 c 0,-5.329 -0.76,-9.77 -2.28,-13.321 -1.52,-3.547 -3.43,-6.34 -5.71,-8.367 -2.54,-2.031 -5.27,-3.48 -8.18,-4.371 -2.92,-0.891 -5.64,-1.34 -8.18,-1.34 -8.88,0 -15.03,2.668 -18.45,8 -3.43,5.32 -5.14,11.918 -5.14,19.781 v 138.5 c 0,9.129 1.58,16.668 4.76,22.637 3.16,5.953 9.57,8.941 19.21,8.941 7.36,0 13.19,-2.8 17.5,-8.371 4.31,-5.578 6.47,-12.179 6.47,-19.789 v -12.929 h 38.81 v 15.218 c 0,9.383 -1.59,18.071 -4.76,26.063 -3.17,7.988 -7.54,14.898 -13.12,20.73"
         style="fill:#100f0d;fill-opacity:1;fill-rule:nonzero;stroke:none"
         id="path18" />
      <path
         d="m 7697.11,729.52 c 0,-9.391 -2.6,-16.297 -7.8,-20.739 -5.2,-4.429 -11.35,-6.66 -18.45,-6.66 -7.11,0 -13.26,2.231 -18.45,6.66 -5.21,4.442 -7.8,11.348 -7.8,20.739 v 143.062 c 0,9.379 2.59,16.297 7.8,20.738 5.19,4.43 11.34,6.66 18.45,6.66 7.1,0 13.25,-2.23 18.45,-6.66 5.2,-4.441 7.8,-11.359 7.8,-20.738 z m 18.27,192.91 c -6.35,5.32 -13.39,9.383 -21.12,12.172 -7.74,2.789 -15.54,4.187 -23.4,4.187 -7.87,0 -15.67,-1.398 -23.4,-4.187 -7.74,-2.789 -14.65,-6.852 -20.74,-12.172 -6.34,-5.578 -11.41,-12.559 -15.22,-20.93 -3.8,-8.371 -5.71,-18.008 -5.71,-28.918 V 729.52 c 0,-11.411 1.91,-21.18 5.71,-29.301 3.81,-8.117 8.88,-14.828 15.22,-20.16 6.09,-5.579 13,-9.77 20.74,-12.559 7.73,-2.789 15.53,-4.18 23.4,-4.18 7.86,0 15.66,1.391 23.4,4.18 7.73,2.789 14.77,6.98 21.12,12.559 6.08,5.332 11.03,12.043 14.83,20.16 3.81,8.121 5.71,17.89 5.71,29.301 v 143.062 c 0,10.91 -1.9,20.547 -5.71,28.918 -3.8,8.371 -8.75,15.352 -14.83,20.93"
         style="fill:#100f0d;fill-opacity:1;fill-rule:nonzero;stroke:none"
         id="path20" />
      <path
         d="M 8021.28,665.602 V 936.5 h -37.66 l -49.47,-143.437 h -0.76 L 7883.55,936.5 h -37.29 V 665.602 h 38.81 v 164.75 h 0.76 l 38.05,-116.43 h 19.4 l 38.43,116.43 h 0.76 v -164.75 h 38.81"
         style="fill:#100f0d;fill-opacity:1;fill-rule:nonzero;stroke:none"
         id="path22" />
      <path
         d="m 8222.75,834.91 c -0.38,-5.578 -1.59,-10.269 -3.61,-14.078 -2.04,-4.051 -5.21,-7.223 -9.52,-9.5 -4.31,-2.293 -10.4,-3.434 -18.26,-3.434 h -18.64 v 92.082 h 20.16 c 7.61,0 13.44,-1.14 17.51,-3.429 4.05,-2.281 7.09,-5.582 9.13,-9.891 2.02,-4.32 3.17,-9.32 3.42,-15.031 0.25,-5.707 0.38,-11.727 0.38,-18.066 0,-6.852 -0.19,-13.071 -0.57,-18.653 z m 19.6,82.57 c -6.6,7.102 -13.96,12.051 -22.07,14.84 -8.12,2.789 -17.5,4.18 -28.16,4.18 h -58.21 V 665.602 h 38.81 v 105.769 h 19.78 c 14.46,0 26.13,2.481 35,7.418 8.88,4.953 15.99,11.863 21.31,20.742 4.57,7.348 7.55,15.219 8.95,23.59 1.39,8.371 2.09,18.641 2.09,30.82 0,16.231 -1.27,29.11 -3.81,38.618 -2.53,9.511 -7.1,17.82 -13.69,24.921"
         style="fill:#100f0d;fill-opacity:1;fill-rule:nonzero;stroke:none"
         id="path24" />
      <path
         d="m 8390.36,760.34 19.02,98.172 h 0.76 l 19.03,-98.172 z m 35.77,176.16 h -32.35 l -60.49,-270.898 h 38.8 l 11.42,58.207 h 52.89 l 11.41,-58.207 h 38.81 L 8426.13,936.5"
         style="fill:#100f0d;fill-opacity:1;fill-rule:nonzero;stroke:none"
         id="path26" />
      <path
         d="m 8676.86,773.281 h -0.76 L 8617.51,936.5 h -37.29 V 665.602 h 38.81 v 162.847 h 0.76 l 59.36,-162.847 h 36.52 V 936.5 h -38.81 V 773.281"
         style="fill:#100f0d;fill-opacity:1;fill-rule:nonzero;stroke:none"
         id="path28" />
      <path
         d="m 8913.9,936.5 -31.2,-107.668 h -0.76 l -31.2,107.668 h -41.09 l 53.27,-156.371 V 665.602 h 38.8 v 114.527 l 53.27,156.371 h -41.09"
         style="fill:#100f0d;fill-opacity:1;fill-rule:nonzero;stroke:none"
         id="path30" />
      <path
         d="m 7374.32,589.141 h 18.74 v -52.25 h 12.66 v 52.25 h 18.58 v 10.648 h -49.98 v -10.648"
         style="fill:#100f0d;fill-opacity:1;fill-rule:nonzero;stroke:none"
         id="path32" />
      <path
         d="m 7529.48,561.82 8.62,23.282 8.61,-23.282 z m 2.01,37.969 -24.5,-62.898 h 13.48 l 5.23,14.269 h 25.19 l 5.39,-14.269 h 13.88 l -25.19,62.898 h -13.48"
         style="fill:#100f0d;fill-opacity:1;fill-rule:nonzero;stroke:none"
         id="path34" />
      <path
         d="m 7686.91,560.07 h 14.57 v -8.09 c -4.58,-3.5 -9.57,-5.261 -14.96,-5.261 -5.83,0 -10.3,2 -13.4,6 -3.1,4 -4.65,9.461 -4.65,16.363 0,14.008 6.06,21.008 18.18,21.008 7.54,0 12.3,-3.36 14.28,-10.09 l 12.52,2.402 c -2.69,12.317 -11.63,18.477 -26.8,18.477 -8.7,0 -16.08,-2.699 -22.15,-8.09 -6.06,-5.387 -9.08,-13.469 -9.08,-24.238 0,-9.61 2.71,-17.481 8.15,-23.59 5.43,-6.102 13.4,-9.152 23.91,-9.152 10.85,0 19.78,3.23 26.79,9.691 v 25.063 h -27.36 V 560.07"
         style="fill:#100f0d;fill-opacity:1;fill-rule:nonzero;stroke:none"
         id="path36" />
      <path
         d="m 7895.67,599.789 h -12.79 v -62.898 h 44.29 v 10.648 h -31.5 v 52.25"
         style="fill:#100f0d;fill-opacity:1;fill-rule:nonzero;stroke:none"
         id="path38" />
      <path
         d="m 8017,536.891 h 12.79 v 62.898 H 8017 v -62.898"
         style="fill:#100f0d;fill-opacity:1;fill-rule:nonzero;stroke:none"
         id="path40" />
      <path
         d="m 8160.98,557.77 -25.88,42.019 h -12.37 v -62.898 h 11.85 v 41.07 l 25.45,-41.07 h 12.66 v 62.898 h -11.71 V 557.77"
         style="fill:#100f0d;fill-opacity:1;fill-rule:nonzero;stroke:none"
         id="path42" />
      <path
         d="m 8279.64,564.641 h 31.51 v 10.621 h -31.51 v 13.879 h 33.94 v 10.648 h -46.73 v -62.898 h 47.94 v 10.648 h -35.15 v 17.102"
         style="fill:#100f0d;fill-opacity:1;fill-rule:nonzero;stroke:none"
         id="path44" />
      <path
         d="m 8517.22,575 h -24.9 v 24.789 h -12.66 v -62.898 h 12.66 v 27.488 h 24.9 v -27.488 h 12.66 v 62.898 h -12.66 V 575"
         style="fill:#100f0d;fill-opacity:1;fill-rule:nonzero;stroke:none"
         id="path46" />
      <path
         d="m 8636.57,564.641 h 31.5 v 10.621 h -31.5 v 13.879 h 33.93 v 10.648 h -46.72 v -62.898 h 47.94 v 10.648 h -35.15 v 17.102"
         style="fill:#100f0d;fill-opacity:1;fill-rule:nonzero;stroke:none"
         id="path48" />
      <path
         d="m 8785.52,573.262 h -9.41 v 15.879 h 9.97 c 6.82,0 11.14,-0.512 12.98,-1.539 1.85,-1.032 2.77,-3.122 2.77,-6.25 0,-3.332 -1.13,-5.52 -3.37,-6.551 -2.25,-1.031 -6.56,-1.539 -12.94,-1.539 z m 12.79,-8.621 c 11.05,1.621 16.57,7.449 16.57,17.5 0,6.828 -2.04,11.488 -6.11,13.961 -4.08,2.461 -10.25,3.687 -18.52,3.687 h -26.8 v -62.898 h 12.66 v 26.269 h 2.54 c 3.59,0 6.22,-0.469 7.89,-1.41 1.66,-0.941 3.17,-2.449 4.5,-4.539 l 13.75,-20.32 h 15.22 l -7.69,12.269 c -5.11,8.059 -9.78,13.219 -14.01,15.481"
         style="fill:#100f0d;fill-opacity:1;fill-rule:nonzero;stroke:none"
         id="path50" />
      <path
         d="m 8920.36,564.641 h 31.5 v 10.621 h -31.5 v 13.879 h 33.93 v 10.648 h -46.72 v -62.898 h 47.94 v 10.648 h -35.15 v 17.102"
         style="fill:#100f0d;fill-opacity:1;fill-rule:nonzero;stroke:none"
         id="path52" />
      <path
         d="m 1030.2,4538.5 195.7,195.69 v 677.7 h 143.4 V 4877.6 l 195.7,195.7 v 534.2 h -534.7 l -0.1,-1069"
         style="fill:#100f0d;fill-opacity:1;fill-rule:nonzero;stroke:none"
         id="path54" />
      <path
         d="m 2099.7,5072.8 h -465.2 l -195.2,-195.2 v -0.51 h 464.8 V 4733.7 h -608.7 l -195.2,-195.2 v -0.5 l 999.5,0.1 v 534.7"
         style="fill:#100f0d;fill-opacity:1;fill-rule:nonzero;stroke:none"
         id="path56" />
      <path
         d="M 2526.2,5964.5 2330.6,5768.9 V 5463.99 H 2025.7 L 1830.1,5268.4 h 696.1 v 696.1"
         style="fill:#100f0d;fill-opacity:1;fill-rule:nonzero;stroke:none"
         id="path58" />
      <path
         d="m 1760.6,5268.9 195.6,195.6 v 373.9 h 373.9 l 195.6,195.59 H 1760.6 V 5268.9"
         style="fill:#100f0d;fill-opacity:1;fill-rule:nonzero;stroke:none"
         id="path60" />
      <path
         d="m 744.355,3826.94 h 25.137 v -79.44 h 13.985 v 79.44 h 25.132 v 12.41 h -64.254 v -12.41"
         style="fill:#100f0d;fill-opacity:1;fill-rule:nonzero;stroke:none"
         id="path62" />
      <path
         d="m 954.512,3820.51 h 0.254 l 13.285,-40.12 h -26.828 z m -17.324,-52.47 h 34.832 l 7.121,-20.54 h 14.675 l -33.386,91.85 h -11.653 l -33.386,-91.85 h 14.742 l 7.055,20.54"
         style="fill:#100f0d;fill-opacity:1;fill-rule:nonzero;stroke:none"
         id="path64" />
      <path
         d="m 1132.85,3819.5 c 1.47,1.9 3.4,3.47 5.8,4.73 2.35,1.21 5.16,1.87 8.44,1.95 4.45,-0.08 8.23,-1.37 11.34,-3.84 2.98,-2.6 5.04,-5.75 6.17,-9.45 h 14.74 c -1.47,7.69 -4.99,14.13 -10.58,19.34 -5.59,5.16 -12.81,7.79 -21.67,7.87 -7.23,-0.08 -13.25,-1.8 -18.08,-5.16 -4.91,-3.32 -8.48,-7.1 -10.71,-11.34 -1.38,-2.23 -2.41,-5.14 -3.09,-8.76 -0.63,-3.61 -0.94,-10.75 -0.94,-21.41 0,-10.51 0.31,-17.6 0.94,-21.3 0.34,-1.97 0.76,-3.61 1.26,-4.91 0.55,-1.26 1.16,-2.58 1.83,-3.97 2.23,-4.24 5.8,-7.98 10.71,-11.21 4.83,-3.36 10.85,-5.12 18.08,-5.29 9.37,0.17 17.13,3.34 23.31,9.51 6.13,6.22 9.28,13.92 9.44,23.12 v 18.71 h -32.62 v -13.17 h 18.7 v -4.78 c -0.08,-5.76 -1.89,-10.4 -5.41,-13.93 -3.53,-3.69 -8.01,-5.54 -13.42,-5.54 -3.28,0 -6.09,0.69 -8.44,2.08 -2.4,1.18 -4.33,2.71 -5.8,4.6 -1.81,1.97 -3,4.55 -3.59,7.75 -0.67,3.19 -1.01,9.29 -1.01,18.33 0,9.03 0.34,15.18 1.01,18.45 0.59,3.11 1.78,5.65 3.59,7.62"
         style="fill:#100f0d;fill-opacity:1;fill-rule:nonzero;stroke:none"
         id="path66" />
      <path
         d="m 1374.68,3839.35 v -91.85 h 58.65 v 13.17 h -44.73 v 78.68 h -13.92"
         style="fill:#100f0d;fill-opacity:1;fill-rule:nonzero;stroke:none"
         id="path68" />
      <path
         d="m 1576.46,3747.5 v 91.85 h -13.93 v -91.85 h 13.93"
         style="fill:#100f0d;fill-opacity:1;fill-rule:nonzero;stroke:none"
         id="path70" />
      <path
         d="m 1766.58,3774.09 -41.58,65.26 h -13.1 v -91.85 h 13.93 v 65.26 h 0.24 l 41.51,-65.26 h 13.17 v 91.85 h -13.92 v -65.26 h -0.25"
         style="fill:#100f0d;fill-opacity:1;fill-rule:nonzero;stroke:none"
         id="path72" />
      <path
         d="m 1974.9,3826.18 v 13.17 h -58.64 v -91.85 h 58.64 v 13.17 h -44.72 v 26.96 h 38.17 v 12.35 h -38.17 v 26.2 h 44.72"
         style="fill:#100f0d;fill-opacity:1;fill-rule:nonzero;stroke:none"
         id="path74" />
      <path
         d="m 2234.25,3747.5 v 91.85 h -13.92 v -39.37 h -36.35 v 39.37 h -13.92 v -91.85 h 13.92 v 40.13 h 36.35 v -40.13 h 13.92"
         style="fill:#100f0d;fill-opacity:1;fill-rule:nonzero;stroke:none"
         id="path76" />
      <path
         d="m 2428.4,3826.18 v 13.17 h -58.64 v -91.85 h 58.64 v 13.17 h -44.72 v 26.96 h 38.18 v 12.35 h -38.18 v 26.2 h 44.72"
         style="fill:#100f0d;fill-opacity:1;fill-rule:nonzero;stroke:none"
         id="path78" />
      <path
         d="m 2604.29,3803.63 c -2.61,-2.94 -6.51,-4.45 -11.72,-4.53 h -21.04 v 27.84 h 21.8 c 4.45,0 7.85,-0.95 10.21,-2.84 2.97,-2.14 4.51,-5.6 4.59,-10.39 0,-3.99 -1.28,-7.35 -3.84,-10.08 z m 17.01,10.08 c -0.26,8.48 -3.3,15.01 -9.14,19.59 -4.83,4.03 -11.06,6.05 -18.7,6.05 h -35.85 v -91.85 h 13.92 v 39.25 h 17.77 l 18.96,-39.25 h 16.56 l -21.28,40.76 c 11.67,4.49 17.59,12.98 17.76,25.45"
         style="fill:#100f0d;fill-opacity:1;fill-rule:nonzero;stroke:none"
         id="path80" />
      <path
         d="m 2752.4,3747.5 h 58.64 v 13.17 h -44.72 v 26.96 h 38.17 v 12.35 h -38.17 v 26.2 h 44.72 v 13.17 h -58.64 v -91.85"
         style="fill:#100f0d;fill-opacity:1;fill-rule:nonzero;stroke:none"
         id="path82" />
      <path
         d="m 876.832,4010.66 c -7.199,-13.85 -18.711,-20.77 -34.535,-20.77 -15.832,0 -28.289,4.94 -37.371,14.84 -9.082,9.88 -13.621,23.11 -13.621,39.65 0,16.55 4.539,29.78 13.621,39.67 9.082,9.89 21.539,14.84 37.371,14.84 15.824,0 27.336,-6.93 34.535,-20.78 h 55.039 c -6.476,19.79 -17.894,35.25 -34.266,46.41 -16.371,11.15 -35.078,16.73 -56.117,16.73 -27.164,0 -50.14,-9.14 -68.933,-27.39 -18.801,-18.25 -28.2,-41.41 -28.2,-69.48 0,-28.05 9.399,-51.22 28.2,-69.47 18.793,-18.25 41.769,-27.38 68.933,-27.38 21.039,0 39.746,5.57 56.117,16.72 16.372,11.16 27.79,26.62 34.266,46.41 h -55.039"
         style="fill:#100f0d;fill-opacity:1;fill-rule:nonzero;stroke:none"
         id="path84" />
      <path
         d="m 1191.83,4004.73 c -9.09,-9.9 -21.23,-14.84 -36.43,-14.84 -15.2,0 -27.34,4.94 -36.43,14.84 -9.08,9.88 -13.62,23.11 -13.62,39.65 0,16.55 4.54,29.78 13.62,39.67 9.09,9.89 21.23,14.84 36.43,14.84 15.2,0 27.34,-4.95 36.43,-14.84 9.07,-9.89 13.62,-23.12 13.62,-39.67 0,-16.54 -4.55,-29.77 -13.62,-39.65 z m 60.57,39.65 c 0,28.07 -9.31,51.23 -27.93,69.48 -18.62,18.25 -41.55,27.39 -68.8,27.39 -27.25,0 -50.27,-9.14 -69.07,-27.39 -18.8,-18.25 -28.19,-41.41 -28.19,-69.48 0,-28.05 9.39,-51.26 28.19,-69.6 18.8,-18.35 41.77,-27.52 68.94,-27.52 27.16,0 50.09,9.17 68.8,27.52 18.7,18.34 28.06,41.55 28.06,69.6"
         style="fill:#100f0d;fill-opacity:1;fill-rule:nonzero;stroke:none"
         id="path86" />
      <path
         d="m 1604.49,4138.55 h -52.88 l -54.23,-130.59 -54.5,130.59 H 1390 v -189.4 h 46.13 v 106.84 l 43.98,-106.84 h 34.26 l 43.98,106.84 v -106.84 h 46.14 v 189.4"
         style="fill:#100f0d;fill-opacity:1;fill-rule:nonzero;stroke:none"
         id="path88" />
      <path
         d="m 1799.01,4103.47 h 28.6 c 6.84,0 12.32,-2.16 16.46,-6.47 4.14,-4.32 6.2,-9.85 6.2,-16.59 0,-6.75 -2.02,-12.19 -6.07,-16.33 -4.04,-4.14 -9.57,-6.2 -16.59,-6.2 h -28.6 z m 0,-80.67 h 28.6 c 13.13,0 24.51,1.93 34.13,5.8 9.62,3.87 16.86,8.86 21.72,14.98 9.18,11.87 13.76,24.18 13.76,36.96 0,16.01 -6.12,29.68 -18.34,41.01 -12.24,11.33 -29.32,17 -51.27,17 h -74.73 v -189.4 h 46.13 v 73.65"
         style="fill:#100f0d;fill-opacity:1;fill-rule:nonzero;stroke:none"
         id="path90" />
      <path
         d="m 2108.74,4083.51 22.39,-67.45 h -44.78 z m -33.99,-102.53 h 67.98 l 10.53,-31.83 h 49.37 l -65.56,189.94 h -56.12 l -65.83,-189.94 h 49.1 l 10.53,31.83"
         style="fill:#100f0d;fill-opacity:1;fill-rule:nonzero;stroke:none"
         id="path92" />
      <path
         d="m 2502.66,3949.15 v 189.94 h -46.14 v -119.52 l -77.16,119.52 h -46.14 v -189.94 h 46.14 v 119.52 l 77.16,-119.52 h 46.14"
         style="fill:#100f0d;fill-opacity:1;fill-rule:nonzero;stroke:none"
         id="path94" />
      <path
         d="m 2723.62,4053.02 -36.42,85.53 h -52.34 l 65.56,-128.43 v -60.97 h 46.13 v 60.97 l 65.57,128.43 h -52.34 l -36.16,-85.53"
         style="fill:#100f0d;fill-opacity:1;fill-rule:nonzero;stroke:none"
         id="path96" />
      <path
         d="m 925.602,2056.89 166.098,95.91 390.9,225.79 V 1385 l 129.6,-74.8 122.9,70.89 43.3,25 -129.6,74.81 v 1013.29 l -149,86.11 -17.2,-9.9 -390.9,-225.7 -166.098,-95.91 v -191.9"
         style="fill:#100f0d;fill-opacity:1;fill-rule:nonzero;stroke:none"
         id="path98" />
      <path
         d="m 2631.1,2248.79 -574.2,331.51 -149,-86.11 V 1430.9 l -129.5,-74.81 -166.2,-95.89 -112.4,-65 -408.1,235.7 v 671.9 L 925.602,2006.89 V 1385 l 574.198,-331.6 278.6,160.79 6.6,3.91 159.5,92.1 129.5,74.8 v 993.59 l 390.9,-225.79 166.2,-95.91 v 191.9"
         style="fill:#100f0d;fill-opacity:1;fill-rule:nonzero;stroke:none"
         id="path100" />
      <path
         d="m 2464.9,1480.9 -408,-235.7 -69.1,40 -43.3,-25 -122.9,-71.01 235.3,-135.79 574.2,331.6 v 621.89 l -166.2,95.91 v -621.9"
         style="fill:#100f0d;fill-opacity:1;fill-rule:nonzero;stroke:none"
         id="path102" />
      <path
         d="m 1308.26,613.652 h 16.67 V 566.23 h 11.89 v 47.422 h 16.67 v 11.899 h -45.23 v -11.899"
         style="fill:#100f0d;fill-opacity:1;fill-rule:nonzero;stroke:none"
         id="path104" />
      <path
         d="m 1421.03,594.711 4.77,13.391 4.85,-13.391 z m -1.49,30.84 -21.44,-59.321 h 12.59 l 6.03,16.59 h 18.24 l 6.02,-16.59 h 12.6 l -21.44,59.321 h -12.6"
         style="fill:#100f0d;fill-opacity:1;fill-rule:nonzero;stroke:none"
         id="path106" />
      <path
         d="m 1547.95,597.059 h -17.76 v -11.887 h 14.24 c -3.28,-4.313 -8.45,-7.133 -14.24,-7.133 -9.86,0 -17.84,7.992 -17.84,17.852 0,9.781 7.98,17.761 17.84,17.761 4.62,0 8.92,-1.8 12.05,-4.773 l 8.38,8.453 c -5.33,5.09 -12.52,8.219 -20.43,8.219 -16.36,0 -29.66,-13.309 -29.66,-29.66 0,-16.36 13.3,-29.661 29.66,-29.661 16.36,0 29.66,13.301 29.66,29.661 0,0.39 -0.07,0.781 -0.07,1.168 h -11.83"
         style="fill:#100f0d;fill-opacity:1;fill-rule:nonzero;stroke:none"
         id="path108" />
      <path
         d="M 1646.72,625.551 H 1634.9 V 566.23 h 33.42 v 11.891 h -21.6 v 47.43"
         style="fill:#100f0d;fill-opacity:1;fill-rule:nonzero;stroke:none"
         id="path110" />
      <path
         d="m 1720.75,566.23 h 11.82 v 59.321 h -11.82 V 566.23"
         style="fill:#100f0d;fill-opacity:1;fill-rule:nonzero;stroke:none"
         id="path112" />
      <path
         d="m 1822.56,585.949 -23.71,39.602 H 1785 V 566.23 h 11.82 v 39.52 l 23.79,-39.52 h 13.77 v 59.321 h -11.82 v -39.602"
         style="fill:#100f0d;fill-opacity:1;fill-rule:nonzero;stroke:none"
         id="path114" />
      <path
         d="m 1886.81,566.23 h 35.76 v 11.891 h -23.95 v 11.82 h 23.95 v 11.899 h -23.95 v 11.812 h 23.95 v 11.899 h -35.76 V 566.23"
         style="fill:#100f0d;fill-opacity:1;fill-rule:nonzero;stroke:none"
         id="path116" />
      <path
         d="m 2033.31,601.84 h -21.61 v 23.711 h -11.81 V 566.23 h 11.81 v 23.711 h 21.61 V 566.23 h 11.81 v 59.321 h -11.81 V 601.84"
         style="fill:#100f0d;fill-opacity:1;fill-rule:nonzero;stroke:none"
         id="path118" />
      <path
         d="m 2097.55,566.23 h 35.77 v 11.891 h -23.95 v 11.82 h 23.95 v 11.899 h -23.95 v 11.812 h 23.95 v 11.899 h -35.77 V 566.23"
         style="fill:#100f0d;fill-opacity:1;fill-rule:nonzero;stroke:none"
         id="path120" />
      <path
         d="m 2203.51,601.84 h -5.95 v 11.812 h 5.95 c 3.28,0 5.94,-2.66 5.94,-5.941 0,-3.211 -2.66,-5.871 -5.94,-5.871 z m 17.76,5.871 c 0,9.848 -7.9,17.84 -17.76,17.84 h -17.77 V 566.23 h 11.82 v 23.711 h 2.35 l 10.72,-23.711 h 12.99 l -11.66,25.821 c 5.55,2.969 9.31,8.929 9.31,15.66"
         style="fill:#100f0d;fill-opacity:1;fill-rule:nonzero;stroke:none"
         id="path122" />
      <path
         d="m 2274.87,566.23 h 35.77 v 11.891 h -23.95 v 11.82 h 23.95 v 11.899 h -23.95 v 11.812 h 23.95 v 11.899 h -35.77 V 566.23"
         style="fill:#100f0d;fill-opacity:1;fill-rule:nonzero;stroke:none"
         id="path124" />
      <path
         d="m 1015.9,839.852 c 14.13,0 27.31,-5.512 36.89,-14.61 l 25.63,25.867 c -16.29,15.571 -38.32,25.153 -62.52,25.153 -50.06,0 -90.783,-40.723 -90.783,-90.782 0,-50.058 40.723,-90.789 90.783,-90.789 24.2,0 46.23,9.59 62.52,25.149 l -25.63,25.64 c -9.58,-8.871 -22.76,-14.378 -36.89,-14.378 -30.177,0 -54.611,24.199 -54.611,54.378 0,29.942 24.434,54.372 54.611,54.372"
         style="fill:#100f0d;fill-opacity:1;fill-rule:nonzero;stroke:none"
         id="path126" />
      <path
         d="m 1269.81,730.859 c -30.18,0 -54.61,24.442 -54.61,54.621 0,29.942 24.43,54.372 54.61,54.372 29.95,0 54.38,-24.43 54.38,-54.372 0,-30.179 -24.43,-54.621 -54.38,-54.621 z m 0,145.403 c -50.06,0 -90.78,-40.723 -90.78,-90.782 0,-50.058 40.72,-90.789 90.78,-90.789 50.07,0 90.79,40.731 90.79,90.789 0,50.059 -40.72,90.782 -90.79,90.782"
         style="fill:#100f0d;fill-opacity:1;fill-rule:nonzero;stroke:none"
         id="path128" />
      <path
         d="m 1657.39,694.691 v 181.571 h -39.05 l -52.93,-132.699 -53.18,132.699 h -39.05 V 694.691 h 36.18 v 90.789 l 36.4,-90.789 h 39.05 l 36.41,90.789 v -90.789 h 36.17"
         style="fill:#100f0d;fill-opacity:1;fill-rule:nonzero;stroke:none"
         id="path130" />
      <path
         d="m 1820.75,803.68 h -14.61 v 36.172 h 14.61 c 10.07,0 18.21,-8.141 18.21,-18.204 0,-9.816 -8.14,-17.968 -18.21,-17.968 z m 0,72.582 h -50.78 V 694.691 h 36.17 v 72.59 h 14.85 c 29.95,0 54.14,24.418 54.14,54.367 0,30.184 -24.19,54.614 -54.38,54.614"
         style="fill:#100f0d;fill-opacity:1;fill-rule:nonzero;stroke:none"
         id="path132" />
      <path
         d="m 2033.94,781.879 14.61,40.973 14.86,-40.973 z m -4.55,94.383 -65.63,-181.571 h 38.56 l 18.45,50.789 h 55.81 l 18.44,-50.789 h 38.57 l -65.63,181.571 h -38.57"
         style="fill:#100f0d;fill-opacity:1;fill-rule:nonzero;stroke:none"
         id="path134" />
      <path
         d="m 2356.37,755.059 -72.59,121.203 h -42.39 V 694.691 h 36.17 V 815.66 l 72.82,-120.969 h 42.15 v 181.571 h -36.16 V 755.059"
         style="fill:#100f0d;fill-opacity:1;fill-rule:nonzero;stroke:none"
         id="path136" />
      <path
         d="m 2565.96,825.961 -25.15,50.301 h -40.48 l 47.43,-95.09 v -86.481 h 36.17 v 86.481 l 47.43,95.09 h -40.49 l -24.91,-50.301"
         style="fill:#100f0d;fill-opacity:1;fill-rule:nonzero;stroke:none"
         id="path138" />
      <path
         d="m 850.766,6958.06 h 17.797 v 101.21 h 27.039 V 7076 h -71.95 v -16.73 h 27.114 v -101.21"
         style="fill:#100f0d;fill-opacity:1;fill-rule:nonzero;stroke:none"
         id="path140" />
      <path
         d="m 1027.82,7043.54 17.49,-40.11 h -35.82 z m -38.879,-85.48 13.139,28.65 h 50.49 l 12.37,-28.65 h 19.47 l -56.28,125.35 -58.364,-125.35 h 19.175"
         style="fill:#100f0d;fill-opacity:1;fill-rule:nonzero;stroke:none"
         id="path142" />
      <path
         d="m 1228.1,7061.48 c 13.9,0 25.68,-6.44 35.36,-19.32 l 12.68,12.15 c -7.39,8.45 -14.89,14.56 -22.53,18.33 -8,3.77 -16.6,5.65 -25.82,5.65 -17.16,0 -31.73,-5.99 -43.69,-17.95 -11.97,-11.92 -17.95,-26.43 -17.95,-43.54 0,-16.75 5.88,-31.11 17.64,-43.08 11.77,-11.91 25.9,-17.87 42.4,-17.87 16.9,0 30.83,6.16 41.77,18.48 4.84,5.5 8.28,11.41 10.32,17.72 2.09,6.83 3.13,14.67 3.13,23.53 v 3.89 h -48.73 v -16.72 h 29.4 c -0.81,-8.3 -4.71,-15.43 -11.68,-21.39 -6.98,-5.91 -14.84,-8.86 -23.6,-8.86 -10.29,0 -19.84,3.95 -28.65,11.84 -9.42,8.5 -14.13,19.32 -14.13,32.46 0,12.73 4.23,23.32 12.68,31.77 8.45,8.61 18.92,12.91 31.4,12.91"
         style="fill:#100f0d;fill-opacity:1;fill-rule:nonzero;stroke:none"
         id="path144" />
      <path
         d="m 1436.13,7076 v -117.94 h 52.47 v 16.73 h -34.67 V 7076 h -17.8"
         style="fill:#100f0d;fill-opacity:1;fill-rule:nonzero;stroke:none"
         id="path146" />
      <path
         d="m 1583.7,7076 v -117.94 h 17.8 V 7076 h -17.8"
         style="fill:#100f0d;fill-opacity:1;fill-rule:nonzero;stroke:none"
         id="path148" />
      <path
         d="m 1708.05,6958.06 h 17.8 v 82.57 l 86.01,-89.75 V 7076 h -17.8 v -81.96 l -86.01,89.98 v -125.96"
         style="fill:#100f0d;fill-opacity:1;fill-rule:nonzero;stroke:none"
         id="path150" />
      <path
         d="m 1918.33,6958.06 h 65.08 v 16.73 h -47.28 v 39.41 h 45.91 v 16.73 h -45.91 v 28.34 h 47.28 V 7076 h -65.08 v -117.94"
         style="fill:#100f0d;fill-opacity:1;fill-rule:nonzero;stroke:none"
         id="path152" />
      <path
         d="m 2204.41,7029.86 h -50.87 V 7076 h -17.79 v -117.94 h 17.79 v 55.07 h 50.87 v -55.07 h 17.8 V 7076 h -17.8 v -46.14"
         style="fill:#100f0d;fill-opacity:1;fill-rule:nonzero;stroke:none"
         id="path154" />
      <path
         d="M 2393.76,7059.27 V 7076 h -65.08 v -117.94 h 65.08 v 16.73 h -47.28 v 39.41 h 45.91 v 16.73 h -45.91 v 28.34 h 47.28"
         style="fill:#100f0d;fill-opacity:1;fill-rule:nonzero;stroke:none"
         id="path156" />
      <path
         d="m 2513.15,7059.27 h 6.34 c 16.39,0 24.59,-6.03 24.59,-18.1 0,-12.89 -8.43,-19.32 -25.28,-19.32 h -5.65 z m 0,-52.93 h 3.21 l 33.68,-48.28 h 21.77 l -36.51,50.26 c 7.84,1.68 14.15,5.53 18.94,11.53 4.79,6.01 7.18,13.2 7.18,21.55 0,10.69 -3.82,19.29 -11.45,25.82 -6.93,5.85 -18.18,8.78 -33.76,8.78 h -20.86 v -117.94 h 17.8 v 48.28"
         style="fill:#100f0d;fill-opacity:1;fill-rule:nonzero;stroke:none"
         id="path158" />
      <path
         d="M 2732.82,7059.27 V 7076 h -65.08 v -117.94 h 65.08 v 16.73 h -47.28 v 39.41 h 45.91 v 16.73 h -45.91 v 28.34 h 47.28"
         style="fill:#100f0d;fill-opacity:1;fill-rule:nonzero;stroke:none"
         id="path160" />
      <path
         d="m 2010,9464.2 -802.7,-802.8 v -341.2 l 802.7,802.7 v 341.3"
         style="fill:#100f0d;fill-opacity:1;fill-rule:nonzero;stroke:none"
         id="path162" />
      <path
         d="m 2010,8442.7 v 281.2 l -463.6,-463.6 v -0.1 l -339.1,-339 v -281.3 l 339.1,339.1 463.6,463.7"
         style="fill:#100f0d;fill-opacity:1;fill-rule:nonzero;stroke:none"
         id="path164" />
      <path
         d="m 1546.4,8611.4 v -291.2 l 463.6,463.5 339.2,339.2 v 291.3 L 2010,9075 1546.4,8611.4"
         style="fill:#100f0d;fill-opacity:1;fill-rule:nonzero;stroke:none"
         id="path166" />
      <path
         d="M 2349.2,8733.9 2010,8394.7 1546.4,7931.2 v -291.3 l 802.8,802.8 v 291.2"
         style="fill:#100f0d;fill-opacity:1;fill-rule:nonzero;stroke:none"
         id="path168" />
      <path
         d="m 855.879,7226.45 c 9.996,-9.8 21.902,-17.37 35.738,-22.72 13.828,-5.35 29.024,-8.03 45.578,-8.03 15.75,0 30.586,3.03 44.524,9.09 13.929,6.06 25.741,15.75 35.431,29.08 l -31.498,22.41 c -7.066,-9.09 -14.683,-15.7 -22.863,-19.84 -8.18,-4.14 -16.613,-6.21 -25.289,-6.21 -11.109,0 -21.152,2.02 -30.137,6.06 -8.984,4.03 -16.711,9.58 -23.164,16.65 -6.469,7.07 -11.465,15.45 -14.996,25.14 -3.535,9.69 -5.301,20.29 -5.301,31.8 0,10.7 1.766,20.7 5.301,29.99 3.531,9.28 8.527,17.41 14.996,24.38 6.453,6.96 14.18,12.42 23.164,16.35 8.985,3.94 19.028,5.91 30.137,5.91 7.473,0 14.887,-1.42 22.262,-4.24 7.367,-2.83 14.988,-8.48 22.867,-16.96 l 29.671,21.8 c -10.7,12.32 -22.257,21.05 -34.667,26.2 -12.422,5.15 -25.899,7.73 -40.438,7.73 -16.554,0 -31.75,-2.69 -45.578,-8.03 -13.836,-5.35 -25.742,-12.98 -35.738,-22.87 -9.996,-9.89 -17.82,-21.86 -23.473,-35.89 -5.652,-14.04 -8.48,-29.63 -8.48,-46.79 0,-16.76 2.828,-32 8.48,-45.73 5.653,-13.73 13.477,-25.49 23.473,-35.28"
         style="fill:#100f0d;fill-opacity:1;fill-rule:nonzero;stroke:none"
         id="path170" />
      <path
         d="m 1137.24,7339.87 c 3.53,9.28 8.52,17.41 14.99,24.38 6.46,6.96 14.18,12.42 23.17,16.35 8.98,3.94 19.02,5.91 30.13,5.91 11.1,0 21.2,-1.97 30.29,-5.91 9.08,-3.93 16.86,-9.39 23.32,-16.35 6.46,-6.97 11.46,-15.1 14.99,-24.38 3.53,-9.29 5.3,-19.29 5.3,-29.99 0,-11.51 -1.77,-22.11 -5.3,-31.8 -3.53,-9.69 -8.53,-18.07 -14.99,-25.14 -6.46,-7.07 -14.24,-12.62 -23.32,-16.65 -9.09,-4.04 -19.19,-6.06 -30.29,-6.06 -11.11,0 -21.15,2.02 -30.13,6.06 -8.99,4.03 -16.71,9.58 -23.17,16.65 -6.47,7.07 -11.46,15.45 -14.99,25.14 -3.54,9.69 -5.31,20.29 -5.31,31.8 0,10.7 1.77,20.7 5.31,29.99 z m -13.33,-113.42 c 10,-9.8 21.91,-17.37 35.74,-22.72 13.83,-5.35 29.02,-8.03 45.58,-8.03 16.75,0.21 32.1,3.08 46.03,8.64 13.94,5.55 25.95,13.27 36.04,23.16 10.1,9.89 17.97,21.71 23.63,35.44 5.65,13.73 8.48,28.97 8.48,45.73 0,17.16 -2.83,32.71 -8.48,46.64 -5.66,13.93 -13.53,25.84 -23.63,35.74 -10.09,9.89 -22.1,17.42 -36.04,22.56 -13.93,5.15 -29.28,7.62 -46.03,7.43 -16.56,0 -31.75,-2.69 -45.58,-8.03 -13.83,-5.35 -25.74,-12.98 -35.74,-22.87 -9.99,-9.89 -17.82,-21.86 -23.47,-35.89 -5.65,-14.04 -8.48,-29.63 -8.48,-46.79 0,-16.76 2.83,-32 8.48,-45.73 5.65,-13.73 13.48,-25.49 23.47,-35.28"
         style="fill:#100f0d;fill-opacity:1;fill-rule:nonzero;stroke:none"
         id="path172" />
      <path
         d="m 1475.38,7415.58 h -58.15 v -214.42 h 36.34 v 178.08 h 0.6 l 65.12,-178.08 h 26.66 l 65.11,178.08 h 0.61 v -178.08 h 36.34 v 214.42 h -57.55 l -57.84,-150.22 -57.24,150.22"
         style="fill:#100f0d;fill-opacity:1;fill-rule:nonzero;stroke:none"
         id="path174" />
      <path
         d="m 1795.5,7382.87 h 27.26 c 5.04,0 10.3,-0.3 15.75,-0.91 5.45,-0.6 10.39,-1.96 14.83,-4.08 4.44,-2.12 8.08,-5.16 10.91,-9.09 2.83,-3.94 4.24,-9.24 4.24,-15.9 0,-7.27 -1.57,-12.92 -4.69,-16.96 -3.14,-4.04 -7.17,-7.07 -12.12,-9.08 -4.95,-2.03 -10.35,-3.24 -16.2,-3.64 -5.86,-0.41 -11.51,-0.61 -16.96,-0.61 h -23.02 z m 0,-92.98 h 27.26 c 11.3,0 22.16,0.81 32.55,2.42 10.4,1.62 19.54,4.7 27.41,9.24 7.88,4.55 14.14,10.95 18.78,19.24 4.64,8.27 6.97,19.18 6.97,32.71 0,11.91 -2.18,21.85 -6.51,29.83 -4.35,7.97 -10.15,14.33 -17.42,19.08 -7.27,4.74 -15.7,8.12 -25.29,10.14 -9.59,2.02 -19.53,3.03 -29.83,3.03 h -72.08 v -214.42 h 38.16 v 88.73"
         style="fill:#100f0d;fill-opacity:1;fill-rule:nonzero;stroke:none"
         id="path176" />
      <path
         d="m 2065.35,7370.15 33.01,-87.22 h -66.63 z m -46.64,-119.93 h 92.98 l 19.99,-49.06 h 43.61 l -92.37,214.42 h -33.01 l -93.29,-214.42 h 42.71 l 19.38,49.06"
         style="fill:#100f0d;fill-opacity:1;fill-rule:nonzero;stroke:none"
         id="path178" />
      <path
         d="m 2259.78,7415.58 v -214.42 h 38.16 v 164.45 h 0.61 l 106,-164.45 h 48.46 v 214.42 h -38.16 v -159.3 h -0.61 l -103.88,159.3 h -50.58"
         style="fill:#100f0d;fill-opacity:1;fill-rule:nonzero;stroke:none"
         id="path180" />
      <path
         d="m 2613.83,7201.16 h 38.15 v 91.76 l 80.57,122.66 h -45.43 l -53.31,-85.4 -52.7,85.4 h -47.85 l 80.57,-122.66 v -91.76"
         style="fill:#100f0d;fill-opacity:1;fill-rule:nonzero;stroke:none"
         id="path182" />
      <path
         d="m 4188.11,803.48 0.61,1.833 -30.88,7.648 -0.61,-1.84 c -3.67,-16.512 -10.7,-29.039 -20.79,-37.601 -10.4,-8.258 -22.93,-12.54 -37.91,-12.54 -12.23,0 -23.54,3.059 -34.24,9.18 -10.4,6.11 -18.04,15.59 -22.93,28.121 -5.2,12.539 -7.65,27.52 -7.65,44.34 0,13.141 2.14,25.981 6.42,38.211 4.28,12.231 11.62,22.02 21.71,29.359 10.4,7.028 23.54,10.688 38.83,10.688 13.45,0 24.46,-3.047 33.32,-9.777 8.87,-6.422 15.59,-16.813 20.18,-31.192 l 0.62,-1.519 30.57,7.031 -0.61,1.84 c -5.81,18.949 -15.9,33.929 -30.27,44.629 -14.37,10.398 -32.11,15.589 -53.2,15.589 -18.35,0 -35.46,-3.968 -51.06,-12.23 -15.28,-8.559 -27.51,-20.789 -35.77,-36.687 -8.25,-15.891 -12.54,-34.852 -12.54,-55.942 0,-19.57 3.68,-38.219 11.01,-55.039 7.34,-17.121 18.34,-30.57 32.71,-39.441 14.07,-9.172 32.72,-13.762 55.35,-13.762 21.7,0 40.35,6.121 55.64,17.742 15.28,11.621 25.68,29.039 31.49,51.359"
         style="fill:#100f0d;fill-opacity:1;fill-rule:nonzero;stroke:none"
         id="path184" />
      <path
         d="m 4433.93,781.77 c -12.84,-13.75 -29.66,-20.79 -49.53,-20.79 -19.57,0 -36.07,7.04 -49.22,20.481 -12.85,13.758 -19.57,32.719 -19.57,56.57 0,29.66 7.03,51.36 20.48,63.899 13.46,12.531 29.96,18.949 48.62,18.949 13.45,0 25.37,-3.359 36.07,-9.777 10.4,-6.422 18.65,-15.903 24.16,-27.821 5.5,-11.922 8.25,-26.301 8.25,-42.5 0,-25.371 -6.42,-45.25 -19.26,-59.011 z m 3.36,152.261 c -15.59,9.168 -33.33,13.758 -52.58,13.758 -29.66,0 -54.12,-9.789 -72.77,-29.039 -18.65,-19.27 -28.13,-46.48 -28.13,-80.418 0,-18.031 3.97,-35.16 12.23,-51.359 7.95,-16.203 19.87,-29.051 35.46,-38.524 15.6,-9.48 33.33,-14.07 52.9,-14.07 18.34,0 35.46,4.281 51.06,12.851 15.9,8.25 28.12,21.09 36.99,37.602 8.57,16.207 12.84,35.16 12.84,55.949 0,20.481 -4.27,38.828 -12.23,55.039 -8.25,16.2 -20.17,29.039 -35.77,38.211"
         style="fill:#100f0d;fill-opacity:1;fill-rule:nonzero;stroke:none"
         id="path186" />
      <path
         d="m 4793.17,940.762 h -29.65 V 734.379 h 29.65 v 206.383"
         style="fill:#100f0d;fill-opacity:1;fill-rule:nonzero;stroke:none"
         id="path188" />
      <path
         d="m 4694.12,771.379 -8.26,24.461 -49.22,144.922 h -3.36 v -74.91 l 45.55,-131.473 h 27.21 l 46.47,131.172 v 73.371 L 4703.29,798.59 c -3.97,-11.309 -7.03,-20.18 -9.17,-27.211"
         style="fill:#100f0d;fill-opacity:1;fill-rule:nonzero;stroke:none"
         id="path190" />
      <path
         d="m 4592.3,734.379 h 29.97 V 940.762 H 4592.3 V 734.379"
         style="fill:#100f0d;fill-opacity:1;fill-rule:nonzero;stroke:none"
         id="path192" />
      <path
         d="m 4931.07,940.762 h -30.88 V 734.379 h 30.88 v 206.383"
         style="fill:#100f0d;fill-opacity:1;fill-rule:nonzero;stroke:none"
         id="path194" />
      <path
         d="m 5037.77,928.832 c -7.03,4.898 -15.89,8.258 -25.99,9.789 -7.34,1.531 -18.03,2.141 -31.79,2.141 h -37.91 v -27.52 h 40.05 c 12.23,0 20.48,-0.613 25.07,-1.832 6.73,-1.84 12.22,-5.508 16.2,-11.32 4.28,-5.801 6.12,-12.531 6.12,-20.789 0,-11 -3.37,-19.559 -10.4,-25.68 -7.03,-6.109 -19.26,-9.172 -36.38,-9.172 h -40.66 v -27.82 h 40.35 c 29.35,0 50.45,6.422 61.76,18.652 11.62,12.231 17.43,27.211 17.43,44.938 0,10.402 -2.14,19.871 -6.42,28.433 -4.58,8.567 -10.09,15.598 -17.43,20.18"
         style="fill:#100f0d;fill-opacity:1;fill-rule:nonzero;stroke:none"
         id="path196" />
      <path
         d="m 5281.14,940.762 h -31.79 l -80.72,-206.383 h 32.72 l 9.17,24.16 h -0.31 l 23.24,62.672 4.89,12.84 17.12,45.558 h 0.31 c 3.66,10.09 6.73,20.481 9.17,30.582 3.06,-9.793 7.34,-21.711 12.54,-35.171 l 20.79,-53.809 h -52.9 l -9.48,-25.371 h 72.16 l 24.15,-61.461 h 35.16 l -86.22,206.383"
         style="fill:#100f0d;fill-opacity:1;fill-rule:nonzero;stroke:none"
         id="path198" />
      <path
         d="m 5511.06,874.719 85,-124.739 v 52.891 l -85,124.43 v -52.582"
         style="fill:#100f0d;fill-opacity:1;fill-rule:nonzero;stroke:none"
         id="path200" />
      <path
         d="m 5607.68,785.75 -0.61,0.922 v -52.293 h 30.57 v 206.383 h -29.96 V 785.75"
         style="fill:#100f0d;fill-opacity:1;fill-rule:nonzero;stroke:none"
         id="path202" />
      <path
         d="m 5471.32,734.379 h 28.74 v 206.383 h -28.74 V 734.379"
         style="fill:#100f0d;fill-opacity:1;fill-rule:nonzero;stroke:none"
         id="path204" />
      <path
         d="m 5864.19,880.219 c -7.94,-11.918 -14.98,-23.239 -21.09,-33.02 v 0.313 l -17.12,-25.992 v -87.141 h 31.18 v 87.141 l 84.08,119.242 h -36.38 l -40.67,-60.543"
         style="fill:#100f0d;fill-opacity:1;fill-rule:nonzero;stroke:none"
         id="path206" />
      <path
         d="m 5823.84,878.691 -41.28,62.071 h -37.91 l 74.6,-109.461 17.42,26.91 -12.83,20.48"
         style="fill:#100f0d;fill-opacity:1;fill-rule:nonzero;stroke:none"
         id="path208" />
      <path
         d="m 4001.99,640.359 h 22.98 v -64.078 h 15.52 v 64.078 h 22.79 v 13.063 h -61.29 v -13.063"
         style="fill:#100f0d;fill-opacity:1;fill-rule:nonzero;stroke:none"
         id="path210" />
      <path
         d="m 4192.25,606.852 10.57,28.546 10.56,-28.546 z m 2.46,46.57 -30.04,-77.141 h 16.53 l 6.42,17.5 h 30.88 l 6.61,-17.5 h 17.02 l -30.88,77.141 h -16.54"
         style="fill:#100f0d;fill-opacity:1;fill-rule:nonzero;stroke:none"
         id="path212" />
      <path
         d="m 4385.29,604.711 h 17.87 v -9.922 c -5.62,-4.297 -11.73,-6.449 -18.35,-6.449 -7.15,0 -12.63,2.461 -16.43,7.359 -3.8,4.91 -5.7,11.59 -5.7,20.063 0,17.179 7.43,25.758 22.29,25.758 9.25,0 15.08,-4.118 17.51,-12.372 l 15.36,2.942 c -3.31,15.109 -14.27,22.66 -32.87,22.66 -10.67,0 -19.72,-3.301 -27.16,-9.918 -7.43,-6.609 -11.14,-16.512 -11.14,-29.711 0,-11.801 3.33,-21.449 10,-28.93 6.66,-7.492 16.44,-11.23 29.31,-11.23 13.31,0 24.26,3.961 32.86,11.891 v 30.718 h -33.55 v -12.859"
         style="fill:#100f0d;fill-opacity:1;fill-rule:nonzero;stroke:none"
         id="path214" />
      <path
         d="m 4641.27,653.422 h -15.68 v -77.141 h 54.31 v 13.071 h -38.63 v 64.07"
         style="fill:#100f0d;fill-opacity:1;fill-rule:nonzero;stroke:none"
         id="path216" />
      <path
         d="m 4790.04,576.281 h 15.69 v 77.141 h -15.69 v -77.141"
         style="fill:#100f0d;fill-opacity:1;fill-rule:nonzero;stroke:none"
         id="path218" />
      <path
         d="m 4966.6,601.891 -31.74,51.531 h -15.16 v -77.141 h 14.52 v 50.367 l 31.21,-50.367 h 15.52 v 77.141 h -14.35 v -51.531"
         style="fill:#100f0d;fill-opacity:1;fill-rule:nonzero;stroke:none"
         id="path220" />
      <path
         d="m 5112.1,610.32 h 38.63 v 13.02 h -38.63 v 17.019 h 41.61 v 13.063 h -57.29 v -77.141 h 58.79 v 13.071 h -43.11 v 20.968"
         style="fill:#100f0d;fill-opacity:1;fill-rule:nonzero;stroke:none"
         id="path222" />
      <path
         d="m 5403.42,623.02 h -30.52 v 30.402 h -15.53 v -77.141 h 15.53 V 610 h 30.52 v -33.719 h 15.53 v 77.141 h -15.53 V 623.02"
         style="fill:#100f0d;fill-opacity:1;fill-rule:nonzero;stroke:none"
         id="path224" />
      <path
         d="m 5549.77,610.32 h 38.63 v 13.02 h -38.63 v 17.019 h 41.61 v 13.063 h -57.29 v -77.141 h 58.79 v 13.071 h -43.11 v 20.968"
         style="fill:#100f0d;fill-opacity:1;fill-rule:nonzero;stroke:none"
         id="path226" />
      <path
         d="m 5732.41,620.879 h -11.53 v 19.48 h 12.22 c 8.36,0 13.67,-0.629 15.92,-1.898 2.26,-1.262 3.39,-3.82 3.39,-7.66 0,-4.09 -1.37,-6.762 -4.13,-8.02 -2.75,-1.269 -8.05,-1.902 -15.87,-1.902 z m 15.69,-10.559 c 13.55,1.981 20.32,9.141 20.32,21.45 0,8.39 -2.5,14.089 -7.5,17.121 -5,3.019 -12.57,4.531 -22.7,4.531 h -32.86 v -77.141 h 15.52 V 608.5 h 3.1 c 4.41,0 7.64,-0.578 9.68,-1.73 2.05,-1.161 3.89,-3.008 5.53,-5.559 l 16.85,-24.93 h 18.67 l -9.44,15.051 c -6.26,9.887 -11.98,16.219 -17.17,18.988"
         style="fill:#100f0d;fill-opacity:1;fill-rule:nonzero;stroke:none"
         id="path228" />
      <path
         d="m 5897.76,610.32 h 38.63 v 13.02 h -38.63 v 17.019 h 41.61 v 13.063 h -57.3 v -77.141 h 58.79 v 13.071 h -43.1 v 20.968"
         style="fill:#100f0d;fill-opacity:1;fill-rule:nonzero;stroke:none"
         id="path230" />
      <path
         d="m 4875,1393 h -1.4 v -1.11 h -385.9 c 1.2,5.91 2.5,11.81 3.9,17.61 1.3,5.5 2.7,10.9 4.2,16.19 0.6,2.11 1.2,4.1 1.8,6.2 1.2,4.11 2.4,8.11 3.7,12.21 1.1,3.4 2.2,6.8 3.5,10.2 1.2,3.7 2.6,7.5 4,11.2 1.8,4.9 3.7,9.8 5.6,14.6 1.7,4.2 3.5,8.3 5.4,12.4 0.5,1.4 1.1,2.7 1.8,3.99 1.7,3.91 3.5,7.81 5.4,11.61 0.7,1.49 1.4,2.9 2.1,4.3 1.8,3.69 3.7,7.39 5.7,11 0.7,1.39 1.4,2.8 2.3,4.2 0.3,0.59 0.7,1.3 1,1.9 2.2,4.09 4.5,8.2 6.9,12.19 2.3,3.91 4.6,7.81 7.1,11.71 0.1,0.1 0.2,0.3 0.3,0.39 1.3,2.21 2.7,4.31 4.1,6.51 2.5,4 5.1,7.89 7.8,11.7 3.4,4.89 6.8,9.8 10.5,14.6 2.6,3.7 5.4,7.3 8.3,10.9 0.6,0.69 1.1,1.29 1.6,1.89 0.9,1.3 2,2.61 3,3.8 3.1,3.81 6.2,7.61 9.5,11.31 0.1,0.2 0.2,0.29 0.4,0.5 l 0.3,0.3 c 3.2,3.8 6.5,7.5 10,11.19 0.9,1.01 1.9,2.1 2.9,3.1 3.7,4.11 7.6,8.11 11.6,12.1 49.88,49.88 108.62,87.65 172.6,112.01 v 32.1 h -305.5 c -1.9,-1.81 -3.7,-3.6 -5.5,-5.4 -63.2,-63.11 -112.9,-136.61 -147.7,-218.51 C 4300.3,1477 4282,1387 4281.8,1294.1 l -0.1,-58.1 v -40 h 786.2 v 589.8 h 0.1 v 46.8 l -0.1,91.19 v 441.71 h 0.38 v 0 h 1.28 v 0 h 0.04 v 0.3 h 385.9 c -19.1,-94 -65.3,-180.5 -134.7,-249.8 -39.1,-39 -83.6,-70.7 -131.9,-94.2 h 311 c 44.2,52.39 80.1,110.7 107,174.1 35.9,84.79 54.2,174.9 54.4,267.69 l 0.2,98.21 H 4875 V 1393"
         style="fill:#100f0d;fill-opacity:1;fill-rule:nonzero;stroke:none"
         id="path232" />
      <path
         d="m 4477.8,1981.8 v 384.29 c 94.5,-18.8 181.5,-64.89 251.2,-134.6 25.17,-25.12 47.1,-52.62 66,-81.82 v 283.44 c -45.01,33.97 -93.96,62.28 -146.3,84.39 -84.9,35.9 -175,53.99 -267.9,53.99 h -99 V 1825.8 H 4795 v 156 h -317.2"
         style="fill:#100f0d;fill-opacity:1;fill-rule:nonzero;stroke:none"
         id="path234" />
      <path
         d="m 5148.6,1825.8 h 307 v -424.31 c -94.6,18.71 -181.5,64.91 -251.2,134.51 -20.7,20.69 -39.4,42.9 -55.8,66.29 V 1326.8 c 42.1,-30.6 87.7,-56.3 136.1,-76.7 84.9,-35.91 175,-54.1 267.9,-54.1 h 98.9 v 785.8 h -502.9 v -156"
         style="fill:#100f0d;fill-opacity:1;fill-rule:nonzero;stroke:none"
         id="path236" />
      <path
         d="m 5068.28,2365.5 v 0 -1169.51 h 1.28 v 589.81 h 0.16 l -0.03,6.79 -0.13,91.17 v 481.74 0 h -1.28"
         style="fill:#ffffff;fill-opacity:1;fill-rule:nonzero;stroke:none"
         id="path238" />
      <path
         d="m 7671.8,7613.5 248,200.09 -344.1,277.61 v -411.1 l 89.3,-72.1 6.8,5.5"
         style="fill:#100f0d;fill-opacity:1;fill-rule:nonzero;stroke:none"
         id="path240" />
      <path
         d="m 8754.1,8435.3 -770.6,-621.71 -15.9,-12.9 -15.9,-12.89 -254.8,-205.51 h 509.5 l 15.9,12.81 16,12.9 515.8,416.3 v 411"
         style="fill:#100f0d;fill-opacity:1;fill-rule:nonzero;stroke:none"
         id="path242" />
      <path
         d="m 7671.8,8127.9 248,200.1 -344.1,277.6 v -411.1 l 89.4,-72 6.7,5.4"
         style="fill:#100f0d;fill-opacity:1;fill-rule:nonzero;stroke:none"
         id="path244" />
      <path
         d="m 8222.3,8109.59 15.9,12.91 515.9,416.2 v 411 l -770.6,-621.7 -15.9,-12.9 -16,-12.81 -254.7,-205.49 h 509.5 l 15.9,12.79"
         style="fill:#100f0d;fill-opacity:1;fill-rule:nonzero;stroke:none"
         id="path246" />
      <path
         d="m 7671.8,8642.4 248,200 -344.1,277.6 v -411.01 l 89.3,-72.1 6.8,5.51"
         style="fill:#100f0d;fill-opacity:1;fill-rule:nonzero;stroke:none"
         id="path248" />
      <path
         d="m 8206.4,8611.2 15.9,12.79 16,12.9 515.8,416.21 v 411.1 l -770.6,-621.7 -15.9,-12.91 -16,-12.9 -254.7,-205.49 h 509.5"
         style="fill:#100f0d;fill-opacity:1;fill-rule:nonzero;stroke:none"
         id="path250" />
      <path
         d="m 7335.96,7135.2 c 8.98,-8.81 19.68,-15.61 32.12,-20.42 12.42,-4.8 26.08,-7.21 40.96,-7.21 14.15,0 27.49,2.72 40.01,8.16 12.52,5.45 23.14,14.16 31.85,26.14 l -28.31,20.14 c -6.35,-8.17 -13.2,-14.11 -20.55,-17.83 -7.35,-3.72 -14.93,-5.58 -22.73,-5.58 -9.98,0 -19.01,1.81 -27.08,5.44 -8.08,3.63 -15.02,8.62 -20.82,14.97 -5.81,6.35 -10.31,13.89 -13.48,22.6 -3.17,8.71 -4.76,18.23 -4.76,28.58 0,9.61 1.59,18.59 4.76,26.94 3.17,8.35 7.67,15.65 13.48,21.91 5.8,6.26 12.74,11.17 20.82,14.71 8.07,3.53 17.1,5.3 27.08,5.3 6.72,0 13.38,-1.27 20.01,-3.81 6.62,-2.54 13.47,-7.62 20.55,-15.24 l 26.67,19.59 c -9.62,11.07 -20,18.92 -31.16,23.55 -11.16,4.62 -23.28,6.94 -36.34,6.94 -14.88,0 -28.54,-2.4 -40.96,-7.21 -12.44,-4.81 -23.14,-11.66 -32.12,-20.56 -8.99,-8.89 -16.02,-19.64 -21.1,-32.25 -5.08,-12.61 -7.62,-26.63 -7.62,-42.05 0,-15.07 2.54,-28.77 7.62,-41.11 5.08,-12.33 12.11,-22.91 21.1,-31.7"
         style="fill:#100f0d;fill-opacity:1;fill-rule:nonzero;stroke:none"
         id="path252" />
      <path
         d="m 7588.82,7237.13 c 3.17,8.35 7.66,15.65 13.48,21.91 5.8,6.26 12.74,11.17 20.82,14.71 8.07,3.53 17.1,5.3 27.08,5.3 9.98,0 19.06,-1.77 27.22,-5.3 8.17,-3.54 15.15,-8.45 20.96,-14.71 5.81,-6.26 10.3,-13.56 13.48,-21.91 3.17,-8.35 4.76,-17.33 4.76,-26.94 0,-10.35 -1.59,-19.87 -4.76,-28.58 -3.18,-8.71 -7.67,-16.25 -13.48,-22.6 -5.81,-6.35 -12.79,-11.34 -20.96,-14.97 -8.16,-3.63 -17.24,-5.44 -27.22,-5.44 -9.98,0 -19.01,1.81 -27.08,5.44 -8.08,3.63 -15.02,8.62 -20.82,14.97 -5.82,6.35 -10.31,13.89 -13.48,22.6 -3.17,8.71 -4.76,18.23 -4.76,28.58 0,9.61 1.59,18.59 4.76,26.94 z m -11.97,-101.93 c 8.98,-8.81 19.68,-15.61 32.11,-20.42 12.43,-4.8 26.09,-7.21 40.97,-7.21 15.06,0.18 28.85,2.77 41.37,7.76 12.53,4.99 23.32,11.93 32.39,20.82 9.08,8.89 16.15,19.5 21.24,31.85 5.07,12.33 7.62,26.03 7.62,41.1 0,15.42 -2.55,29.4 -7.62,41.92 -5.09,12.52 -12.16,23.22 -21.24,32.11 -9.07,8.89 -19.86,15.65 -32.39,20.28 -12.52,4.63 -26.31,6.85 -41.37,6.67 -14.88,0 -28.54,-2.4 -40.97,-7.21 -12.43,-4.81 -23.13,-11.66 -32.11,-20.56 -8.99,-8.89 -16.02,-19.64 -21.1,-32.25 -5.08,-12.61 -7.62,-26.63 -7.62,-42.05 0,-15.07 2.54,-28.77 7.62,-41.11 5.08,-12.33 12.11,-22.91 21.1,-31.7"
         style="fill:#100f0d;fill-opacity:1;fill-rule:nonzero;stroke:none"
         id="path254" />
      <path
         d="m 8047.87,7112.47 v 192.71 h -51.71 l -51.99,-135 -51.45,135 h -52.26 v -192.71 h 32.67 v 160.05 h 0.54 l 58.52,-160.05 h 23.96 l 58.52,160.05 h 0.54 v -160.05 h 32.66"
         style="fill:#100f0d;fill-opacity:1;fill-rule:nonzero;stroke:none"
         id="path256" />
      <path
         d="m 8180.43,7275.79 h 24.5 c 4.53,0 9.25,-0.28 14.15,-0.82 4.9,-0.55 9.35,-1.77 13.34,-3.68 3.99,-1.91 7.26,-4.62 9.8,-8.17 2.54,-3.53 3.81,-8.3 3.81,-14.28 0,-6.54 -1.41,-11.62 -4.22,-15.25 -2.81,-3.63 -6.44,-6.35 -10.89,-8.16 -4.45,-1.82 -9.3,-2.91 -14.56,-3.27 -5.27,-0.36 -10.34,-0.54 -15.24,-0.54 h -20.69 z m 0,-83.57 h 24.5 c 10.16,0 19.91,0.72 29.26,2.18 9.34,1.45 17.56,4.22 24.63,8.3 7.08,4.08 12.7,9.84 16.88,17.29 4.17,7.43 6.26,17.23 6.26,29.39 0,10.71 -1.95,19.64 -5.85,26.81 -3.91,7.17 -9.12,12.88 -15.65,17.15 -6.54,4.26 -14.11,7.3 -22.73,9.12 -8.62,1.81 -17.56,2.72 -26.81,2.72 h -64.79 v -192.71 h 34.3 v 79.75"
         style="fill:#100f0d;fill-opacity:1;fill-rule:nonzero;stroke:none"
         id="path258" />
      <path
         d="m 8392.74,7185.96 30.22,78.39 29.67,-78.39 z m 46,119.22 h -29.67 l -83.83,-192.71 h 38.38 l 17.42,44.09 h 83.56 l 17.97,-44.09 h 39.19 l -83.02,192.71"
         style="fill:#100f0d;fill-opacity:1;fill-rule:nonzero;stroke:none"
         id="path260" />
      <path
         d="m 8771.36,7112.47 v 192.71 h -34.3 v -143.17 h -0.54 l -93.36,143.17 h -45.46 v -192.71 h 34.3 v 147.8 h 0.54 l 95.27,-147.8 h 43.55"
         style="fill:#100f0d;fill-opacity:1;fill-rule:nonzero;stroke:none"
         id="path262" />
      <path
         d="m 8915.89,7112.47 h 34.3 v 82.47 l 72.4,110.24 h -40.83 l -47.9,-76.76 -47.37,76.76 h -43 l 72.4,-110.24 v -82.47"
         style="fill:#100f0d;fill-opacity:1;fill-rule:nonzero;stroke:none"
         id="path264" />
      <path
         d="m 7331.69,7028.1 h -24.2 v 11.95 h 61.87 v -11.95 h -24.2 v -76.48 h -13.47 v 76.48"
         style="fill:#100f0d;fill-opacity:1;fill-rule:nonzero;stroke:none"
         id="path266" />
      <path
         d="m 7498.03,6983.28 -12.79,38.63 H 7485 l -12.8,-38.63 z m 3.83,-11.89 h -33.54 l -6.8,-19.77 h -14.19 l 32.15,88.43 h 11.22 l 32.14,-88.43 h -14.13 l -6.85,19.77"
         style="fill:#100f0d;fill-opacity:1;fill-rule:nonzero;stroke:none"
         id="path268" />
      <path
         d="m 7645.7,7000.32 h 31.41 v -18.01 c -0.16,-8.86 -3.19,-16.27 -9.09,-22.26 -5.95,-5.94 -13.43,-9 -22.44,-9.16 -6.96,0.16 -12.76,1.86 -17.41,5.1 -4.73,3.11 -8.17,6.71 -10.31,10.79 -0.65,1.34 -1.24,2.61 -1.76,3.83 -0.49,1.25 -0.89,2.82 -1.21,4.72 -0.61,3.56 -0.91,10.4 -0.91,20.5 0,10.27 0.3,17.15 0.91,20.63 0.64,3.47 1.63,6.28 2.97,8.43 2.14,4.08 5.58,7.72 10.31,10.92 4.65,3.23 10.45,4.88 17.41,4.97 8.53,-0.09 15.48,-2.61 20.86,-7.59 5.38,-5.01 8.77,-11.22 10.19,-18.61 h -14.19 c -1.09,3.55 -3.07,6.59 -5.95,9.09 -2.99,2.39 -6.63,3.62 -10.91,3.7 -3.16,-0.08 -5.87,-0.7 -8.13,-1.88 -2.31,-1.21 -4.17,-2.73 -5.58,-4.55 -1.74,-1.9 -2.89,-4.34 -3.46,-7.34 -0.65,-3.15 -0.97,-9.07 -0.97,-17.77 0,-8.69 0.32,-14.58 0.97,-17.65 0.57,-3.07 1.72,-5.56 3.46,-7.46 1.41,-1.81 3.27,-3.29 5.58,-4.42 2.26,-1.34 4.97,-2 8.13,-2 5.21,0 9.52,1.77 12.92,5.33 3.39,3.4 5.13,7.87 5.21,13.41 v 4.61 h -18.01 v 12.67"
         style="fill:#100f0d;fill-opacity:1;fill-rule:nonzero;stroke:none"
         id="path270" />
      <path
         d="m 7809,7040.05 h 13.4 v -75.75 h 43.07 v -12.68 H 7809 v 88.43"
         style="fill:#100f0d;fill-opacity:1;fill-rule:nonzero;stroke:none"
         id="path272" />
      <path
         d="m 7965.03,7040.05 h 13.41 v -88.43 h -13.41 v 88.43"
         style="fill:#100f0d;fill-opacity:1;fill-rule:nonzero;stroke:none"
         id="path274" />
      <path
         d="m 8084.01,7040.05 h 12.61 l 40.04,-62.84 h 0.24 v 62.84 h 13.4 v -88.43 h -12.68 l -39.97,62.83 h -0.24 v -62.83 h -13.4 v 88.43"
         style="fill:#100f0d;fill-opacity:1;fill-rule:nonzero;stroke:none"
         id="path276" />
      <path
         d="m 8255.93,7040.05 h 56.47 v -12.68 h -43.07 v -25.23 h 36.76 v -11.89 h -36.76 v -25.95 h 43.07 v -12.68 h -56.47 v 88.43"
         style="fill:#100f0d;fill-opacity:1;fill-rule:nonzero;stroke:none"
         id="path278" />
      <path
         d="m 8499.4,6990.25 h -34.99 v -38.63 h -13.4 v 88.43 h 13.4 v -37.91 h 34.99 v 37.91 h 13.41 v -88.43 h -13.41 v 38.63"
         style="fill:#100f0d;fill-opacity:1;fill-rule:nonzero;stroke:none"
         id="path280" />
      <path
         d="m 8644.8,7040.05 h 56.46 v -12.68 h -43.06 v -25.23 h 36.76 v -11.89 h -36.76 v -25.95 h 43.06 v -12.68 h -56.46 v 88.43"
         style="fill:#100f0d;fill-opacity:1;fill-rule:nonzero;stroke:none"
         id="path282" />
      <path
         d="m 8814.24,7001.29 h 20.25 c 5.02,0.08 8.78,1.54 11.28,4.37 2.47,2.63 3.71,5.86 3.71,9.71 -0.09,4.61 -1.56,7.94 -4.44,10 -2.26,1.82 -5.53,2.73 -9.82,2.73 h -20.98 z m -13.41,38.76 h 34.51 c 7.36,0 13.36,-1.94 18.01,-5.82 5.62,-4.41 8.56,-10.7 8.8,-18.86 -0.16,-12.02 -5.86,-20.18 -17.11,-24.51 l 20.5,-39.24 h -15.95 l -18.25,37.78 h -17.1 v -37.78 h -13.41 v 88.43"
         style="fill:#100f0d;fill-opacity:1;fill-rule:nonzero;stroke:none"
         id="path284" />
      <path
         d="M 8963.53,7040.05 H 9020 v -12.68 h -43.06 v -25.23 h 36.75 v -11.89 h -36.75 V 6964.3 H 9020 v -12.68 h -56.47 v 88.43"
         style="fill:#100f0d;fill-opacity:1;fill-rule:nonzero;stroke:none"
         id="path286" />
      <path
         d="m 5030.1,8776.89 c -7.5,-0.99 -14.7,-2.1 -22.3,-3.49 -2.6,-0.5 -5.3,-1 -7.9,-1.6 0,-0.11 0,-0.11 0,-0.11 -4.3,-79.49 -36.7,-157.59 -97.3,-218.1 -60.3,-60.29 -138,-92.69 -217.1,-97.19 -0.1,0 -0.1,0 -0.1,0 -0.6,-2.81 -1.1,-5.5 -1.6,-8.1 -1.5,-7.9 -2.5,-15 -3.4,-21.7 v -0.6 c -1.1,-8 -1.8,-15 -2.2,-21.3 v -0.6 c -0.8,-11 -1.2,-20.8 -1.2,-30 0,-1.6 0,-3.2 0.1,-4.8 v -2.1 c 0,-2.3 0.1,-4.5 0.2,-6.8 v -0.7 c 0.1,-2.5 0.1,-4.7 0.3,-6.9 l 0.1,-0.8 v -0.8 c 0.2,-2.8 0.3,-5.6 0.6,-8.3 l 0.1,-0.81 v -0.69 c 0.2,-2.61 0.4,-5.11 0.7,-7.81 0.2,-2.5 0.4,-4.69 0.7,-6.9 l 0.1,-0.89 0.1,-0.9 0.1,-0.51 c 0.2,-1.79 0.4,-3.59 0.7,-5.49 l 0.6,-3.8 v -0.51 c 0.9,-6.19 1.9,-12.5 3.2,-18.69 l 0.1,-0.4 0.1,-0.3 c 1.3,-7.4 3,-14.8 4.9,-22.01 1,-4.2 2.2,-8.4 3.4,-12.59 h 0.1 c 126.7,6.29 251.5,57.8 348.1,154.4 96.9,96.89 148.4,222.4 154.4,349.59 -4,1.21 -8,2.3 -12.1,3.31 -7.7,1.89 -15.4,3.59 -23.2,5.1 -7.8,1.5 -15.1,2.69 -22,3.6 -18.4,2.5 -36.8,3.8 -55.3,3.8 -10.7,0 -21.1,-0.4 -30.8,-1.1 -9,-0.8 -15.9,-1.5 -22.2,-2.41"
         style="fill:#100f0d;fill-opacity:1;fill-rule:nonzero;stroke:none"
         id="path288" />
      <path
         d="m 5130.1,9047.09 c 31,-56 51.1,-116.29 60.3,-178.1 1.3,-8.79 2.4,-17.59 3.2,-26.49 0.9,-8.71 1.6,-17.4 2,-26.1 8.5,-2.1 17,-4.51 25.4,-7.21 8.5,-2.59 16.9,-5.6 25.2,-8.79 0.1,0 0.2,-0.1 0.2,-0.1 3.8,-1.4 7.6,-2.9 11.4,-4.5 54.7,-22.61 104.9,-56.01 148,-99.11 86.2,-86.19 133.7,-200.79 133.7,-322.7 0,-121.79 -47.5,-236.49 -133.7,-322.59 -86.2,-86.2 -200.8,-133.7 -322.7,-133.7 -121.9,0 -236.5,47.5 -322.6,133.7 -46.5,46.5 -80.9,100.49 -103,158.3 -0.1,0.09 -0.1,0.2 -0.1,0.3 -3.2,8.3 -6.2,16.6 -8.8,25.1 -0.1,0 -0.1,0 -0.1,0.1 -2.6,8.39 -5,16.8 -7.2,25.3 -4.8,0.19 -9.6,0.5 -14.4,0.9 -0.3,0 -0.6,0 -0.9,0.09 -2.5,0.11 -4.9,0.31 -7.3,0.6 -1.2,0.11 -2.3,0.2 -3.5,0.31 -0.9,0.1 -1.9,0.2 -2.8,0.3 -3.5,0.3 -6.9,0.7 -10.4,1.09 -4.4,0.51 -8.8,1.11 -13.2,1.81 -2.7,0.4 -5.4,0.8 -8.2,1.29 -2.9,0.4 -5.7,0.91 -8.6,1.51 -2.9,0.5 -5.7,0.99 -8.5,1.6 -9.4,1.8 -18.8,3.9 -28.1,6.29 -2.2,0.51 -4.4,1.11 -6.7,1.71 -11.4,3 -22.7,6.39 -33.9,10.3 -6,2 -11.9,4.1 -17.8,6.4 -5.4,1.99 -10.9,4.2 -16.3,6.5 -6.2,2.59 -12.4,5.29 -18.5,8.19 -2.8,1.21 -5.6,2.61 -8.3,4.01 -1.3,0.5 -2.5,1.1 -3.8,1.9 -2.4,1.1 -4.8,2.3 -7.2,3.6 -0.4,0.09 -0.8,0.29 -1.2,0.6 -3.7,1.79 -7.4,3.8 -11.1,5.9 -1.5,0.8 -3,1.6 -4.5,2.5 -4.3,2.4 -8.6,4.9 -12.8,7.5 -2,1.09 -3.9,2.3 -5.8,3.5 -0.8,0.4 -1.7,1 -2.5,1.6 -8.7,5.3 -17.2,10.99 -25.6,17 0.2,-10.41 0.7,-20.81 1.4,-31.21 -0.1,-0.09 -0.1,-0.2 0,-0.39 0.6,-10.4 1.5,-20.7 2.7,-31 v -0.11 c 0,-0.6 0,-1 0.1,-1.6 18,-162.79 90.1,-313.6 207.6,-431.1 136.8,-136.69 318.6,-211.99 511.9,-211.99 193.4,0 375.2,75.3 511.9,211.99 136.8,136.81 212.1,318.51 212.1,511.9 0,96.7 -18.8,190.51 -54.7,277.21 -36,86.7 -89,166.4 -157.4,234.7 -117.8,117.89 -269.2,190.19 -432.5,207.8 -0.6,0.09 -1.3,0.2 -1.9,0.2 -10.3,1.1 -20.6,2 -30.9,2.6 h -0.5 c -10.3,0.7 -20.7,1.1 -31.1,1.3 6,-8.3 11.6,-16.8 17,-25.4 5.3,-8.3 10.3,-16.8 15,-25.31"
         style="fill:#100f0d;fill-opacity:1;fill-rule:nonzero;stroke:none"
         id="path290" />
      <path
         d="m 4430,8553.59 c 0.9,-0.89 1.7,-1.7 2.6,-2.5 5.3,-5.19 10.7,-10.19 16.3,-14.89 2.6,-2.3 5.3,-4.51 8,-6.7 3.1,-2.5 6.3,-5 9.6,-7.41 3,-2.3 6,-4.49 9.1,-6.59 3.5,-2.5 7.1,-4.9 10.7,-7.2 0.8,-0.5 1.7,-1.1 2.5,-1.61 2.1,-1.29 4.2,-2.59 6.3,-3.79 0.4,-0.3 0.8,-0.5 1.2,-0.7 2.6,-1.6 5.3,-3.1 7.9,-4.5 5.7,-3.2 11.4,-6.21 17.2,-8.91 0.7,-0.39 1.5,-0.79 2.3,-1.09 1.4,-0.7 2.9,-1.41 4.4,-2.01 2.9,-1.39 5.9,-2.69 8.9,-3.89 3,-1.3 6,-2.5 9,-3.61 2.7,-1.1 5.5,-2.1 8.2,-3.09 10.3,-3.61 20.6,-6.7 31.1,-9.3 3.4,-0.9 6.9,-1.7 10.3,-2.4 2.2,-0.6 4.4,-1 6.7,-1.4 2.4,-0.51 4.8,-0.91 7.2,-1.31 0.1,-0.09 0.2,-0.09 0.3,-0.09 8.2,-1.41 16.5,-2.5 24.8,-3.31 1.5,8.21 3.3,16.5 5.3,24.6 0,0.11 0,0.11 0,0.11 1.9,8.2 4.1,16.3 6.6,24.4 0,0.09 0,0.09 0,0.2 21.1,69.6 59,135.2 114,190.09 53.6,53.61 118.4,92.3 189,113.81 0.1,0 0.1,0.1 0.2,0.1 8.1,2.4 16.2,4.7 24.4,6.6 h 0.1 c 8.1,2.1 16.3,3.89 24.6,5.4 -0.8,8.3 -1.9,16.59 -3.4,24.8 -1.4,8.2 -3.1,16.39 -5.2,24.49 -14,55.81 -42.5,108.61 -85.7,152.31 -0.6,0.7 -1.2,1.3 -1.9,2 -6.3,6.3 -12.7,12.3 -19.4,17.9 -7.8,6.8 -15.8,12.99 -24,18.8 -9.7,-3.2 -19.4,-6.5 -29,-10.1 -0.2,-0.1 -0.4,-0.1 -0.6,-0.3 -9.2,-3.3 -18.2,-6.9 -27.2,-10.7 -0.9,-0.4 -1.7,-0.71 -2.5,-1.1 h -0.1 c -84.3,-35.9 -161.8,-88 -228.6,-154.8 -67.3,-67.2 -119.6,-145.3 -155.4,-230.4 -0.4,-0.71 -0.7,-1.51 -1,-2.31 -3.8,-9 -7.4,-18.09 -10.7,-27.29 -0.1,-0.21 -0.2,-0.4 -0.2,-0.6 -3.6,-9.61 -7,-19.21 -10.1,-29.01 3.4,-4.8 7,-9.6 10.8,-14.2 0.3,-0.29 0.5,-0.69 0.7,-1 0.7,-0.99 1.5,-1.9 2.3,-2.79 1.6,-2.01 3.2,-4 5,-5.9 0,0 0,0 0,-0.11 5.5,-6.39 11.3,-12.7 17.4,-18.7"
         style="fill:#100f0d;fill-opacity:1;fill-rule:nonzero;stroke:none"
         id="path292" />
      <path
         d="m 4308.5,8398.7 c 0.4,-0.4 0.7,-0.7 1.1,-1 0.5,18.1 1.7,36.09 3.4,54.1 4.6,46 13.2,91.3 25.8,135.49 2.3,8.11 4.8,16.21 7.4,24.31 4.5,14.09 9.5,27.99 14.9,41.8 -0.3,0.59 -0.6,1.19 -0.9,1.8 v 0.1 c -18.4,41.9 -28.1,87.5 -28.1,134.6 0,89.29 34.7,173.2 97.9,236.3 65.1,65.2 150.7,97.8 236.3,97.8 42.8,0 85.6,-8.2 125.8,-24.5 2.6,-1.1 5.2,-2.1 7.7,-3.3 0.6,-0.2 1.2,-0.5 1.8,-0.8 13.9,5.5 27.9,10.5 42.2,15.1 8,2.6 16.1,5.1 24.2,7.4 44.4,12.7 89.8,21.49 135.8,26.1 17.9,1.8 35.9,3 54,3.6 -0.3,0.4 -0.6,0.7 -1,0.99 -5,5.51 -10.2,11 -15.5,16.31 -12.9,12.9 -26.4,25 -40.2,36.3 -7,5.69 -14,11.1 -21.2,16.4 -67.9,49.8 -145.1,81.5 -224.8,94.9 -8.4,1.4 -16.8,2.6 -25.3,3.59 -21.1,2.5 -42.3,3.81 -63.5,3.81 -21.2,0 -42.4,-1.31 -63.5,-3.81 -8.5,-0.99 -16.9,-2.19 -25.3,-3.59 -79.7,-13.4 -156.8,-45.1 -224.7,-94.9 -7.2,-5.3 -14.2,-10.71 -21.2,-16.4 -13.8,-11.3 -27.3,-23.4 -40.2,-36.3 -100.2,-100.2 -155.3,-233.41 -155.3,-375 0,-141.6 55.1,-274.8 155.3,-374.9 5.6,-5.61 11.3,-11.1 17.1,-16.3"
         style="fill:#100f0d;fill-opacity:1;fill-rule:nonzero;stroke:none"
         id="path294" />
      <path
         d="m 4021.86,7095.89 h 13.16 v 74.78 h 23.67 v 11.69 h -60.5 v -11.69 h 23.67 v -74.78"
         style="fill:#100f0d;fill-opacity:1;fill-rule:nonzero;stroke:none"
         id="path296" />
      <path
         d="m 4183.54,7126.85 12.51,37.77 h 0.24 l 12.51,-37.77 z m 35.7,-30.96 h 13.82 l -31.43,86.47 h -10.98 l -31.43,-86.47 h 13.88 l 6.64,19.33 h 32.8 l 6.7,-19.33"
         style="fill:#100f0d;fill-opacity:1;fill-rule:nonzero;stroke:none"
         id="path298" />
      <path
         d="m 4363.96,7163.68 c 1.38,1.77 3.2,3.26 5.45,4.44 2.22,1.15 4.87,1.76 7.95,1.84 4.19,-0.08 7.75,-1.28 10.67,-3.61 2.81,-2.46 4.75,-5.42 5.82,-8.9 h 13.87 c -1.38,7.23 -4.7,13.3 -9.96,18.2 -5.26,4.87 -12.06,7.34 -20.4,7.42 -6.8,-0.08 -12.48,-1.7 -17.02,-4.87 -4.63,-3.12 -7.99,-6.68 -10.08,-10.67 -1.3,-2.1 -2.28,-4.84 -2.91,-8.24 -0.59,-3.4 -0.89,-10.12 -0.89,-20.17 0,-9.88 0.3,-16.56 0.89,-20.04 0.32,-1.86 0.72,-3.4 1.19,-4.63 0.51,-1.18 1.08,-2.43 1.72,-3.73 2.09,-4 5.45,-7.52 10.08,-10.56 4.54,-3.16 10.22,-4.82 17.02,-4.98 8.82,0.16 16.13,3.14 21.94,8.95 5.78,5.86 8.74,13.11 8.9,21.77 v 17.61 h -30.72 v -12.39 h 17.61 v -4.51 c -0.08,-5.42 -1.77,-9.78 -5.1,-13.11 -3.32,-3.48 -7.53,-5.21 -12.63,-5.21 -3.08,0 -5.73,0.65 -7.95,1.95 -2.25,1.11 -4.07,2.55 -5.45,4.33 -1.7,1.86 -2.83,4.29 -3.38,7.3 -0.63,3 -0.95,8.75 -0.95,17.25 0,8.5 0.32,14.3 0.95,17.38 0.55,2.92 1.68,5.32 3.38,7.18"
         style="fill:#100f0d;fill-opacity:1;fill-rule:nonzero;stroke:none"
         id="path300" />
      <path
         d="m 4591.64,7182.36 v -86.47 h 55.21 v 12.4 h -42.11 v 74.07 h -13.1"
         style="fill:#100f0d;fill-opacity:1;fill-rule:nonzero;stroke:none"
         id="path302" />
      <path
         d="m 4781.6,7095.89 v 86.47 h -13.1 v -86.47 h 13.1"
         style="fill:#100f0d;fill-opacity:1;fill-rule:nonzero;stroke:none"
         id="path304" />
      <path
         d="m 4909.12,7182.36 v -86.47 h 13.11 v 61.44 h 0.24 l 39.08,-61.44 h 12.39 v 86.47 h -13.11 v -61.44 h -0.23 l -39.14,61.44 h -12.34"
         style="fill:#100f0d;fill-opacity:1;fill-rule:nonzero;stroke:none"
         id="path306" />
      <path
         d="m 5156.73,7169.96 v 12.4 h -55.21 v -86.47 h 55.21 v 12.4 h -42.1 v 25.38 h 35.94 v 11.62 h -35.94 v 24.67 h 42.1"
         style="fill:#100f0d;fill-opacity:1;fill-rule:nonzero;stroke:none"
         id="path308" />
      <path
         d="m 5400.91,7095.89 v 86.47 h -13.11 v -37.07 h -34.22 v 37.07 h -13.11 v -86.47 h 13.11 v 37.78 h 34.22 v -37.78 h 13.11"
         style="fill:#100f0d;fill-opacity:1;fill-rule:nonzero;stroke:none"
         id="path310" />
      <path
         d="m 5583.7,7169.96 v 12.4 h -55.21 v -86.47 h 55.21 v 12.4 h -42.11 v 25.38 h 35.94 v 11.62 h -35.94 v 24.67 h 42.11"
         style="fill:#100f0d;fill-opacity:1;fill-rule:nonzero;stroke:none"
         id="path312" />
      <path
         d="m 5718.45,7170.67 h 20.52 c 4.19,0 7.4,-0.88 9.61,-2.66 2.81,-2.02 4.25,-5.29 4.33,-9.79 0,-3.76 -1.21,-6.92 -3.62,-9.49 -2.45,-2.77 -6.13,-4.19 -11.03,-4.27 h -19.81 z m 0,-37.83 h 16.73 l 17.85,-36.95 h 15.59 l -20.04,38.37 c 10.99,4.23 16.57,12.22 16.72,23.96 -0.23,7.99 -3.1,14.13 -8.6,18.45 -4.54,3.79 -10.41,5.69 -17.61,5.69 h -33.74 v -86.47 h 13.1 v 36.95"
         style="fill:#100f0d;fill-opacity:1;fill-rule:nonzero;stroke:none"
         id="path314" />
      <path
         d="m 5943.95,7169.96 v 12.4 h -55.22 v -86.47 h 55.22 v 12.4 h -42.11 v 25.38 h 35.94 v 11.62 h -35.94 v 24.67 h 42.11"
         style="fill:#100f0d;fill-opacity:1;fill-rule:nonzero;stroke:none"
         id="path316" />
      <path
         d="m 4089.64,7284.21 c 19.81,0 37.43,5.24 52.84,15.75 15.41,10.49 26.16,25.05 32.26,43.69 h -51.82 c -6.78,-13.04 -17.62,-19.56 -32.52,-19.56 -14.9,0 -26.63,4.66 -35.18,13.97 -8.55,9.31 -12.83,21.76 -12.83,37.34 0,15.58 4.28,28.02 12.83,37.34 8.55,9.31 20.28,13.97 35.18,13.97 14.9,0 25.74,-6.52 32.52,-19.56 h 51.82 c -6.1,18.63 -16.85,33.19 -32.26,43.69 -15.41,10.5 -33.03,15.75 -52.84,15.75 -25.57,0 -47.21,-8.6 -64.9,-25.78 -17.7,-17.19 -26.55,-38.99 -26.55,-65.41 0,-26.42 8.85,-48.22 26.55,-65.41 17.69,-17.19 39.33,-25.78 64.9,-25.78"
         style="fill:#100f0d;fill-opacity:1;fill-rule:nonzero;stroke:none"
         id="path318" />
      <path
         d="m 4419.48,7338.06 c -8.56,-9.31 -19.99,-13.97 -34.29,-13.97 -14.32,0 -25.75,4.66 -34.3,13.97 -8.55,9.31 -12.82,21.76 -12.82,37.34 0,15.58 4.27,28.02 12.82,37.34 8.55,9.31 19.98,13.97 34.3,13.97 14.3,0 25.73,-4.66 34.29,-13.97 8.55,-9.32 12.82,-21.76 12.82,-37.34 0,-15.58 -4.27,-28.03 -12.82,-37.34 z m 57.02,37.34 c 0,26.42 -8.76,48.22 -26.29,65.41 -17.52,17.18 -39.12,25.78 -64.77,25.78 -25.65,0 -47.33,-8.6 -65.03,-25.78 -17.7,-17.19 -26.54,-38.99 -26.54,-65.41 0,-26.42 8.84,-48.26 26.54,-65.54 17.7,-17.27 39.33,-25.9 64.9,-25.9 25.57,0 47.16,8.63 64.78,25.9 17.61,17.28 26.41,39.12 26.41,65.54"
         style="fill:#100f0d;fill-opacity:1;fill-rule:nonzero;stroke:none"
         id="path320" />
      <path
         d="m 4807.99,7464.05 h -49.78 l -51.06,-122.94 -51.31,122.94 h -49.79 v -178.32 h 43.44 v 100.59 l 41.4,-100.59 h 32.26 l 41.41,100.59 v -100.59 h 43.43 v 178.32"
         style="fill:#100f0d;fill-opacity:1;fill-rule:nonzero;stroke:none"
         id="path322" />
      <path
         d="m 4991.14,7431.03 h 26.92 c 6.44,0 11.6,-2.04 15.49,-6.1 3.9,-4.06 5.85,-9.27 5.85,-15.62 0,-6.35 -1.9,-11.47 -5.72,-15.37 -3.81,-3.9 -9.01,-5.84 -15.62,-5.84 h -26.92 z m 0,-75.95 h 26.92 c 12.36,0 23.07,1.81 32.14,5.46 9.05,3.64 15.87,8.34 20.44,14.1 8.64,11.18 12.96,22.77 12.96,34.8 0,15.07 -5.76,27.94 -17.27,38.61 -11.53,10.67 -27.61,16 -48.27,16 h -70.36 v -178.32 h 43.44 v 69.35"
         style="fill:#100f0d;fill-opacity:1;fill-rule:nonzero;stroke:none"
         id="path324" />
      <path
         d="m 5261.66,7348.73 21.08,63.5 21.08,-63.5 z m -5.08,115.83 -61.98,-178.83 h 46.23 l 9.9,29.98 h 64.02 l 9.9,-29.98 h 46.49 l -61.73,178.83 h -52.83"
         style="fill:#100f0d;fill-opacity:1;fill-rule:nonzero;stroke:none"
         id="path326" />
      <path
         d="m 5653.6,7285.73 v 178.83 h -43.43 v -112.53 l -72.65,112.53 h -43.44 v -178.83 h 43.44 v 112.53 l 72.65,-112.53 h 43.43"
         style="fill:#100f0d;fill-opacity:1;fill-rule:nonzero;stroke:none"
         id="path328" />
      <path
         d="m 5839.79,7343.14 v -57.41 h 43.44 v 57.41 l 61.73,120.91 h -49.28 l -34.04,-80.52 -34.29,80.52 h -49.28 l 61.72,-120.91"
         style="fill:#100f0d;fill-opacity:1;fill-rule:nonzero;stroke:none"
         id="path330" />
      <path
         d="m 7314.17,4110.67 h 16.79 v -62.65 h 11.02 v 62.65 h 16.74 v 10.36 h -44.55 v -10.36"
         style="fill:#100f0d;fill-opacity:1;fill-rule:nonzero;stroke:none"
         id="path332" />
      <path
         d="m 7477.64,4076.11 11.35,24.82 10.83,-24.82 z m -24.59,-28.09 h 11.87 l 8.13,17.73 h 31.26 l 7.66,-17.73 h 12.06 l -34.85,77.6 -36.13,-77.6"
         style="fill:#100f0d;fill-opacity:1;fill-rule:nonzero;stroke:none"
         id="path334" />
      <path
         d="m 7661.4,4112.05 c 8.6,0 15.9,-3.99 21.89,-11.97 l 7.85,7.52 c -4.57,5.23 -9.22,9.02 -13.95,11.35 -4.95,2.33 -10.28,3.5 -15.98,3.5 -10.62,0 -19.64,-3.7 -27.05,-11.11 -7.41,-7.38 -11.11,-16.36 -11.11,-26.96 0,-10.37 3.64,-19.26 10.92,-26.67 7.28,-7.37 16.03,-11.06 26.24,-11.06 10.47,0 19.09,3.81 25.87,11.44 3,3.41 5.12,7.06 6.39,10.97 1.29,4.23 1.93,9.08 1.93,14.57 v 2.41 h -30.17 v -10.36 h 18.21 c -0.51,-5.13 -2.92,-9.55 -7.23,-13.24 -4.32,-3.66 -9.19,-5.48 -14.62,-5.48 -6.36,0 -12.27,2.44 -17.73,7.33 -5.83,5.26 -8.75,11.96 -8.75,20.09 0,7.89 2.62,14.44 7.85,19.68 5.23,5.32 11.71,7.99 19.44,7.99"
         style="fill:#100f0d;fill-opacity:1;fill-rule:nonzero;stroke:none"
         id="path336" />
      <path
         d="m 7850.39,4121.03 v -73.01 h 32.48 v 10.36 h -21.47 v 62.65 h -11.01"
         style="fill:#100f0d;fill-opacity:1;fill-rule:nonzero;stroke:none"
         id="path338" />
      <path
         d="m 7990.16,4121.03 v -73.01 h 11.02 v 73.01 h -11.02"
         style="fill:#100f0d;fill-opacity:1;fill-rule:nonzero;stroke:none"
         id="path340" />
      <path
         d="m 8179.83,4043.57 v 77.46 h -11.02 v -50.74 l -53.24,55.71 v -77.98 h 11.01 v 51.12 l 53.25,-55.57"
         style="fill:#100f0d;fill-opacity:1;fill-rule:nonzero;stroke:none"
         id="path342" />
      <path
         d="m 8334.46,4110.67 v 10.36 h -40.29 v -73.01 h 40.29 v 10.36 h -29.27 v 24.4 h 28.41 v 10.35 h -28.41 v 17.54 h 29.27"
         style="fill:#100f0d;fill-opacity:1;fill-rule:nonzero;stroke:none"
         id="path344" />
      <path
         d="m 8554.28,4048.02 v 73.01 h -11.01 v -28.56 h -31.5 v 28.56 h -11.02 v -73.01 h 11.02 v 34.09 h 31.5 v -34.09 h 11.01"
         style="fill:#100f0d;fill-opacity:1;fill-rule:nonzero;stroke:none"
         id="path346" />
      <path
         d="m 8708.91,4110.67 v 10.36 h -40.29 v -73.01 h 40.29 v 10.36 h -29.27 v 24.4 h 28.42 v 10.35 h -28.42 v 17.54 h 29.27"
         style="fill:#100f0d;fill-opacity:1;fill-rule:nonzero;stroke:none"
         id="path348" />
      <path
         d="m 8834.74,4087.5 h -3.5 v 23.17 h 3.93 c 10.15,0 15.22,-3.73 15.22,-11.2 0,-7.98 -5.21,-11.97 -15.65,-11.97 z m 26.39,12.11 c 0,6.62 -2.37,11.95 -7.1,15.99 -4.28,3.62 -11.25,5.43 -20.9,5.43 h -12.91 v -73.01 h 11.02 v 29.89 h 1.99 l 20.85,-29.89 h 13.48 l -22.6,31.12 c 4.85,1.04 8.76,3.41 11.72,7.13 2.96,3.73 4.45,8.17 4.45,13.34"
         style="fill:#100f0d;fill-opacity:1;fill-rule:nonzero;stroke:none"
         id="path350" />
      <path
         d="m 8975.37,4048.02 h 40.29 v 10.36 h -29.27 v 24.4 h 28.42 v 10.35 h -28.42 v 17.54 h 29.27 v 10.36 h -40.29 v -73.01"
         style="fill:#100f0d;fill-opacity:1;fill-rule:nonzero;stroke:none"
         id="path352" />
      <path
         d="m 7229.38,4252.08 c -3.66,-4.8 -7.9,-9.09 -12.71,-12.87 -4.82,-3.6 -10.5,-6.5 -17.05,-8.69 -6.54,-2.19 -13.72,-3.28 -21.52,-3.28 -10.4,0 -19.82,2.06 -28.25,6.18 -8.42,4.13 -15.72,9.84 -21.88,17.14 -6.16,7.38 -10.91,15.95 -14.23,25.7 -3.32,9.75 -4.99,20.46 -4.99,32.14 0,13.22 1.59,25.2 4.77,35.94 3.18,10.73 7.56,19.58 13.15,26.53 5.87,7.22 12.83,12.67 20.87,16.37 8.04,3.69 16.73,5.53 26.07,5.53 8.19,0 15.46,-1.65 21.82,-4.95 6.35,-3.31 11.84,-7.87 16.46,-13.71 4.15,-5.15 7.75,-11.43 10.84,-18.86 3.08,-7.42 5.39,-14.31 6.94,-20.66 h 11.85 l -1.3,65.14 h -11.57 l -5.93,-8.76 c -7.41,4.03 -15.22,7.16 -23.4,9.4 -8.19,2.23 -17.34,3.35 -27.45,3.35 -13.59,0 -26.35,-2.32 -38.3,-6.96 -11.94,-4.64 -22.3,-11.21 -31.06,-19.71 -8.86,-8.59 -15.8,-18.83 -20.81,-30.72 -5.01,-11.89 -7.51,-25.14 -7.51,-39.74 0,-14.59 2.55,-27.71 7.66,-39.34 5.1,-11.64 11.94,-21.5 20.52,-29.56 8.67,-8.08 18.61,-14.26 29.84,-18.55 11.22,-4.3 22.95,-6.44 35.19,-6.44 18.88,0 35.16,3.88 48.84,11.65 13.68,7.76 24.66,20.7 32.95,38.8 l -10.85,4.64 c -2.31,-5.67 -5.3,-10.9 -8.96,-15.71"
         style="fill:#100f0d;fill-opacity:1;fill-rule:nonzero;stroke:none"
         id="path354" />
      <path
         d="m 7541.73,4275.13 c -2.46,-9.88 -6.39,-18.71 -11.79,-26.52 -5.21,-7.73 -11.96,-13.73 -20.25,-18.02 -8.29,-4.3 -17.6,-6.44 -27.91,-6.44 -10.99,0 -20.44,2.12 -28.35,6.37 -7.91,4.25 -14.46,10.15 -19.67,17.7 -5.4,7.73 -9.35,16.57 -11.86,26.52 -2.51,9.95 -3.76,21.11 -3.76,33.46 0,11.16 1.18,21.8 3.55,31.93 2.36,10.12 5.95,18.96 10.77,26.52 5.11,7.89 11.71,14.19 19.82,18.92 8.09,4.71 17.93,7.08 29.5,7.08 10.31,0 19.47,-2.04 27.48,-6.12 8,-4.07 14.65,-9.76 19.96,-17.05 5.3,-7.39 9.32,-16.31 12.07,-26.78 2.75,-10.47 4.13,-21.97 4.13,-34.5 0,-12.18 -1.24,-23.21 -3.69,-33.07 z m 30.88,-6.44 c 5.2,11.84 7.81,25.01 7.81,39.51 0,14.42 -2.56,27.57 -7.67,39.46 -5.11,11.88 -12.2,22.03 -21.26,30.44 -8.78,8.24 -19.19,14.63 -31.24,19.18 -12.05,4.55 -24.88,6.82 -38.47,6.82 -13.11,0 -25.67,-2.23 -37.68,-6.69 -12,-4.47 -22.54,-10.9 -31.6,-19.31 -9.16,-8.5 -16.34,-18.56 -21.55,-30.18 -5.21,-11.64 -7.81,-24.87 -7.81,-39.72 0,-13.56 2.49,-26.28 7.45,-38.16 4.97,-11.89 11.79,-21.99 20.47,-30.31 8.67,-8.5 19.06,-15.13 31.16,-19.89 12.1,-4.76 25.29,-7.14 39.56,-7.14 13.4,0 26.03,2.23 37.89,6.69 11.86,4.46 22.27,10.81 31.24,19.05 9.26,8.32 16.49,18.41 21.7,30.25"
         style="fill:#100f0d;fill-opacity:1;fill-rule:nonzero;stroke:none"
         id="path356" />
      <path
         d="m 7749.08,4243.46 c -1.25,-4.98 -3.56,-8.67 -6.94,-11.07 -2.6,-1.89 -6.29,-3.3 -11.07,-4.25 -4.77,-0.94 -9.32,-1.59 -13.66,-1.93 v -9.14 h 82.87 v 9.14 c -2.03,0.08 -6.36,0.94 -13.02,2.57 -6.65,1.64 -11.04,3.35 -13.16,5.16 -3.08,2.4 -5.37,6.34 -6.87,11.84 -1.49,5.49 -2.24,13.51 -2.24,24.07 v 109.02 h 1.88 l 66.67,-158.84 h 7.24 l 70,155.62 h 2.16 v -132.83 c 0,-3.18 -0.69,-5.82 -2.09,-7.92 -1.4,-2.1 -3.59,-3.97 -6.58,-5.6 -1.93,-0.95 -5.48,-1.67 -10.63,-2.19 -5.16,-0.51 -9.38,-0.82 -12.66,-0.9 v -9.14 h 90.69 v 9.14 c -2.61,0.08 -6.13,0.49 -10.56,1.22 -4.44,0.73 -7.52,1.53 -9.26,2.38 -3.28,1.55 -5.5,3.35 -6.65,5.41 -1.16,2.06 -1.74,4.59 -1.74,7.6 v 131.68 c 0,2.83 0.58,5.45 1.74,7.85 1.15,2.4 3.37,4.11 6.65,5.15 1.93,0.6 4.99,1.24 9.19,1.93 4.19,0.68 7.63,1.07 10.33,1.16 v 9.14 h -66.92 c -0.09,-1.55 -0.8,-4.62 -2.1,-9.21 -1.3,-4.6 -2.86,-9 -4.69,-13.21 l -50.19,-114.68 -58.79,137.1 h -69.97 v -9.14 c 4.24,-0.17 8.53,-0.82 12.87,-1.94 4.34,-1.11 8,-2.82 10.99,-5.14 2.7,-2.15 4.78,-4.94 6.22,-8.37 1.45,-3.43 2.17,-7.85 2.17,-13.26 v -93.45 c 0,-11.67 -0.63,-19.99 -1.88,-24.97"
         style="fill:#100f0d;fill-opacity:1;fill-rule:nonzero;stroke:none"
         id="path358" />
      <path
         d="m 8237.37,4336.33 c -1.06,-4.42 -3.23,-8.69 -6.5,-12.8 -3.28,-4.3 -8.18,-7.88 -14.68,-10.76 -6.51,-2.87 -14.97,-4.31 -25.39,-4.31 h -14.75 v 80.71 h 20.4 c 8.19,0 15.03,-1.12 20.53,-3.34 5.5,-2.24 9.93,-5.37 13.31,-9.4 3.18,-3.78 5.42,-8.2 6.72,-13.26 1.31,-5.06 1.95,-10.04 1.95,-14.93 0,-3.52 -0.53,-7.49 -1.59,-11.91 z m 31.17,-6.95 c 4.2,7.34 6.29,15.77 6.29,25.29 0,13.65 -5.95,24.57 -17.86,32.76 -11.91,8.19 -27.41,12.3 -46.5,12.3 h -93.72 v -9.14 c 2.61,-0.17 5.72,-0.5 9.33,-0.97 3.62,-0.47 7.25,-1.27 10.92,-2.38 3.57,-1.2 5.83,-3.01 6.8,-5.41 0.96,-2.4 1.45,-5.1 1.45,-8.1 v -131.82 c 0,-3.34 -0.66,-6.09 -1.96,-8.23 -1.3,-2.15 -3.4,-3.78 -6.29,-4.9 -1.73,-0.68 -4.8,-1.24 -9.18,-1.67 -4.39,-0.43 -7.74,-0.73 -10.05,-0.9 v -9.14 h 88.07 v 9.14 c -3.66,0.08 -7.68,0.39 -12.07,0.9 -4.39,0.52 -7.45,1.07 -9.19,1.67 -3.47,1.21 -5.76,2.94 -6.87,5.22 -1.1,2.27 -1.66,4.91 -1.66,7.91 v 55.36 h 23 c 9.83,0 19.14,1.11 27.91,3.34 8.77,2.23 16.83,5.75 24.15,10.56 7.43,4.8 13.24,10.87 17.43,18.21"
         style="fill:#100f0d;fill-opacity:1;fill-rule:nonzero;stroke:none"
         id="path360" />
      <path
         d="m 8463.94,4291.73 30.64,70.88 31.08,-70.88 z m 144.29,-65.52 c -2.41,0.08 -5.4,0.54 -8.96,1.35 -3.57,0.82 -6.47,1.82 -8.68,3.03 -3.28,1.97 -5.84,3.99 -7.67,6.05 -1.83,2.06 -3.47,4.76 -4.92,8.11 l -68.41,157.55 h -11.57 c -9.74,-22.31 -20.82,-47.75 -33.26,-76.33 -12.44,-28.58 -23.82,-54.32 -34.13,-77.23 -2.03,-4.46 -4.1,-7.96 -6.22,-10.49 -2.12,-2.54 -5.11,-4.96 -8.97,-7.28 -2.41,-1.37 -5.49,-2.46 -9.25,-3.28 -3.76,-0.82 -6.9,-1.31 -9.41,-1.48 v -9.14 h 77.29 v 9.14 c -7.61,0.34 -14.46,1.46 -20.53,3.35 -6.08,1.89 -9.12,4.55 -9.12,7.98 0,1.45 0.24,3.34 0.73,5.66 0.48,2.32 1.35,5.32 2.6,9.01 1.36,3.78 2.88,7.9 4.57,12.36 1.69,4.46 3.88,9.7 6.59,15.7 h 72.04 l 16.99,-40.93 c 0.39,-0.86 0.68,-1.84 0.87,-2.96 0.19,-1.12 0.29,-2.06 0.29,-2.83 0,-1.89 -2.48,-3.48 -7.45,-4.77 -4.96,-1.28 -11.2,-2.14 -18.73,-2.57 v -9.14 h 85.31 v 9.14"
         style="fill:#100f0d;fill-opacity:1;fill-rule:nonzero;stroke:none"
         id="path362" />
      <path
         d="m 8911.4,4215.27 v 133.74 c 0,9.35 0.6,17.07 1.81,23.17 1.2,6.09 3.54,10.21 7.01,12.36 2.41,1.37 6.41,2.7 12.01,3.99 5.59,1.28 9.74,1.97 12.44,2.06 v 9.14 h -83.45 v -9.14 c 3.18,-0.17 7.83,-1.03 13.95,-2.58 6.12,-1.55 10.53,-3.13 13.23,-4.76 2.9,-1.89 5.11,-5.68 6.66,-11.39 1.54,-5.7 2.31,-13.88 2.31,-24.52 v -86.86 l -115.35,139.25 h -58.64 v -9.14 c 3.67,-0.17 8.47,-1.27 14.39,-3.29 5.93,-2.01 10.63,-4.44 14.11,-7.27 2.6,-2.14 4.67,-5.19 6.22,-9.14 1.54,-3.95 2.31,-7.89 2.31,-11.84 v -89.98 c 0,-11.92 -0.63,-20.35 -1.88,-25.29 -1.26,-4.93 -3.57,-8.6 -6.94,-11.01 -1.55,-1.2 -5.4,-2.55 -11.57,-4.05 -6.17,-1.5 -10.56,-2.34 -13.16,-2.51 v -9.14 h 84.17 v 9.14 c -2.22,0.08 -6.8,0.94 -13.74,2.57 -6.94,1.64 -11.52,3.39 -13.74,5.28 -3.09,2.4 -5.38,6.44 -6.87,12.1 -1.49,5.67 -2.24,13.78 -2.24,24.33 v 94.22 l 124.38,-149.44 h 12.58"
         style="fill:#100f0d;fill-opacity:1;fill-rule:nonzero;stroke:none"
         id="path364" />
      <path
         d="m 9184.29,4399.73 v -9.14 c 2.8,-0.26 5.83,-0.5 9.11,-0.71 3.28,-0.22 6.32,-0.67 9.12,-1.35 2.69,-0.68 4.86,-1.63 6.5,-2.83 1.64,-1.19 2.46,-2.78 2.46,-4.75 0,-2.4 -3.97,-9.67 -11.92,-21.8 -7.95,-12.14 -19.49,-29.06 -34.62,-50.76 -7.6,12.18 -13.75,22.07 -18.47,29.66 -4.71,7.59 -9.33,15.21 -13.85,22.84 -1.54,2.66 -3.18,5.43 -4.91,8.3 -1.73,2.88 -3.22,5.43 -4.47,7.66 -1.06,1.97 -1.88,3.6 -2.45,4.88 -0.58,1.29 -0.87,2.19 -0.87,2.7 0,1.88 2.02,3.33 6.07,4.36 4.05,1.02 10.99,1.63 20.83,1.8 v 9.14 h -87.58 v -9.14 c 2.6,-0.17 5.52,-0.6 8.75,-1.29 3.23,-0.69 6,-1.67 8.32,-2.96 3.18,-1.89 6,-4.08 8.46,-6.56 2.45,-2.49 5.27,-6.19 8.46,-11.07 5.2,-8.25 11.33,-18.15 18.36,-29.74 7.04,-11.59 13.46,-22.35 19.24,-32.31 2.6,-4.46 4.84,-8.52 6.72,-12.16 1.88,-3.65 2.83,-6.16 2.83,-7.53 v -44.41 c 0,-3.26 -0.65,-6.01 -1.96,-8.24 -1.3,-2.23 -3.69,-3.99 -7.16,-5.28 -2.12,-0.77 -5.88,-1.39 -11.28,-1.86 -5.4,-0.48 -9.45,-0.8 -12.15,-0.97 v -9.14 h 96.04 v 9.14 c -3.18,0.08 -7.38,0.62 -12.59,1.61 -5.2,0.98 -8.82,1.82 -10.84,2.51 -3.38,1.37 -5.77,3.2 -7.16,5.47 -1.4,2.28 -2.1,4.96 -2.1,8.05 v 34.88 c 0,6.35 0.58,11.2 1.74,14.54 1.15,3.35 3.52,7.77 7.08,13.26 9.55,14.93 17.5,27.24 23.87,36.95 6.36,9.69 13.3,19.26 20.82,28.7 3.86,4.72 6.46,7.63 7.81,8.75 1.35,1.12 3.91,2.7 7.67,4.76 1.54,1.03 4.1,2.08 7.66,3.16 3.57,1.07 6.17,1.65 7.81,1.74 v 9.14 h -71.35"
         style="fill:#100f0d;fill-opacity:1;fill-rule:nonzero;stroke:none"
         id="path366" />
      <path
         d="m 7488.3,4973.79 -0.6,-0.69 338.6,-381.7 338.6,381.7 -0.6,0.69 h -676"
         style="fill:#100f0d;fill-opacity:1;fill-rule:nonzero;stroke:none"
         id="path368" />
      <path
         d="m 8165.5,4973.79 -0.6,-0.69 338.6,-381.7 338.6,381.7 -0.6,0.69 h -676"
         style="fill:#100f0d;fill-opacity:1;fill-rule:nonzero;stroke:none"
         id="path370" />
      <path
         d="m 8164.3,4973.79 0.6,-0.69 -0.5,0.69 z"
         style="fill:#100f0d;fill-opacity:1;fill-rule:nonzero;stroke:none"
         id="path372" />
      <path
         d="m 7487.7,4973.1 0.6,0.69 338,381.11 -0.6,0.6 h -677.1 l 338.5,-381.71 0.6,-0.69"
         style="fill:#100f0d;fill-opacity:1;fill-rule:nonzero;stroke:none"
         id="path374" />
      <path
         d="m 8841.5,4973.79 0.6,-0.69 0.6,0.69 338.6,381.71 h -677.2 l -0.6,-0.6 338,-381.11"
         style="fill:#100f0d;fill-opacity:1;fill-rule:nonzero;stroke:none"
         id="path376" />
      <path
         d="m 8164.9,5736.49 -0.6,0.71 h -677.2 l 338.6,-381.7 h 1.2 l 338,380.99"
         style="fill:#100f0d;fill-opacity:1;fill-rule:nonzero;stroke:none"
         id="path378" />
      <path
         d="m 8502.9,5355.5 h 1.2 l 338.6,381.7 h -678.4 l 0.6,-0.71 338,-380.99"
         style="fill:#100f0d;fill-opacity:1;fill-rule:nonzero;stroke:none"
         id="path380" />
      <path
         d="m 7826.4,5354.9 337.9,-381.11 h 0.1 l 0.5,-0.69 0.6,0.69 338,381.11 0.6,0.6 h -1.2 -676 -1.2 l 0.6,-0.6 h 0.1"
         style="fill:#100f0d;fill-opacity:1;fill-rule:nonzero;stroke:none"
         id="path382" />
      <path
         d="m 3976.28,3952.09 c 10.78,-10.36 23.63,-18.35 38.56,-24.01 14.92,-5.65 31.32,-8.48 49.18,-8.48 17,0 33.01,3.2 48.05,9.6 15.03,6.41 27.77,16.64 38.23,30.73 l -33.99,23.68 c -7.62,-9.6 -15.85,-16.59 -24.67,-20.96 -8.82,-4.38 -17.92,-6.56 -27.29,-6.56 -11.99,0 -22.83,2.13 -32.51,6.4 -9.7,4.27 -18.04,10.13 -25,17.6 -6.99,7.47 -12.38,16.33 -16.19,26.57 -3.81,10.24 -5.71,21.45 -5.71,33.61 0,11.31 1.9,21.87 5.71,31.69 3.81,9.81 9.2,18.4 16.19,25.76 6.96,7.36 15.3,13.12 25,17.28 9.68,4.17 20.52,6.25 32.51,6.25 8.06,0 16.07,-1.5 24.02,-4.48 7.95,-2.99 16.18,-8.97 24.68,-17.93 l 32.02,23.05 c -11.54,13.01 -24.02,22.25 -37.41,27.69 -13.4,5.43 -27.95,8.16 -43.64,8.16 -17.86,0 -34.26,-2.83 -49.18,-8.49 -14.93,-5.65 -27.78,-13.71 -38.56,-24.16 -10.79,-10.46 -19.23,-23.1 -25.33,-37.93 -6.11,-14.84 -9.15,-31.32 -9.15,-49.45 0,-17.71 3.04,-33.82 9.15,-48.34 6.1,-14.51 14.54,-26.93 25.33,-37.28"
         style="fill:#100f0d;fill-opacity:1;fill-rule:nonzero;stroke:none"
         id="path384" />
      <path
         d="m 4279.88,4006.66 c -3.81,10.24 -5.71,21.45 -5.71,33.61 0,11.31 1.9,21.87 5.71,31.69 3.81,9.81 9.2,18.4 16.18,25.76 6.97,7.36 15.31,13.12 25,17.28 9.69,4.17 20.53,6.25 32.52,6.25 11.98,0 22.88,-2.08 32.68,-6.25 9.8,-4.16 18.19,-9.92 25.17,-17.28 6.97,-7.36 12.36,-15.95 16.17,-25.76 3.82,-9.82 5.72,-20.38 5.72,-31.69 0,-12.16 -1.9,-23.37 -5.72,-33.61 -3.81,-10.24 -9.2,-19.1 -16.17,-26.57 -6.98,-7.47 -15.37,-13.33 -25.17,-17.6 -9.8,-4.27 -20.7,-6.4 -32.68,-6.4 -11.99,0 -22.83,2.13 -32.52,6.4 -9.69,4.27 -18.03,10.13 -25,17.6 -6.98,7.47 -12.37,16.33 -16.18,26.57 z m 73.37,-87.06 c 18.08,0.21 34.65,3.26 49.68,9.12 15.03,5.87 27.99,14.03 38.89,24.49 10.89,10.45 19.39,22.93 25.49,37.45 6.1,14.51 9.15,30.61 9.15,48.33 0,18.13 -3.05,34.56 -9.15,49.29 -6.1,14.72 -14.6,27.31 -25.49,37.77 -10.9,10.45 -23.86,18.4 -38.89,23.84 -15.03,5.45 -31.6,8.06 -49.68,7.85 -17.86,0 -34.26,-2.83 -49.18,-8.49 -14.93,-5.65 -27.78,-13.71 -38.56,-24.16 -10.79,-10.46 -19.24,-23.1 -25.33,-37.93 -6.11,-14.84 -9.15,-31.32 -9.15,-49.45 0,-17.71 3.04,-33.82 9.15,-48.34 6.09,-14.51 14.54,-26.93 25.33,-37.28 10.78,-10.36 23.63,-18.35 38.56,-24.01 14.92,-5.65 31.32,-8.48 49.18,-8.48"
         style="fill:#100f0d;fill-opacity:1;fill-rule:nonzero;stroke:none"
         id="path386" />
      <path
         d="m 4831.04,3925.36 v 226.61 h -62.08 l -62.43,-158.75 -61.76,158.75 h -62.75 v -226.61 h 39.22 v 188.2 h 0.64 l 70.27,-188.2 h 28.76 l 70.27,188.2 h 0.65 v -188.2 h 39.21"
         style="fill:#100f0d;fill-opacity:1;fill-rule:nonzero;stroke:none"
         id="path388" />
      <path
         d="m 4990.21,4117.41 h 29.41 c 5.44,0 11.11,-0.32 16.99,-0.96 5.89,-0.64 11.22,-2.08 16.02,-4.33 4.79,-2.24 8.71,-5.44 11.76,-9.6 3.05,-4.16 4.57,-9.76 4.57,-16.8 0,-7.68 -1.68,-13.66 -5.06,-17.93 -3.38,-4.26 -7.73,-7.47 -13.07,-9.6 -5.34,-2.13 -11.17,-3.41 -17.49,-3.84 -6.32,-0.43 -12.42,-0.64 -18.3,-0.64 h -24.83 z m 0,-98.26 h 29.41 c 12.2,0 23.91,0.85 35.13,2.55 11.22,1.71 21.08,4.97 29.58,9.76 8.49,4.81 15.25,11.58 20.26,20.33 5.01,8.75 7.51,20.27 7.51,34.57 0,12.59 -2.34,23.09 -7.02,31.53 -4.69,8.42 -10.95,15.15 -18.79,20.16 -7.85,5.01 -16.94,8.59 -27.29,10.72 -10.35,2.14 -21.08,3.2 -32.19,3.2 h -77.79 v -226.61 h 41.19 v 93.79"
         style="fill:#100f0d;fill-opacity:1;fill-rule:nonzero;stroke:none"
         id="path390" />
      <path
         d="m 5245.12,4011.78 36.28,92.18 35.62,-92.18 z m 55.23,140.19 h -35.62 l -100.66,-226.61 h 46.08 l 20.91,51.85 h 100.34 l 21.57,-51.85 h 47.06 l -99.68,226.61"
         style="fill:#100f0d;fill-opacity:1;fill-rule:nonzero;stroke:none"
         id="path392" />
      <path
         d="m 5658.53,3983.61 h -0.65 l -112.1,168.36 h -54.58 v -226.61 h 41.18 v 173.8 h 0.66 l 114.38,-173.8 h 52.29 v 226.61 h -41.18 v -168.36"
         style="fill:#100f0d;fill-opacity:1;fill-rule:nonzero;stroke:none"
         id="path394" />
      <path
         d="m 5894.81,4061.71 -56.86,90.26 h -51.64 l 86.94,-129.63 v -96.98 h 41.17 v 96.98 l 86.94,129.63 h -49.03 l -57.52,-90.26"
         style="fill:#100f0d;fill-opacity:1;fill-rule:nonzero;stroke:none"
         id="path396" />
      <path
         d="m 4228.3,5254.59 741.7,701.1 v 87.61 l -741.7,-701.1 v -87.61"
         style="fill:#100f0d;fill-opacity:1;fill-rule:nonzero;stroke:none"
         id="path398" />
      <path
         d="m 4228.3,5116.29 v -87.59 l 741.7,701.09 v 87.61 l -741.7,-701.11"
         style="fill:#100f0d;fill-opacity:1;fill-rule:nonzero;stroke:none"
         id="path400" />
      <path
         d="m 4228.3,4890.5 v -87.7 l 741.7,701.19 v 87.61 l -741.7,-701.1"
         style="fill:#100f0d;fill-opacity:1;fill-rule:nonzero;stroke:none"
         id="path402" />
      <path
         d="M 4228.3,4664.59 V 4577 l 741.7,701.1 v 87.59 l -741.7,-701.1"
         style="fill:#100f0d;fill-opacity:1;fill-rule:nonzero;stroke:none"
         id="path404" />
      <path
         d="M 4970,5139.79 4228.3,4438.7 v -87.61 L 4970,5052.2 v 87.59"
         style="fill:#100f0d;fill-opacity:1;fill-rule:nonzero;stroke:none"
         id="path406" />
      <path
         d="M 5714.8,5342.2 5030,5989.5 v -87.61 l 684.8,-647.3 v 87.61"
         style="fill:#100f0d;fill-opacity:1;fill-rule:nonzero;stroke:none"
         id="path408" />
      <path
         d="M 5714.8,5116.29 5030,5763.59 V 5676 l 684.8,-647.3 v 87.59"
         style="fill:#100f0d;fill-opacity:1;fill-rule:nonzero;stroke:none"
         id="path410" />
      <path
         d="M 5714.8,4890.5 5030,5537.8 v -87.6 l 684.8,-647.4 v 87.7"
         style="fill:#100f0d;fill-opacity:1;fill-rule:nonzero;stroke:none"
         id="path412" />
      <path
         d="M 5714.8,4664.59 5030,5311.89 V 5224.3 L 5714.8,4577 v 87.59"
         style="fill:#100f0d;fill-opacity:1;fill-rule:nonzero;stroke:none"
         id="path414" />
      <path
         d="M 5714.8,4438.7 5030,5086 v -87.6 l 684.8,-647.31 v 87.61"
         style="fill:#100f0d;fill-opacity:1;fill-rule:nonzero;stroke:none"
         id="path416" />
      <path
         d="m 4971.6,5053.7 0.6,0.6 v 87.59 l -0.6,-0.6 -0.7,0.6 v -1.2 l -0.9,-0.9 v -87.59 l 1.6,1.5"
         style="fill:#ffffff;fill-opacity:1;fill-rule:nonzero;stroke:none"
         id="path418" />
      <path
         d="m 4970.9,5367.8 v -1.2 l -0.9,-0.91 v -87.59 l 1.6,1.49 0.6,0.61 v 86.4 1.2 l -0.6,-0.6 -0.7,0.6"
         style="fill:#ffffff;fill-opacity:1;fill-rule:nonzero;stroke:none"
         id="path420" />
      <path
         d="m 4972.2,5592.5 v 1.2 l -0.6,-0.6 -0.7,0.6 v -1.2 l -0.9,-0.9 v -87.61 l 1.6,1.51 0.6,0.59 v 86.41"
         style="fill:#ffffff;fill-opacity:1;fill-rule:nonzero;stroke:none"
         id="path422" />
      <path
         d="m 4972.2,5818.3 v 1.2 l -0.6,-0.6 -0.7,0.6 v -1.2 l -0.9,-0.9 v -87.61 l 1.6,1.5 0.6,0.6 v 86.41"
         style="fill:#ffffff;fill-opacity:1;fill-rule:nonzero;stroke:none"
         id="path424" />
      <path
         d="m 4971.6,5957.2 0.6,0.6 v 87.6 l -0.6,-0.61 -0.7,0.61 v -1.21 l -0.9,-0.89 v -87.61 l 1.6,1.51"
         style="fill:#ffffff;fill-opacity:1;fill-rule:nonzero;stroke:none"
         id="path426" />
      <path
         d="m 3971.43,3827.01 h -29.33 v 14.19 h 74.98 v -14.19 h -29.33 v -90.78 h -16.32 v 90.78"
         style="fill:#100f0d;fill-opacity:1;fill-rule:nonzero;stroke:none"
         id="path428" />
      <path
         d="m 4173.05,3773.81 -15.51,45.86 h -0.3 l -15.51,-45.86 z m 4.63,-14.11 h -40.65 l -8.24,-23.47 h -17.2 l 38.96,104.97 h 13.61 l 38.96,-104.97 h -17.13 l -8.31,23.47"
         style="fill:#100f0d;fill-opacity:1;fill-rule:nonzero;stroke:none"
         id="path430" />
      <path
         d="m 4352.03,3794.04 h 38.07 v -21.38 c -0.19,-10.52 -3.86,-19.33 -11.02,-26.43 -7.2,-7.06 -16.27,-10.68 -27.2,-10.87 -8.43,0.19 -15.46,2.21 -21.1,6.05 -5.73,3.69 -9.9,7.96 -12.5,12.81 -0.78,1.59 -1.49,3.1 -2.13,4.54 -0.59,1.49 -1.08,3.36 -1.47,5.61 -0.73,4.23 -1.1,12.34 -1.1,24.34 0,12.19 0.37,20.35 1.1,24.48 0.79,4.13 1.99,7.46 3.6,10.01 2.6,4.85 6.77,9.16 12.5,12.96 5.64,3.84 12.67,5.8 21.1,5.9 10.34,-0.1 18.77,-3.1 25.29,-9 6.51,-5.95 10.63,-13.32 12.35,-22.1 h -17.21 c -1.32,4.22 -3.72,7.82 -7.2,10.8 -3.63,2.83 -8.04,4.29 -13.23,4.39 -3.82,-0.1 -7.11,-0.84 -9.85,-2.23 -2.79,-1.44 -5.05,-3.24 -6.77,-5.4 -2.1,-2.26 -3.5,-5.16 -4.19,-8.72 -0.78,-3.74 -1.17,-10.77 -1.17,-21.09 0,-10.32 0.39,-17.3 1.17,-20.95 0.69,-3.65 2.09,-6.6 4.19,-8.86 1.72,-2.16 3.98,-3.91 6.77,-5.25 2.74,-1.58 6.03,-2.38 9.85,-2.38 6.32,0 11.54,2.11 15.66,6.34 4.11,4.03 6.22,9.33 6.32,15.91 v 5.47 h -21.83 v 15.05"
         style="fill:#100f0d;fill-opacity:1;fill-rule:nonzero;stroke:none"
         id="path432" />
      <path
         d="m 4549.96,3841.2 h 16.24 v -89.93 h 52.2 v -15.04 h -68.44 v 104.97"
         style="fill:#100f0d;fill-opacity:1;fill-rule:nonzero;stroke:none"
         id="path434" />
      <path
         d="m 4739.08,3841.2 h 16.24 v -104.97 h -16.24 v 104.97"
         style="fill:#100f0d;fill-opacity:1;fill-rule:nonzero;stroke:none"
         id="path436" />
      <path
         d="m 4883.28,3841.2 h 15.29 l 48.52,-74.59 h 0.3 v 74.59 h 16.24 v -104.97 h -15.36 l -48.45,74.59 h -0.29 v -74.59 h -16.25 v 104.97"
         style="fill:#100f0d;fill-opacity:1;fill-rule:nonzero;stroke:none"
         id="path438" />
      <path
         d="m 5091.66,3841.2 h 68.44 v -15.05 h -52.19 v -29.95 h 44.55 v -14.12 h -44.55 v -30.81 h 52.19 v -15.04 h -68.44 v 104.97"
         style="fill:#100f0d;fill-opacity:1;fill-rule:nonzero;stroke:none"
         id="path440" />
      <path
         d="m 5369.01,3782.08 h -42.42 v -45.85 h -16.25 v 104.97 h 16.25 v -45 h 42.42 v 45 h 16.24 v -104.97 h -16.24 v 45.85"
         style="fill:#100f0d;fill-opacity:1;fill-rule:nonzero;stroke:none"
         id="path442" />
      <path
         d="m 5545.23,3841.2 h 68.44 v -15.05 h -52.19 v -29.95 h 44.55 v -14.12 h -44.55 v -30.81 h 52.19 v -15.04 h -68.44 v 104.97"
         style="fill:#100f0d;fill-opacity:1;fill-rule:nonzero;stroke:none"
         id="path444" />
      <path
         d="m 5750.6,3795.19 h 24.55 c 6.08,0.1 10.64,1.83 13.68,5.19 2.99,3.12 4.48,6.95 4.48,11.51 -0.1,5.47 -1.89,9.43 -5.37,11.88 -2.74,2.16 -6.71,3.24 -11.9,3.24 h -25.44 z m -16.25,46.01 h 41.83 c 8.92,0 16.2,-2.31 21.84,-6.91 6.81,-5.24 10.36,-12.7 10.66,-22.4 -0.2,-14.25 -7.11,-23.95 -20.74,-29.08 l 24.85,-46.58 h -19.33 l -22.13,44.85 h -20.73 v -44.85 h -16.25 v 104.97"
         style="fill:#100f0d;fill-opacity:1;fill-rule:nonzero;stroke:none"
         id="path446" />
      <path
         d="M 5931.56,3841.2 H 6000 v -15.05 h -52.19 v -29.95 h 44.55 v -14.12 h -44.55 v -30.81 H 6000 v -15.04 h -68.44 v 104.97"
         style="fill:#100f0d;fill-opacity:1;fill-rule:nonzero;stroke:none"
         id="path448" />
    </g>
  </g>
</svg>
