<svg width="35" height="56" viewBox="0 0 35 56" fill="none" xmlns="http://www.w3.org/2000/svg">
<path d="M24.6033 8.55327e-06L0 24.6064V35.0644L24.6033 10.4611V8.55327e-06Z" fill="url(#paint0_linear_5_232)"/>
<path d="M24.6033 31.3097V22.6907L10.3936 36.9004V36.9034L0 47.294V55.916L10.3936 45.5224L24.6033 31.3097Z" fill="url(#paint1_linear_5_232)"/>
<path d="M10.3937 26.1389V35.0644L24.6033 20.8578L35 10.4611V1.53254L24.6033 11.9293L10.3937 26.1389Z" fill="url(#paint2_linear_5_232)"/>
<path d="M35 22.3842L24.6033 32.7809L10.3937 46.9875V55.916L35 31.3097V22.3842Z" fill="url(#paint3_linear_5_232)"/>
<defs>
<linearGradient id="paint0_linear_5_232" x1="12.3016" y1="35.0644" x2="12.3016" y2="7.62939e-06" gradientUnits="userSpaceOnUse">
<stop stop-color="#FFE600"/>
<stop offset="1" stop-color="#D56600"/>
</linearGradient>
<linearGradient id="paint1_linear_5_232" x1="12.3016" y1="55.916" x2="12.3016" y2="22.6907" gradientUnits="userSpaceOnUse">
<stop stop-color="#FFE600"/>
<stop offset="1" stop-color="#D56600"/>
</linearGradient>
<linearGradient id="paint2_linear_5_232" x1="22.6969" y1="35.0644" x2="22.6969" y2="1.53254" gradientUnits="userSpaceOnUse">
<stop stop-color="#FFE600"/>
<stop offset="1" stop-color="#D56600"/>
</linearGradient>
<linearGradient id="paint3_linear_5_232" x1="22.6969" y1="55.916" x2="22.6969" y2="22.3842" gradientUnits="userSpaceOnUse">
<stop stop-color="#FFE600"/>
<stop offset="1" stop-color="#D56600"/>
</linearGradient>
</defs>
</svg>
