<svg width="110" height="15" viewBox="0 0 110 15" fill="none" xmlns="http://www.w3.org/2000/svg">
<path d="M3.39199 12L0.399994 1.32799H3.23199L5.10399 9.616H4.67199L7.07199 1.32799H9.07199L11.52 9.72799H11.04L12.928 1.32799H15.76L12.768 12H10.208L7.85599 4.31999H8.31999L5.95199 12H3.39199Z" fill="white"/>
<path d="M17.2122 12V0.703995H19.6122V5.50399L18.6042 4.95999C19.0309 4.58666 19.5322 4.28266 20.1082 4.048C20.6949 3.80266 21.2922 3.67999 21.9002 3.67999C22.4869 3.67999 23.0042 3.77599 23.4522 3.96799C23.9002 4.15999 24.2469 4.47466 24.4922 4.91199C24.7482 5.33866 24.8762 5.93066 24.8762 6.68799V12H22.4922V7.18399C22.4922 6.65066 22.3589 6.26666 22.0922 6.03199C21.8362 5.78666 21.4576 5.66399 20.9562 5.66399C20.7002 5.66399 20.4442 5.70133 20.1882 5.77599C19.9429 5.83999 19.7509 5.92533 19.6122 6.03199L19.5802 12H17.2122Z" fill="white"/>
<path d="M30.1135 12.24C29.6228 12.24 29.1588 12.192 28.7215 12.096C28.2948 12.0107 27.9162 11.8667 27.5855 11.664C27.2655 11.4507 27.0148 11.168 26.8335 10.816C26.6522 10.4533 26.5615 10.0053 26.5615 9.472C26.5615 8.97066 26.6628 8.53333 26.8655 8.16C27.0788 7.78666 27.3988 7.49866 27.8255 7.296C28.2522 7.09333 28.7908 6.99199 29.4415 6.99199C29.8042 6.99199 30.1562 7.02933 30.4975 7.10399C30.8388 7.17866 31.1428 7.27999 31.4095 7.408C31.6868 7.536 31.9055 7.67466 32.0655 7.824L32.1615 8.976C31.9482 8.848 31.6922 8.74666 31.3935 8.672C31.0948 8.59733 30.7748 8.56 30.4335 8.56C29.9108 8.56 29.5268 8.64 29.2815 8.8C29.0468 8.94933 28.9295 9.18933 28.9295 9.51999C28.9295 9.72266 28.9882 9.904 29.1055 10.064C29.2228 10.224 29.3775 10.3467 29.5695 10.432C29.7722 10.5173 29.9802 10.56 30.1935 10.56C30.7375 10.56 31.1162 10.5227 31.3295 10.448C31.5535 10.3733 31.6655 10.224 31.6655 10V7.02399C31.6655 6.53333 31.5055 6.18133 31.1855 5.968C30.8762 5.74399 30.4335 5.63199 29.8575 5.63199C29.3882 5.63199 28.9135 5.71733 28.4335 5.88799C27.9642 6.04799 27.5802 6.24533 27.2815 6.47999V4.36799C27.5588 4.19733 27.9855 4.03733 28.5615 3.88799C29.1482 3.73866 29.8042 3.66399 30.5295 3.66399C30.7855 3.66399 31.0682 3.68533 31.3775 3.72799C31.6868 3.77066 31.9962 3.85066 32.3055 3.96799C32.6148 4.07466 32.8975 4.23466 33.1535 4.44799C33.4202 4.66133 33.6335 4.93333 33.7935 5.26399C33.9535 5.59466 34.0335 6.00533 34.0335 6.496L34.0175 10.32C34.0175 10.7787 33.8628 11.152 33.5535 11.44C33.2442 11.7173 32.7962 11.92 32.2095 12.048C31.6335 12.176 30.9348 12.24 30.1135 12.24Z" fill="white"/>
<path d="M39.4617 12.32C38.5231 12.32 37.8244 12.1013 37.3657 11.664C36.9071 11.216 36.6777 10.5867 36.6777 9.776V5.72799H35.4937V3.90399H36.6777V1.67999H39.1737V3.90399H40.9497V5.72799H39.1737V9.472C39.1737 9.74933 39.2324 9.95733 39.3497 10.096C39.4671 10.224 39.6644 10.288 39.9417 10.288C40.1017 10.288 40.2777 10.256 40.4697 10.192C40.6617 10.128 40.8217 10.048 40.9497 9.95199V12C40.7257 12.1173 40.4804 12.1973 40.2137 12.24C39.9577 12.2933 39.7071 12.32 39.4617 12.32Z" fill="white"/>
<path d="M46.4231 12.24C45.6125 12.24 44.8925 12.0747 44.2631 11.744C43.6445 11.4027 43.1591 10.9227 42.8071 10.304C42.4658 9.67466 42.2951 8.928 42.2951 8.064C42.2951 6.656 42.6418 5.56799 43.3351 4.79999C44.0391 4.02133 45.0418 3.632 46.3431 3.632C47.2391 3.632 47.9591 3.824 48.5031 4.20799C49.0578 4.59199 49.4631 5.15199 49.7191 5.88799C49.9751 6.62399 50.0978 7.51999 50.0871 8.57599H43.9271L43.6711 7.05599H48.1191L47.7671 7.80799C47.7565 6.94399 47.6338 6.33599 47.3991 5.98399C47.1645 5.632 46.7805 5.456 46.2471 5.456C45.9485 5.456 45.6765 5.53066 45.4311 5.68C45.1965 5.82933 45.0098 6.08 44.8711 6.43199C44.7431 6.77333 44.6791 7.248 44.6791 7.856C44.6791 8.624 44.8605 9.216 45.2231 9.632C45.5965 10.048 46.1885 10.256 46.9991 10.256C47.2978 10.256 47.5911 10.224 47.8791 10.16C48.1778 10.0853 48.4551 10 48.7111 9.904C48.9671 9.808 49.1858 9.72266 49.3671 9.64799V11.696C48.9831 11.856 48.5511 11.984 48.0711 12.08C47.6018 12.1867 47.0525 12.24 46.4231 12.24Z" fill="white"/>
<path d="M53.9475 12L50.5715 3.90399H53.1635L55.6115 10.144L55.0355 10.16L57.2115 3.90399H59.7235L56.3475 12H53.9475Z" fill="white"/>
<path d="M64.345 12.24C63.5343 12.24 62.8143 12.0747 62.185 11.744C61.5663 11.4027 61.081 10.9227 60.729 10.304C60.3877 9.67466 60.217 8.928 60.217 8.064C60.217 6.656 60.5637 5.56799 61.257 4.79999C61.961 4.02133 62.9637 3.632 64.265 3.632C65.161 3.632 65.881 3.824 66.425 4.20799C66.9797 4.59199 67.385 5.15199 67.641 5.88799C67.897 6.62399 68.0197 7.51999 68.009 8.57599H61.849L61.593 7.05599H66.041L65.689 7.80799C65.6783 6.94399 65.5557 6.33599 65.321 5.98399C65.0863 5.632 64.7023 5.456 64.169 5.456C63.8703 5.456 63.5983 5.53066 63.353 5.68C63.1183 5.82933 62.9317 6.08 62.793 6.43199C62.665 6.77333 62.601 7.248 62.601 7.856C62.601 8.624 62.7823 9.216 63.145 9.632C63.5183 10.048 64.1103 10.256 64.921 10.256C65.2197 10.256 65.513 10.224 65.801 10.16C66.0997 10.0853 66.377 10 66.633 9.904C66.889 9.808 67.1077 9.72266 67.289 9.64799V11.696C66.905 11.856 66.473 11.984 65.993 12.08C65.5237 12.1867 64.9743 12.24 64.345 12.24Z" fill="white"/>
<path d="M69.6654 12V4.752C69.8147 4.62399 70.0814 4.47999 70.4654 4.31999C70.8494 4.14933 71.2867 3.99999 71.7774 3.87199C72.2787 3.73333 72.78 3.66399 73.2814 3.66399C73.7827 3.66399 74.1774 3.70133 74.4654 3.776C74.7534 3.85066 74.972 3.94666 75.1214 4.06399V5.80799C74.94 5.76533 74.7107 5.73333 74.4334 5.712C74.156 5.69066 73.868 5.68 73.5694 5.68C73.2707 5.66933 72.988 5.66933 72.7214 5.68C72.4547 5.69066 72.2307 5.71199 72.0494 5.74399V12H69.6654Z" fill="white"/>
<path d="M80.083 12L84.115 1.32799H86.947L90.723 12H88.067L84.659 1.936L85.923 1.82399L82.531 12H80.083ZM82.355 9.696L82.883 7.792H87.731L87.971 9.696H82.355Z" fill="white"/>
<path d="M96.3615 12.24C96.2015 12.24 95.9668 12.224 95.6575 12.192C95.3482 12.16 95.0282 12.0907 94.6975 11.984C94.3668 11.8667 94.0842 11.6907 93.8495 11.456L94.3295 10.704V14.896H91.9935V5.61599C91.9935 5.264 92.0948 4.96533 92.2975 4.72C92.5002 4.47466 92.7775 4.27199 93.1295 4.11199C93.4815 3.95199 93.8868 3.83466 94.3455 3.75999C94.8148 3.67466 95.3162 3.632 95.8495 3.632C96.6602 3.632 97.3695 3.77066 97.9775 4.048C98.5962 4.31466 99.0762 4.76799 99.4175 5.40799C99.7695 6.04799 99.9455 6.92266 99.9455 8.03199C99.9455 8.86399 99.8015 9.6 99.5135 10.24C99.2255 10.8693 98.8148 11.36 98.2815 11.712C97.7588 12.064 97.1188 12.24 96.3615 12.24ZM95.6575 10.32C96.0842 10.32 96.4362 10.2453 96.7135 10.096C96.9908 9.94666 97.1988 9.70133 97.3375 9.35999C97.4868 9.00799 97.5615 8.53866 97.5615 7.95199C97.5615 7.46133 97.5082 7.04533 97.4015 6.70399C97.2948 6.36266 97.1082 6.10133 96.8415 5.91999C96.5855 5.72799 96.2228 5.63199 95.7535 5.63199C95.2415 5.63199 94.8735 5.68533 94.6495 5.792C94.4362 5.888 94.3295 6.016 94.3295 6.17599V9.984C94.5322 10.1013 94.7562 10.1867 95.0015 10.24C95.2468 10.2933 95.4655 10.32 95.6575 10.32Z" fill="white"/>
<path d="M105.971 12.24C105.811 12.24 105.576 12.224 105.267 12.192C104.958 12.16 104.638 12.0907 104.307 11.984C103.976 11.8667 103.694 11.6907 103.459 11.456L103.939 10.704V14.896H101.603V5.61599C101.603 5.264 101.704 4.96533 101.907 4.72C102.11 4.47466 102.387 4.27199 102.739 4.11199C103.091 3.95199 103.496 3.83466 103.955 3.75999C104.424 3.67466 104.926 3.632 105.459 3.632C106.27 3.632 106.979 3.77066 107.587 4.048C108.206 4.31466 108.686 4.76799 109.027 5.40799C109.379 6.04799 109.555 6.92266 109.555 8.03199C109.555 8.86399 109.411 9.6 109.123 10.24C108.835 10.8693 108.424 11.36 107.891 11.712C107.368 12.064 106.728 12.24 105.971 12.24ZM105.267 10.32C105.694 10.32 106.046 10.2453 106.323 10.096C106.6 9.94666 106.808 9.70133 106.947 9.35999C107.096 9.00799 107.171 8.53866 107.171 7.95199C107.171 7.46133 107.118 7.04533 107.011 6.70399C106.904 6.36266 106.718 6.10133 106.451 5.91999C106.195 5.72799 105.832 5.63199 105.363 5.63199C104.851 5.63199 104.483 5.68533 104.259 5.792C104.046 5.888 103.939 6.016 103.939 6.17599V9.984C104.142 10.1013 104.366 10.1867 104.611 10.24C104.856 10.2933 105.075 10.32 105.267 10.32Z" fill="white"/>
</svg>
