<svg width="16" height="13" viewBox="0 0 16 13" fill="none" xmlns="http://www.w3.org/2000/svg">
<path d="M10.79 11.266L9.176 9.651C8.55184 9.87416 7.87715 9.91548 7.23042 9.77017C6.58369 9.62486 5.99153 9.29889 5.52282 8.83018C5.05411 8.36148 4.72814 7.76931 4.58283 7.12258C4.43752 6.47586 4.47885 5.80116 4.702 5.177L2.642 3.117C0.938 4.632 0 6.354 0 6.354C0 6.354 3 11.854 8 11.854C8.9604 11.8507 9.90994 11.6506 10.79 11.266ZM5.21 1.442C6.09005 1.05743 7.03959 0.857311 8 0.854004C13 0.854004 16 6.354 16 6.354C16 6.354 15.061 8.075 13.359 9.592L11.297 7.53C11.5202 6.90585 11.5615 6.23115 11.4162 5.58442C11.2709 4.9377 10.9449 4.34553 10.4762 3.87682C10.0075 3.40812 9.41531 3.08214 8.76858 2.93683C8.12185 2.79152 7.44716 2.83285 6.823 3.056L5.21 1.442Z" fill="url(#paint0_linear_5_534)"/>
<path d="M5.525 6C5.47 6.38431 5.50525 6.77615 5.62797 7.14447C5.75069 7.51279 5.9575 7.84747 6.23202 8.12199C6.50653 8.39651 6.84121 8.60332 7.20953 8.72604C7.57785 8.84876 7.96969 8.88401 8.354 8.829L5.525 6ZM10.475 6.708L7.646 3.878C8.03031 3.82299 8.42215 3.85824 8.79047 3.98096C9.1588 4.10368 9.49348 4.31049 9.76799 4.58501C10.0425 4.85953 10.2493 5.19421 10.372 5.56253C10.4948 5.93085 10.53 6.32269 10.475 6.707V6.708ZM13.646 12.708L1.646 0.708L2.354 0L14.354 12L13.646 12.708Z" fill="url(#paint1_linear_5_534)"/>
<defs>
<linearGradient id="paint0_linear_5_534" x1="8" y1="0.854004" x2="8" y2="11.854" gradientUnits="userSpaceOnUse">
<stop stop-color="#FFE600"/>
<stop offset="1" stop-color="#D56600"/>
</linearGradient>
<linearGradient id="paint1_linear_5_534" x1="8" y1="0" x2="8" y2="12.708" gradientUnits="userSpaceOnUse">
<stop stop-color="#FFE600"/>
<stop offset="1" stop-color="#D56600"/>
</linearGradient>
</defs>
</svg>
