<svg width="16" height="12" viewBox="0 0 16 12" fill="none" xmlns="http://www.w3.org/2000/svg">
<path d="M0 2C0 1.46957 0.210714 0.960859 0.585786 0.585786C0.960859 0.210714 1.46957 0 2 0H14C14.5304 0 15.0391 0.210714 15.4142 0.585786C15.7893 0.960859 16 1.46957 16 2V10C16 10.5304 15.7893 11.0391 15.4142 11.4142C15.0391 11.7893 14.5304 12 14 12H2C1.46957 12 0.960859 11.7893 0.585786 11.4142C0.210714 11.0391 0 10.5304 0 10V2ZM9 3.5C9 3.63261 9.05268 3.75979 9.14645 3.85355C9.24021 3.94732 9.36739 4 9.5 4H13.5C13.6326 4 13.7598 3.94732 13.8536 3.85355C13.9473 3.75979 14 3.63261 14 3.5C14 3.36739 13.9473 3.24021 13.8536 3.14645C13.7598 3.05268 13.6326 3 13.5 3H9.5C9.36739 3 9.24021 3.05268 9.14645 3.14645C9.05268 3.24021 9 3.36739 9 3.5ZM9 6C9 6.13261 9.05268 6.25979 9.14645 6.35355C9.24021 6.44732 9.36739 6.5 9.5 6.5H13.5C13.6326 6.5 13.7598 6.44732 13.8536 6.35355C13.9473 6.25979 14 6.13261 14 6C14 5.86739 13.9473 5.74021 13.8536 5.64645C13.7598 5.55268 13.6326 5.5 13.5 5.5H9.5C9.36739 5.5 9.24021 5.55268 9.14645 5.64645C9.05268 5.74021 9 5.86739 9 6ZM10 8.5C10 8.63261 10.0527 8.75979 10.1464 8.85355C10.2402 8.94732 10.3674 9 10.5 9H13.5C13.6326 9 13.7598 8.94732 13.8536 8.85355C13.9473 8.75979 14 8.63261 14 8.5C14 8.36739 13.9473 8.24021 13.8536 8.14645C13.7598 8.05268 13.6326 8 13.5 8H10.5C10.3674 8 10.2402 8.05268 10.1464 8.14645C10.0527 8.24021 10 8.36739 10 8.5ZM9 10.5C9 8.567 7.21 7 5 7C2.914 7 1.2 8.398 1.016 10.181C1.05834 10.411 1.17998 10.619 1.35976 10.7686C1.53954 10.9182 1.76609 11.0001 2 11H8.96C8.986 10.837 9 10.67 9 10.5ZM7 4C7 3.46957 6.78929 2.96086 6.41421 2.58579C6.03914 2.21071 5.53043 2 5 2C4.46957 2 3.96086 2.21071 3.58579 2.58579C3.21071 2.96086 3 3.46957 3 4C3 4.53043 3.21071 5.03914 3.58579 5.41421C3.96086 5.78929 4.46957 6 5 6C5.53043 6 6.03914 5.78929 6.41421 5.41421C6.78929 5.03914 7 4.53043 7 4Z" fill="url(#paint0_linear_5_517)"/>
<defs>
<linearGradient id="paint0_linear_5_517" x1="8" y1="0" x2="8" y2="12" gradientUnits="userSpaceOnUse">
<stop stop-color="#FFE600"/>
<stop offset="1" stop-color="#D56600"/>
</linearGradient>
</defs>
</svg>
