<svg width="37" height="37" viewBox="0 0 37 37" fill="none" xmlns="http://www.w3.org/2000/svg">
<path d="M30.6154 1H6.38462C3.41077 1 1 3.41077 1 6.38462V30.6154C1 33.5893 3.41077 36 6.38462 36H30.6154C33.5893 36 36 33.5893 36 30.6154V6.38462C36 3.41077 33.5893 1 30.6154 1Z" stroke="url(#paint0_linear_16_61)" stroke-width="2" stroke-linecap="round" stroke-linejoin="round"/>
<path d="M18.5 1V36" stroke="url(#paint1_linear_16_61)" stroke-width="2" stroke-linecap="round" stroke-linejoin="round"/>
<path d="M1 18.5H36" stroke="url(#paint2_linear_16_61)" stroke-width="2" stroke-linecap="round" stroke-linejoin="round"/>
<path d="M6.38464 9.75H13.1154" stroke="url(#paint3_linear_16_61)" stroke-width="2" stroke-linecap="round" stroke-linejoin="round"/>
<path d="M24.5577 9.75H29.9424" stroke="url(#paint4_linear_16_61)" stroke-width="2" stroke-linecap="round" stroke-linejoin="round"/>
<path d="M24.5577 24.5576H29.9424" stroke="url(#paint5_linear_16_61)" stroke-width="2" stroke-linecap="round" stroke-linejoin="round"/>
<path d="M24.5577 29.9424H29.9424" stroke="url(#paint6_linear_16_61)" stroke-width="2" stroke-linecap="round" stroke-linejoin="round"/>
<path d="M9.75 6.38477V13.1155" stroke="url(#paint7_linear_16_61)" stroke-width="2" stroke-linecap="round" stroke-linejoin="round"/>
<path d="M6.896 24.396L12.6037 30.1036" stroke="url(#paint8_linear_16_61)" stroke-width="2" stroke-linecap="round" stroke-linejoin="round"/>
<path d="M12.6037 24.396L6.896 30.1036" stroke="url(#paint9_linear_16_61)" stroke-width="2" stroke-linecap="round" stroke-linejoin="round"/>
<defs>
<linearGradient id="paint0_linear_16_61" x1="1.00004" y1="18.5" x2="36.0001" y2="18.5" gradientUnits="userSpaceOnUse">
<stop stop-color="#A8EAFF"/>
<stop offset="1" stop-color="#00B9A7"/>
</linearGradient>
<linearGradient id="paint1_linear_16_61" x1="18.5" y1="18.5" x2="19.5" y2="18.5" gradientUnits="userSpaceOnUse">
<stop stop-color="#A8EAFF"/>
<stop offset="1" stop-color="#00B9A7"/>
</linearGradient>
<linearGradient id="paint2_linear_16_61" x1="1.00004" y1="19" x2="36.0001" y2="19" gradientUnits="userSpaceOnUse">
<stop stop-color="#A8EAFF"/>
<stop offset="1" stop-color="#00B9A7"/>
</linearGradient>
<linearGradient id="paint3_linear_16_61" x1="6.38465" y1="10.25" x2="13.1154" y2="10.25" gradientUnits="userSpaceOnUse">
<stop stop-color="#A8EAFF"/>
<stop offset="1" stop-color="#00B9A7"/>
</linearGradient>
<linearGradient id="paint4_linear_16_61" x1="24.5577" y1="10.25" x2="29.9424" y2="10.25" gradientUnits="userSpaceOnUse">
<stop stop-color="#A8EAFF"/>
<stop offset="1" stop-color="#00B9A7"/>
</linearGradient>
<linearGradient id="paint5_linear_16_61" x1="24.5577" y1="25.0576" x2="29.9424" y2="25.0576" gradientUnits="userSpaceOnUse">
<stop stop-color="#A8EAFF"/>
<stop offset="1" stop-color="#00B9A7"/>
</linearGradient>
<linearGradient id="paint6_linear_16_61" x1="24.5577" y1="30.4424" x2="29.9424" y2="30.4424" gradientUnits="userSpaceOnUse">
<stop stop-color="#A8EAFF"/>
<stop offset="1" stop-color="#00B9A7"/>
</linearGradient>
<linearGradient id="paint7_linear_16_61" x1="9.75" y1="9.75015" x2="10.75" y2="9.75015" gradientUnits="userSpaceOnUse">
<stop stop-color="#A8EAFF"/>
<stop offset="1" stop-color="#00B9A7"/>
</linearGradient>
<linearGradient id="paint8_linear_16_61" x1="6.896" y1="27.2498" x2="12.6037" y2="27.2498" gradientUnits="userSpaceOnUse">
<stop stop-color="#A8EAFF"/>
<stop offset="1" stop-color="#00B9A7"/>
</linearGradient>
<linearGradient id="paint9_linear_16_61" x1="6.896" y1="27.2498" x2="12.6037" y2="27.2498" gradientUnits="userSpaceOnUse">
<stop stop-color="#A8EAFF"/>
<stop offset="1" stop-color="#00B9A7"/>
</linearGradient>
</defs>
</svg>
