<svg width="37" height="37" viewBox="0 0 37 37" fill="none" xmlns="http://www.w3.org/2000/svg">
<path d="M34.4115 14.1063H2.5884C1.08072 14.1063 0.434566 12.464 1.61918 11.6832L17.5307 1.26394C17.8245 1.09113 18.1591 1 18.4999 1C18.8408 1 19.1754 1.09113 19.4692 1.26394L35.3807 11.6832C36.5653 12.464 35.9192 14.1063 34.4115 14.1063Z" stroke="url(#paint0_linear_16_76)" stroke-width="2" stroke-linecap="round" stroke-linejoin="round"/>
<path d="M34.6538 28.9141H2.34615C1.60269 28.9141 1 29.5169 1 30.2602V34.2987C1 35.042 1.60269 35.6448 2.34615 35.6448H34.6538C35.3972 35.6448 36 35.042 36 34.2987V30.2602C36 29.5169 35.3972 28.9141 34.6538 28.9141Z" stroke="url(#paint1_linear_16_76)" stroke-width="2" stroke-linecap="round" stroke-linejoin="round"/>
<path d="M5.03845 14.1069V28.9146" stroke="url(#paint2_linear_16_76)" stroke-width="2" stroke-linecap="round" stroke-linejoin="round"/>
<path d="M14.0128 14.1069V28.9146" stroke="url(#paint3_linear_16_76)" stroke-width="2" stroke-linecap="round" stroke-linejoin="round"/>
<path d="M22.9872 14.1069V28.9146" stroke="url(#paint4_linear_16_76)" stroke-width="2" stroke-linecap="round" stroke-linejoin="round"/>
<path d="M31.9615 14.1069V28.9146" stroke="url(#paint5_linear_16_76)" stroke-width="2" stroke-linecap="round" stroke-linejoin="round"/>
<defs>
<linearGradient id="paint0_linear_16_76" x1="1.00638" y1="7.55313" x2="35.9936" y2="7.55313" gradientUnits="userSpaceOnUse">
<stop stop-color="#A8EAFF"/>
<stop offset="1" stop-color="#00B9A7"/>
</linearGradient>
<linearGradient id="paint1_linear_16_76" x1="1.00004" y1="32.2794" x2="36.0001" y2="32.2794" gradientUnits="userSpaceOnUse">
<stop stop-color="#A8EAFF"/>
<stop offset="1" stop-color="#00B9A7"/>
</linearGradient>
<linearGradient id="paint2_linear_16_76" x1="5.03845" y1="21.5108" x2="6.03845" y2="21.5108" gradientUnits="userSpaceOnUse">
<stop stop-color="#A8EAFF"/>
<stop offset="1" stop-color="#00B9A7"/>
</linearGradient>
<linearGradient id="paint3_linear_16_76" x1="14.0128" y1="21.5108" x2="15.0128" y2="21.5108" gradientUnits="userSpaceOnUse">
<stop stop-color="#A8EAFF"/>
<stop offset="1" stop-color="#00B9A7"/>
</linearGradient>
<linearGradient id="paint4_linear_16_76" x1="22.9872" y1="21.5108" x2="23.9872" y2="21.5108" gradientUnits="userSpaceOnUse">
<stop stop-color="#A8EAFF"/>
<stop offset="1" stop-color="#00B9A7"/>
</linearGradient>
<linearGradient id="paint5_linear_16_76" x1="31.9615" y1="21.5108" x2="32.9615" y2="21.5108" gradientUnits="userSpaceOnUse">
<stop stop-color="#A8EAFF"/>
<stop offset="1" stop-color="#00B9A7"/>
</linearGradient>
</defs>
</svg>
