<svg width="29" height="35" viewBox="0 0 29 35" fill="none" xmlns="http://www.w3.org/2000/svg">
<g clip-path="url(#clip0_11_648)">
<path d="M8.88001 0.0998419C8.72092 0.1014 8.55578 0.140795 8.40534 0.226395C7.92757 0.498234 7.75234 1.12845 8.01697 1.61848L9.09576 3.61803C6.4967 5.26874 4.77443 8.0882 4.77443 11.3061C4.77443 11.3196 4.77439 11.3399 4.77443 11.3599C4.77444 11.367 4.77436 11.371 4.77443 11.3789C4.77443 11.3894 4.77443 11.4048 4.77443 11.4074V11.9041C4.27526 11.3146 3.54148 10.9423 2.72164 10.9423C1.21965 10.9423 0 12.1942 0 13.736V22.3416C0 23.8833 1.21965 25.1353 2.72164 25.1353C3.54148 25.1353 4.27526 24.763 4.77443 24.1734V25.3789C4.77443 27.004 6.06999 28.3339 7.65326 28.3339H8.38376V32.1621C8.38376 33.7039 9.60341 34.9558 11.1054 34.9558C12.6074 34.9558 13.827 33.7039 13.827 32.1621V28.3339H15.0908V32.1621C15.0908 33.7039 16.3104 34.9558 17.8124 34.9558C19.3144 34.9558 20.5341 33.7039 20.5341 32.1621V28.3339H21.2645C22.8478 28.3339 24.1434 27.004 24.1434 25.3789V24.1734C24.6426 24.763 25.3763 25.1353 26.1962 25.1353C27.6982 25.1353 28.9178 23.8833 28.9178 22.3416V13.736C28.9178 12.1942 27.6982 10.9423 26.1962 10.9423C25.3763 10.9423 24.6426 11.3146 24.1434 11.9041V11.4169V11.4074C24.1434 11.3922 24.1434 11.377 24.1434 11.3789C24.1436 11.3486 24.1434 11.3244 24.1434 11.3061C24.1434 8.08876 22.4173 5.27202 19.819 3.62119L20.9008 1.61848C21.1655 1.12844 20.9902 0.498231 20.5125 0.226392C20.362 0.140792 20.1969 0.101399 20.0378 0.0998389C19.685 0.0963727 19.3387 0.287232 19.1563 0.625035L18.0251 2.72266C16.919 2.30368 15.7155 2.07407 14.4589 2.07407C13.2036 2.07407 11.9979 2.30133 10.8927 2.71949L9.76153 0.625035C9.57911 0.287231 9.23282 0.0963837 8.88001 0.0998419Z" fill="black"/>
<path d="M2.7217 11.67C1.60086 11.67 0.708984 12.5855 0.708984 13.736V22.3416C0.708984 23.4921 1.60086 24.4076 2.7217 24.4076C3.84255 24.4076 4.73442 23.4921 4.73442 22.3416V13.736C4.73442 12.5855 3.84255 11.67 2.7217 11.67ZM26.1962 11.67C25.0754 11.67 24.1835 12.5855 24.1835 13.736V22.3416C24.1835 23.4921 25.0754 24.4076 26.1962 24.4076C27.3171 24.4076 28.209 23.4921 28.209 22.3416V13.736C28.209 12.5855 27.3171 11.67 26.1962 11.67Z" fill="white"/>
<path d="M11.1054 21.4905C9.98452 21.4905 9.09265 22.406 9.09265 23.5565V32.1621C9.09265 33.3126 9.98452 34.2281 11.1054 34.2281C12.2262 34.2281 13.1181 33.3126 13.1181 32.1621V23.5565C13.1181 22.406 12.2262 21.4905 11.1054 21.4905ZM17.8124 21.4905C16.6915 21.4905 15.7997 22.406 15.7997 23.5565V32.1621C15.7997 33.3126 16.6915 34.2281 17.8124 34.2281C18.9332 34.2281 19.8251 33.3126 19.8251 32.1621V23.5565C19.8251 22.406 18.9332 21.4905 17.8124 21.4905Z" fill="white"/>
<path d="M8.88616 0.827529C8.83858 0.828028 8.79424 0.840629 8.75054 0.865494C8.60702 0.947156 8.55982 1.11644 8.63958 1.26414L10.0574 3.89328C7.32956 5.35023 5.48703 8.11901 5.48334 11.2967H23.4345C23.4308 8.11901 21.5882 5.35023 18.8604 3.89328L20.2782 1.26414C20.358 1.11644 20.3108 0.947156 20.1672 0.865494C20.1235 0.840629 20.0792 0.827994 20.0316 0.827529C19.9298 0.82652 19.8332 0.878759 19.7789 0.979393L18.3425 3.63701C17.1676 3.10204 15.8496 2.80176 14.4589 2.80176C13.0681 2.80176 11.7502 3.10204 10.5752 3.63701L9.1389 0.979393C9.08456 0.878759 8.98801 0.826526 8.88616 0.827529ZM5.48334 12.0243V25.3789C5.48334 26.6128 6.45112 27.6062 7.65325 27.6062H21.2645C22.4667 27.6062 23.4345 26.6128 23.4345 25.3789V12.0243H5.48334Z" fill="white"/>
<path d="M10.3163 6.38635C9.90652 6.38635 9.56732 6.73453 9.56732 7.15516C9.56732 7.5758 9.90652 7.92398 10.3163 7.92398C10.7261 7.92398 11.0653 7.5758 11.0653 7.15516C11.0653 6.73453 10.7261 6.38635 10.3163 6.38635ZM18.6014 6.38635C18.1917 6.38635 17.8525 6.73453 17.8525 7.15516C17.8525 7.5758 18.1917 7.92398 18.6014 7.92398C19.0112 7.92398 19.3504 7.5758 19.3504 7.15516C19.3504 6.73453 19.0112 6.38635 18.6014 6.38635Z" fill="black"/>
</g>
<defs>
<clipPath id="clip0_11_648">
<rect width="29" height="35" fill="white"/>
</clipPath>
</defs>
</svg>
