<svg width="25" height="30" viewBox="0 0 25 30" fill="none" xmlns="http://www.w3.org/2000/svg">
<g clip-path="url(#clip0_11_645)">
<path d="M20.8792 15.9077C20.9224 20.439 24.9553 21.9469 25 21.9662C24.9659 22.0725 24.3556 24.1151 22.8753 26.2249C21.5956 28.049 20.2674 29.8663 18.1752 29.904C16.1193 29.9409 15.4583 28.715 13.1079 28.715C10.7582 28.715 10.0237 29.8663 8.07765 29.9409C6.05811 30.0154 4.52025 27.9684 3.22992 26.1511C0.59329 22.4336 -1.42164 15.6463 1.2839 11.0648C2.62796 8.78961 5.02989 7.34886 7.63697 7.31192C9.62011 7.27502 11.492 8.61307 12.7043 8.61307C13.9158 8.61307 16.1905 7.00395 18.5818 7.24027C19.5829 7.28091 22.3929 7.63464 24.1973 10.2104C24.0519 10.2983 20.8444 12.1194 20.8792 15.9077ZM17.0155 4.78083C18.0877 3.51513 18.8094 1.75315 18.6125 0C17.067 0.0605762 15.1982 1.00436 14.0897 2.26937C13.0962 3.38959 12.2261 5.18257 12.4609 6.90103C14.1835 7.031 15.9433 6.04733 17.0155 4.78083Z" fill="white"/>
</g>
<defs>
<clipPath id="clip0_11_645">
<rect width="25" height="30" fill="white"/>
</clipPath>
</defs>
</svg>
