<svg width="54" height="54" viewBox="0 0 54 54" fill="none" xmlns="http://www.w3.org/2000/svg">
<path d="M49.7304 20.7232H4.26887C2.11504 20.7232 1.19196 18.3771 2.88427 17.2617L25.615 2.37706C26.0347 2.13018 26.5128 2 26.9996 2C27.4866 2 27.9646 2.13018 28.3843 2.37706L51.115 17.2617C52.8073 18.3771 51.8843 20.7232 49.7304 20.7232Z" stroke="url(#paint0_linear_13_697)" stroke-width="4" stroke-linecap="round" stroke-linejoin="round"/>
<path d="M50.0769 41.8766H3.92308C2.86099 41.8766 2 42.7377 2 43.7997V49.5689C2 50.6308 2.86099 51.492 3.92308 51.492H50.0769C51.1388 51.492 52 50.6308 52 49.5689V43.7997C52 42.7377 51.1388 41.8766 50.0769 41.8766Z" stroke="url(#paint1_linear_13_697)" stroke-width="4" stroke-linecap="round" stroke-linejoin="round"/>
<path d="M7.76929 20.7229V41.8767" stroke="url(#paint2_linear_13_697)" stroke-width="4" stroke-linecap="round" stroke-linejoin="round"/>
<path d="M20.5897 20.7229V41.8767" stroke="url(#paint3_linear_13_697)" stroke-width="4" stroke-linecap="round" stroke-linejoin="round"/>
<path d="M33.4103 20.7229V41.8767" stroke="url(#paint4_linear_13_697)" stroke-width="4" stroke-linecap="round" stroke-linejoin="round"/>
<path d="M46.2307 20.7229V41.8767" stroke="url(#paint5_linear_13_697)" stroke-width="4" stroke-linecap="round" stroke-linejoin="round"/>
<defs>
<linearGradient id="paint0_linear_13_697" x1="2.00884" y1="11.3616" x2="51.9906" y2="11.3616" gradientUnits="userSpaceOnUse">
<stop stop-color="#A8EAFF"/>
<stop offset="1" stop-color="#00B9A7"/>
</linearGradient>
<linearGradient id="paint1_linear_13_697" x1="2.00005" y1="46.6843" x2="52.0001" y2="46.6843" gradientUnits="userSpaceOnUse">
<stop stop-color="#A8EAFF"/>
<stop offset="1" stop-color="#00B9A7"/>
</linearGradient>
<linearGradient id="paint2_linear_13_697" x1="7.76929" y1="31.2998" x2="8.76929" y2="31.2998" gradientUnits="userSpaceOnUse">
<stop stop-color="#A8EAFF"/>
<stop offset="1" stop-color="#00B9A7"/>
</linearGradient>
<linearGradient id="paint3_linear_13_697" x1="20.5897" y1="31.2998" x2="21.5897" y2="31.2998" gradientUnits="userSpaceOnUse">
<stop stop-color="#A8EAFF"/>
<stop offset="1" stop-color="#00B9A7"/>
</linearGradient>
<linearGradient id="paint4_linear_13_697" x1="33.4103" y1="31.2998" x2="34.4103" y2="31.2998" gradientUnits="userSpaceOnUse">
<stop stop-color="#A8EAFF"/>
<stop offset="1" stop-color="#00B9A7"/>
</linearGradient>
<linearGradient id="paint5_linear_13_697" x1="46.2307" y1="31.2998" x2="47.2307" y2="31.2998" gradientUnits="userSpaceOnUse">
<stop stop-color="#A8EAFF"/>
<stop offset="1" stop-color="#00B9A7"/>
</linearGradient>
</defs>
</svg>
