<svg width="85" height="85" viewBox="0 0 85 85" fill="none" xmlns="http://www.w3.org/2000/svg">
<rect width="85" height="85" rx="10" fill="white"/>
<path d="M48.2041 53.0772L43.4931 55.7913V73.1687L48.5536 73.1756C49.0515 73.1765 49.4554 72.7722 49.4554 72.2747V53.7251C49.4554 53.0142 48.7693 52.755 48.2041 53.0772ZM41.3701 28.2356C37.8811 28.2356 34.0676 28.557 30.299 29.1979C34.1134 24.2966 40.1602 21.1351 46.9044 21.1351C51.8812 21.1351 56.8589 23.013 60.2081 25.8074C60.813 26.311 61.2782 26.3577 61.7433 25.899C62.2085 25.4412 62.1619 24.9825 61.6501 24.3873C57.2774 19.302 50.8586 15.8666 43.2765 16.004C33.3686 16.188 24.9494 22.4636 21.74 31.1674C18.8093 32.0839 16.1116 33.1827 13.7393 34.5112C13.0878 34.8784 12.8556 35.3362 13.0878 35.8856C13.3208 36.3892 13.7859 36.5723 14.4366 36.3892C16.4836 35.7931 18.5763 35.2895 20.7622 34.8317C20.5292 35.9771 20.3903 37.1683 20.3903 38.4053C20.2039 46.4224 24.4834 54.0266 31.0886 58.1953C31.7402 58.6082 32.2985 58.6082 32.6705 58.1038C33.0424 57.6002 32.9958 57.1423 32.4375 56.6379C28.2512 52.8811 25.9254 47.2922 25.9254 41.7491C25.9254 38.9547 26.4838 36.2518 27.5539 33.8236C29.7398 33.6405 32.1121 33.5032 34.7174 33.5032C51.6491 33.5032 65.9288 39.092 65.9288 46.4215C65.9288 50.1325 61.2307 53.8426 55.649 56.3165C54.3001 56.9117 54.1603 57.3237 54.3467 57.9198C54.5323 58.4692 55.1372 58.6532 55.8354 58.4234C65.6043 55.2178 73 49.9502 73 43.5822C73 34.9241 59.0456 28.2356 41.3701 28.2356ZM37.7586 59.7675V72.5951C37.7586 72.9165 38.0183 73.1765 38.3394 73.1765H41.9043V56.7052L38.3454 58.7559C37.9821 58.9633 37.7586 59.2889 37.7586 59.7675Z" fill="#101010"/>
</svg>
