<svg width="42" height="42" viewBox="0 0 42 42" fill="none" xmlns="http://www.w3.org/2000/svg">
<circle cx="39.0795" cy="39.0795" r="2.42053" transform="rotate(180 39.0795 39.0795)" stroke="white"/>
<circle cx="31.8477" cy="39.0795" r="2.42053" transform="rotate(180 31.8477 39.0795)" stroke="white"/>
<circle cx="24.6158" cy="39.0795" r="2.42053" transform="rotate(180 24.6158 39.0795)" stroke="white"/>
<circle cx="17.3842" cy="39.0795" r="2.42053" transform="rotate(180 17.3842 39.0795)" stroke="white"/>
<circle cx="10.1523" cy="39.0795" r="2.42053" transform="rotate(180 10.1523 39.0795)" stroke="white"/>
<circle cx="2.92053" cy="39.0795" r="2.42053" transform="rotate(180 2.92053 39.0795)" stroke="white"/>
<circle cx="39.0795" cy="31.8475" r="2.42053" transform="rotate(-90 39.0795 31.8475)" stroke="white"/>
<circle cx="31.8477" cy="31.8475" r="2.42053" transform="rotate(-90 31.8477 31.8475)" stroke="white"/>
<circle cx="31.8477" cy="24.6156" r="2.42053" transform="rotate(-90 31.8477 24.6156)" stroke="white"/>
<circle cx="24.6158" cy="24.6156" r="2.42053" transform="rotate(-90 24.6158 24.6156)" stroke="white"/>
<circle cx="17.3842" cy="24.6156" r="2.42053" transform="rotate(-90 17.3842 24.6156)" stroke="white"/>
<circle cx="31.8477" cy="17.3842" r="2.42053" transform="rotate(-90 31.8477 17.3842)" stroke="white"/>
<circle cx="24.6158" cy="17.3842" r="2.42053" transform="rotate(-90 24.6158 17.3842)" stroke="white"/>
<circle cx="24.6158" cy="31.8475" r="2.42053" transform="rotate(-90 24.6158 31.8475)" stroke="white"/>
<circle cx="17.3842" cy="31.8475" r="2.42053" transform="rotate(-90 17.3842 31.8475)" stroke="white"/>
<circle cx="10.1523" cy="31.8475" r="2.42053" transform="rotate(-90 10.1523 31.8475)" stroke="white"/>
<circle cx="39.0795" cy="24.6156" r="2.42053" transform="rotate(-90 39.0795 24.6156)" stroke="white"/>
<circle cx="39.0795" cy="17.3842" r="2.42053" transform="rotate(-90 39.0795 17.3842)" stroke="white"/>
<circle cx="39.0795" cy="10.1522" r="2.42053" transform="rotate(-90 39.0795 10.1522)" stroke="white"/>
<circle cx="31.8477" cy="10.1522" r="2.42053" transform="rotate(-90 31.8477 10.1522)" stroke="white"/>
<circle cx="39.0795" cy="2.92029" r="2.42053" transform="rotate(-90 39.0795 2.92029)" stroke="white"/>
<rect x="32.2648" y="5.00684" width="0.834437" height="4.17219" transform="rotate(180 32.2648 5.00684)" fill="white"/>
<rect x="29.7615" y="3.33789" width="0.834437" height="4.17219" transform="rotate(-90 29.7615 3.33789)" fill="white"/>
<rect x="25.0332" y="5.28467" width="0.834437" height="4.17219" transform="rotate(180 25.0332 5.28467)" fill="white"/>
<rect x="22.5299" y="3.61572" width="0.834437" height="4.17219" transform="rotate(-90 22.5299 3.61572)" fill="white"/>
<rect x="17.8014" y="5.00684" width="0.834437" height="4.17219" transform="rotate(180 17.8014 5.00684)" fill="white"/>
<rect x="15.2981" y="3.33789" width="0.834437" height="4.17219" transform="rotate(-90 15.2981 3.33789)" fill="white"/>
<rect x="10.5696" y="5.28467" width="0.834437" height="4.17219" transform="rotate(180 10.5696 5.28467)" fill="white"/>
<rect x="8.06628" y="3.61572" width="0.834437" height="4.17219" transform="rotate(-90 8.06628 3.61572)" fill="white"/>
<rect x="3.33777" y="5.28467" width="0.834437" height="4.17219" transform="rotate(180 3.33777 5.28467)" fill="white"/>
<rect x="0.834473" y="3.61572" width="0.834437" height="4.17219" transform="rotate(-90 0.834473 3.61572)" fill="white"/>
<rect x="3.33777" y="12.2383" width="0.834437" height="4.17219" transform="rotate(180 3.33777 12.2383)" fill="white"/>
<rect x="0.834473" y="10.5693" width="0.834437" height="4.17219" transform="rotate(-90 0.834473 10.5693)" fill="white"/>
<rect x="3.05969" y="19.4702" width="0.834437" height="4.17219" transform="rotate(180 3.05969 19.4702)" fill="white"/>
<rect x="0.556396" y="17.8013" width="0.834437" height="4.17219" transform="rotate(-90 0.556396 17.8013)" fill="white"/>
<rect x="3.05969" y="26.7021" width="0.834437" height="4.17219" transform="rotate(180 3.05969 26.7021)" fill="white"/>
<rect x="0.556396" y="25.0332" width="0.834437" height="4.17219" transform="rotate(-90 0.556396 25.0332)" fill="white"/>
<rect x="3.05969" y="33.9336" width="0.834437" height="4.17219" transform="rotate(180 3.05969 33.9336)" fill="white"/>
<rect x="0.556396" y="32.2651" width="0.834437" height="4.17219" transform="rotate(-90 0.556396 32.2651)" fill="white"/>
</svg>
