<svg width="330" height="98" viewBox="0 0 330 98" fill="none" xmlns="http://www.w3.org/2000/svg">
<path d="M327.811 86.2341C327.811 87.4647 327.568 88.6833 327.097 89.8201C326.626 90.9569 325.935 91.9897 325.064 92.8595C324.193 93.7292 323.159 94.4188 322.022 94.8888C320.884 95.3589 319.665 95.6002 318.434 95.5989H11.5661C9.07888 95.6015 6.6925 94.6164 4.93173 92.8602C3.17097 91.104 2.18 88.7206 2.17676 86.2341V11.5528C2.18 9.06517 3.17058 6.68048 4.93099 4.92237C6.6914 3.16426 9.07775 2.17643 11.5661 2.17578H318.432C319.663 2.17578 320.883 2.41834 322.021 2.88961C323.158 3.36088 324.192 4.05163 325.063 4.9224C325.934 5.79317 326.624 6.8269 327.096 7.96456C327.567 9.10222 327.809 10.3215 327.809 11.5528L327.811 86.2341Z" fill="white"/>
<path d="M318.434 97.7779H11.566C8.50212 97.7772 5.56359 96.5615 3.39524 94.3974C1.22689 92.2333 0.0058298 89.2976 0 86.2345L0 11.5556C0.00453262 8.49101 1.22478 5.55331 3.39306 3.38698C5.56134 1.22065 8.5006 0.00258666 11.566 0L318.432 0C321.497 0.00387734 324.435 1.22235 326.603 3.38841C328.771 5.55446 329.992 8.49141 329.998 11.5556V86.2345C330.002 92.6016 324.805 97.7779 318.434 97.7779Z" fill="#00D7C2"/>
<path d="M327.811 86.2341C327.811 87.4647 327.568 88.6833 327.097 89.8201C326.626 90.9569 325.935 91.9897 325.064 92.8595C324.193 93.7292 323.159 94.4188 322.022 94.8888C320.884 95.3589 319.665 95.6002 318.434 95.5989H11.5661C9.07888 95.6015 6.6925 94.6164 4.93173 92.8602C3.17097 91.104 2.18 88.7206 2.17676 86.2341V11.5528C2.18 9.06517 3.17058 6.68048 4.93099 4.92237C6.6914 3.16426 9.07775 2.17643 11.5661 2.17578H318.432C319.663 2.17578 320.883 2.41834 322.021 2.88961C323.158 3.36088 324.192 4.05163 325.063 4.9224C325.934 5.79317 326.624 6.8269 327.096 7.96456C327.567 9.10222 327.809 10.3215 327.809 11.5528L327.811 86.2341Z" fill="black"/>
<path d="M73.6861 48.3741C73.6151 40.4935 80.1404 36.6595 80.4388 36.481C76.7433 31.0944 71.0153 30.3585 69.0024 30.2998C64.1916 29.7936 59.5251 33.1777 57.0744 33.1777C54.5748 33.1777 50.801 30.3487 46.7337 30.4318C41.4998 30.5125 36.6033 33.542 33.9179 38.2464C28.3758 47.8386 32.5091 61.9347 37.8189 69.6882C40.475 73.4879 43.5787 77.7253 47.6411 77.5762C51.6155 77.4148 53.1 75.0455 57.8962 75.0455C62.6483 75.0455 64.0424 77.5762 68.1855 77.4808C72.4509 77.4148 75.1364 73.6664 77.6996 69.8349C80.769 65.4851 82.0017 61.1963 82.0506 60.9763C81.9528 60.942 73.7692 57.8172 73.6861 48.3741ZM65.8596 25.1993C67.9972 22.5267 69.4598 18.8909 69.0538 15.2012C65.9599 15.3381 62.0907 17.3407 59.8626 19.9545C57.8913 22.2578 56.1303 26.0331 56.5853 29.5834C60.0607 29.8425 63.6291 27.8302 65.8596 25.1993Z" fill="white"/>
<path d="M131.252 77.0311H125.698L122.655 67.4731H112.08L109.181 77.0311H103.774L114.254 44.4915H120.725L131.252 77.0311ZM121.738 63.4631L118.987 54.9663C118.695 54.0983 118.148 52.0542 117.345 48.8364H117.248C116.925 50.2204 116.409 52.2645 115.702 54.9663L112.997 63.4631H121.738ZM158.151 65.0109C158.151 69.0013 157.067 72.1555 154.898 74.4711C152.956 76.5323 150.542 77.5617 147.663 77.5617C144.555 77.5617 142.319 76.4541 140.962 74.2339V86.5451H135.747V61.2796C135.747 58.7734 135.681 56.2036 135.554 53.5677H140.14L140.431 57.2868H140.529C142.268 54.4847 144.907 53.0836 148.448 53.0836C151.217 53.0836 153.528 54.1766 155.377 56.365C157.224 58.5582 158.151 61.4386 158.151 65.0109ZM152.838 65.2016C152.838 62.9179 152.325 61.0351 151.293 59.5509C150.165 58.0081 148.651 57.2354 146.753 57.2354C145.467 57.2354 144.298 57.6658 143.253 58.5142C142.207 59.37 141.522 60.4874 141.201 61.8714C141.058 62.3889 140.977 62.9216 140.959 63.4582V67.3729C140.959 69.0771 141.483 70.5173 142.529 71.6959C143.576 72.8695 144.936 73.4588 146.609 73.4588C148.573 73.4588 150.102 72.6983 151.195 71.1897C152.291 69.6762 152.838 67.681 152.838 65.2016ZM185.145 65.0109C185.145 69.0013 184.061 72.1555 181.892 74.4711C179.947 76.5323 177.536 77.5617 174.655 77.5617C171.546 77.5617 169.311 76.4541 167.953 74.2339V86.5451H162.739V61.2796C162.739 58.7734 162.673 56.2036 162.546 53.5677H167.131L167.423 57.2868H167.52C169.257 54.4847 171.896 53.0836 175.44 53.0836C178.206 53.0836 180.517 54.1766 182.371 56.365C184.215 58.5582 185.145 61.4386 185.145 65.0109ZM179.83 65.2016C179.83 62.9179 179.314 61.0351 178.282 59.5509C177.154 58.0081 175.645 57.2354 173.747 57.2354C172.461 57.2354 171.292 57.6658 170.242 58.5142C169.196 59.37 168.513 60.4874 168.193 61.8714C168.034 62.5169 167.948 63.0426 167.948 63.4582V67.3729C167.948 69.0771 168.474 70.5173 169.516 71.6959C170.563 72.8671 171.923 73.4588 173.601 73.4588C175.567 73.4588 177.096 72.6983 178.186 71.1897C179.282 69.6762 179.83 67.681 179.83 65.2016ZM215.325 67.9035C215.325 70.6738 214.357 72.9257 212.432 74.6642C210.314 76.5616 207.357 77.5128 203.566 77.5128C200.064 77.5128 197.256 76.8379 195.138 75.4858L196.344 71.1408C198.63 72.4954 201.142 73.1703 203.877 73.1703C205.843 73.1703 207.372 72.7252 208.462 71.8426C209.556 70.9574 210.108 69.774 210.108 68.2971C210.108 66.9743 209.651 65.8667 208.754 64.9644C207.851 64.0646 206.359 63.226 204.263 62.4557C198.564 60.3309 195.713 57.2232 195.713 53.135C195.713 50.4649 196.72 48.2789 198.731 46.5698C200.741 44.8631 203.407 44.0098 206.724 44.0098C209.685 44.0098 212.153 44.5257 214.112 45.5551L212.804 49.8047C210.96 48.8071 208.878 48.3083 206.55 48.3083C204.711 48.3083 203.268 48.7606 202.236 49.6604C201.367 50.4649 200.927 51.4454 200.927 52.6093C200.927 53.8929 201.428 54.959 202.426 55.7952C203.292 56.5655 204.872 57.4041 207.156 58.3039C209.959 59.4336 212.019 60.749 213.337 62.2601C214.665 63.7712 215.325 65.6564 215.325 67.9035ZM232.61 57.4799H226.862V68.8717C226.862 71.7692 227.875 73.2143 229.905 73.2143C230.836 73.2143 231.609 73.136 232.221 72.9722L232.365 76.9308C231.338 77.3147 229.985 77.5079 228.31 77.5079C226.251 77.5079 224.641 76.8795 223.479 75.6227C222.323 74.3659 221.741 72.2607 221.741 69.2972V57.4701H218.316V53.558H221.741V49.2619L226.862 47.7166V53.558H232.61V57.4799ZM258.491 65.1063C258.491 68.7128 257.459 71.6738 255.399 73.9894C253.244 76.3734 250.378 77.5617 246.805 77.5617C243.356 77.5617 240.615 76.4198 238.57 74.1385C236.525 71.8523 235.503 68.972 235.503 65.4975C235.503 61.8616 236.559 58.8834 238.665 56.5679C240.776 54.2499 243.618 53.0909 247.191 53.0909C250.635 53.0909 253.401 54.2353 255.495 56.519C257.495 58.7343 258.491 61.5951 258.491 65.1063ZM253.085 65.2261C253.085 63.0768 252.621 61.2332 251.689 59.6903C250.596 57.8271 249.03 56.8955 247.003 56.8955C244.914 56.8955 243.312 57.8271 242.221 59.6903C241.287 61.2332 240.822 63.1086 240.822 65.3239C240.822 67.4756 241.287 69.3241 242.221 70.8621C243.349 72.7252 244.922 73.6568 246.959 73.6568C248.952 73.6568 250.515 72.7057 251.645 70.8156C252.604 69.2361 253.085 67.3802 253.085 65.2261ZM275.447 58.1523C274.905 58.0545 274.355 58.0062 273.804 58.0081C271.969 58.0081 270.551 58.6976 269.553 60.0864C268.687 61.309 268.252 62.8543 268.252 64.7199V77.0311H263.037V60.9569C263.042 58.4938 262.991 56.031 262.886 53.5702H267.427L267.618 58.0594H267.763C268.315 56.5166 269.181 55.272 270.37 54.3404C271.458 53.5264 272.78 53.0855 274.139 53.0836C274.62 53.0836 275.056 53.1178 275.442 53.179L275.447 58.1523ZM298.768 64.1893C298.781 64.9818 298.717 65.7737 298.577 66.5538H282.934C282.992 68.8717 283.751 70.6469 285.203 71.8695C286.522 72.96 288.226 73.5077 290.32 73.5077C292.636 73.5077 294.749 73.1409 296.65 72.4L297.466 76.0164C295.246 76.9846 292.624 77.4663 289.598 77.4663C285.959 77.4663 283.102 76.3954 281.023 74.2583C278.949 72.1189 277.91 69.2434 277.91 65.6417C277.91 62.1061 278.876 59.1597 280.811 56.81C282.836 54.3013 285.573 53.0469 289.016 53.0469C292.399 53.0469 294.959 54.3013 296.698 56.81C298.075 58.7978 298.768 61.2625 298.768 64.1893ZM293.795 62.8372C293.832 61.2894 293.49 59.9568 292.783 58.8296C291.88 57.3772 290.491 56.6535 288.63 56.6535C286.925 56.6535 285.536 57.3601 284.479 58.7783C283.611 59.9055 283.095 61.2601 282.936 62.8323L293.795 62.8372Z" fill="white"/>
<path d="M107.754 32.6169H104.641L104.66 31.6266H107.754C108.741 31.6266 109.59 31.4065 110.301 30.9663C111.018 30.5199 111.571 29.9036 111.961 29.1176C112.351 28.3316 112.546 27.4198 112.546 26.3823V25.0995C112.546 24.3072 112.432 23.5904 112.206 22.949C111.986 22.3076 111.668 21.7605 111.253 21.3078C110.838 20.8487 110.342 20.4966 109.763 20.2514C109.191 20.0061 108.549 19.8835 107.839 19.8835H104.585V18.8837H107.839C108.694 18.8837 109.477 19.0315 110.188 19.327C110.904 19.6163 111.524 20.0376 112.046 20.5909C112.574 21.138 112.979 21.7951 113.262 22.5622C113.552 23.3294 113.696 24.1846 113.696 25.1278V26.3823C113.696 27.3255 113.552 28.1807 113.262 28.9478C112.979 29.715 112.574 30.3721 112.046 30.9191C111.517 31.4662 110.892 31.8875 110.169 32.1831C109.446 32.4723 108.641 32.6169 107.754 32.6169ZM105.16 18.8837V32.6169H104V18.8837H105.16Z" fill="white"/>
<path d="M118.073 18.8837V32.6169H116.913V18.8837H118.073Z" fill="white"/>
<path d="M129.58 29.2402C129.58 28.8629 129.517 28.5265 129.391 28.231C129.266 27.9354 129.058 27.6713 128.769 27.4387C128.486 27.1997 128.102 26.9796 127.618 26.7784C127.14 26.5709 126.543 26.3666 125.826 26.1653C125.141 25.9704 124.521 25.7566 123.968 25.5239C123.415 25.2913 122.94 25.024 122.544 24.7222C122.154 24.4204 121.855 24.0683 121.648 23.6658C121.44 23.2571 121.336 22.7823 121.336 22.2416C121.336 21.7134 121.45 21.2323 121.676 20.7984C121.902 20.3646 122.22 19.9904 122.629 19.676C123.044 19.3616 123.531 19.1195 124.091 18.9497C124.656 18.78 125.276 18.6951 125.949 18.6951C126.911 18.6951 127.741 18.8774 128.439 19.2421C129.143 19.6068 129.687 20.1005 130.071 20.723C130.46 21.3392 130.655 22.0309 130.655 22.7981H129.495C129.495 22.2007 129.354 21.6693 129.071 21.204C128.794 20.7324 128.392 20.3646 127.863 20.1005C127.341 19.8301 126.703 19.6949 125.949 19.6949C125.194 19.6949 124.559 19.8112 124.043 20.0439C123.534 20.2702 123.147 20.5752 122.883 20.9588C122.625 21.3361 122.496 21.7574 122.496 22.2227C122.496 22.5497 122.559 22.8515 122.685 23.1282C122.811 23.3986 123.015 23.6532 123.298 23.8922C123.587 24.1248 123.968 24.3449 124.44 24.5524C124.911 24.7537 125.493 24.9454 126.184 25.1278C126.914 25.329 127.562 25.5522 128.127 25.7975C128.693 26.0427 129.171 26.3257 129.561 26.6464C129.951 26.9608 130.247 27.3286 130.448 27.7499C130.649 28.1712 130.75 28.6617 130.75 29.2214C130.75 29.781 130.63 30.284 130.391 30.7305C130.159 31.1707 129.828 31.5448 129.401 31.8529C128.98 32.161 128.48 32.3969 127.901 32.5603C127.329 32.7238 126.703 32.8056 126.024 32.8056C125.414 32.8056 124.807 32.727 124.204 32.5698C123.6 32.4126 123.047 32.1705 122.544 31.8435C122.047 31.5102 121.648 31.0826 121.346 30.5607C121.05 30.0388 120.902 29.4163 120.902 28.6932H122.053C122.053 29.2717 122.169 29.759 122.402 30.1551C122.635 30.5513 122.943 30.872 123.327 31.1172C123.716 31.3625 124.144 31.5417 124.609 31.6549C125.081 31.7618 125.552 31.8152 126.024 31.8152C126.747 31.8152 127.373 31.7083 127.901 31.4945C128.436 31.2807 128.847 30.982 129.137 30.5985C129.432 30.2086 129.58 29.7558 129.58 29.2402Z" fill="white"/>
<path d="M137.927 27.0237H134.013V26.0333H137.927C138.745 26.0333 139.408 25.9012 139.918 25.6371C140.433 25.3667 140.807 25.002 141.04 24.543C141.279 24.084 141.399 23.5683 141.399 22.9961C141.399 22.4365 141.279 21.9209 141.04 21.4493C140.807 20.9776 140.433 20.6004 139.918 20.3174C139.408 20.0281 138.745 19.8835 137.927 19.8835H134.419V32.6169H133.259V18.8837H137.927C138.934 18.8837 139.779 19.0566 140.465 19.4025C141.156 19.7483 141.678 20.2294 142.03 20.8456C142.383 21.4618 142.559 22.1724 142.559 22.9773C142.559 23.8199 142.383 24.5461 142.03 25.1561C141.678 25.7598 141.16 26.2219 140.474 26.5426C139.789 26.8633 138.94 27.0237 137.927 27.0237Z" fill="white"/>
<path d="M155.302 25.0146V26.486C155.302 27.4481 155.176 28.319 154.924 29.0987C154.679 29.8722 154.321 30.5356 153.849 31.0889C153.384 31.6423 152.824 32.0667 152.17 32.3623C151.516 32.6578 150.78 32.8056 149.963 32.8056C149.164 32.8056 148.435 32.6578 147.775 32.3623C147.121 32.0667 146.558 31.6423 146.086 31.0889C145.615 30.5356 145.25 29.8722 144.992 29.0987C144.734 28.319 144.605 27.4481 144.605 26.486V25.0146C144.605 24.0525 144.731 23.1848 144.983 22.4113C145.241 21.6316 145.605 20.9651 146.077 20.4117C146.548 19.8584 147.111 19.4339 147.765 19.1384C148.419 18.8428 149.145 18.6951 149.944 18.6951C150.762 18.6951 151.497 18.8428 152.151 19.1384C152.805 19.4339 153.368 19.8584 153.84 20.4117C154.311 20.9651 154.673 21.6316 154.924 22.4113C155.176 23.1848 155.302 24.0525 155.302 25.0146ZM154.151 26.486V24.9957C154.151 24.1846 154.056 23.4552 153.868 22.8075C153.686 22.1598 153.412 21.6065 153.047 21.1474C152.689 20.6884 152.249 20.3363 151.727 20.091C151.205 19.8458 150.611 19.7232 149.944 19.7232C149.296 19.7232 148.715 19.8458 148.199 20.091C147.683 20.3363 147.243 20.6884 146.879 21.1474C146.52 21.6065 146.244 22.1598 146.049 22.8075C145.86 23.4552 145.766 24.1846 145.766 24.9957V26.486C145.766 27.3035 145.86 28.0392 146.049 28.6932C146.244 29.3408 146.523 29.8973 146.888 30.3626C147.253 30.8217 147.693 31.1738 148.209 31.4191C148.73 31.6643 149.315 31.7869 149.963 31.7869C150.636 31.7869 151.23 31.6643 151.746 31.4191C152.261 31.1738 152.698 30.8217 153.057 30.3626C153.415 29.8973 153.686 29.3408 153.868 28.6932C154.056 28.0392 154.151 27.3035 154.151 26.486Z" fill="white"/>
<path d="M168.459 18.8837V32.6169H167.29L159.395 20.8833V32.6169H158.235V18.8837H159.395L167.309 30.6173V18.8837H168.459Z" fill="white"/>
<path d="M173.383 18.8837V32.6169H172.223V18.8837H173.383ZM172.138 17.7518L173.939 15.1108H175.298L173.119 17.7518H172.138Z" fill="white"/>
<path d="M181.41 30.9097L185.739 18.8837H187.003L181.891 32.6169H180.957L181.41 30.9097ZM176.939 18.8837L181.249 30.9097L181.721 32.6169H180.778L175.675 18.8837H176.939Z" fill="white"/>
<path d="M197.577 31.6266V32.6169H189.852V31.6266H197.577ZM190.201 18.8837V32.6169H189.04V18.8837H190.201ZM196.614 25.0429V26.0333H189.852V25.0429H196.614ZM197.529 18.8837V19.8835H189.852V18.8837H197.529Z" fill="white"/>
<path d="M207.98 31.6266V32.6169H200.859V31.6266H207.98ZM201.198 18.8837V32.6169H200.038V18.8837H201.198Z" fill="white"/>
<path d="M225.166 18.8837V32.6169H223.996L216.101 20.8833V32.6169H214.941V18.8837H216.101L224.015 30.6173V18.8837H225.166Z" fill="white"/>
<path d="M238.814 25.0146V26.486C238.814 27.4481 238.688 28.319 238.437 29.0987C238.191 29.8722 237.833 30.5356 237.361 31.0889C236.896 31.6423 236.336 32.0667 235.682 32.3623C235.028 32.6578 234.293 32.8056 233.475 32.8056C232.677 32.8056 231.947 32.6578 231.287 32.3623C230.633 32.0667 230.07 31.6423 229.599 31.0889C229.127 30.5356 228.762 29.8722 228.505 29.0987C228.247 28.319 228.118 27.4481 228.118 26.486V25.0146C228.118 24.0525 228.244 23.1848 228.495 22.4113C228.753 21.6316 229.118 20.9651 229.589 20.4117C230.061 19.8584 230.624 19.4339 231.278 19.1384C231.932 18.8428 232.658 18.6951 233.456 18.6951C234.274 18.6951 235.01 18.8428 235.664 19.1384C236.318 19.4339 236.88 19.8584 237.352 20.4117C237.824 20.9651 238.185 21.6316 238.437 22.4113C238.688 23.1848 238.814 24.0525 238.814 25.0146ZM237.663 26.486V24.9957C237.663 24.1846 237.569 23.4552 237.38 22.8075C237.198 22.1598 236.924 21.6065 236.56 21.1474C236.201 20.6884 235.761 20.3363 235.239 20.091C234.717 19.8458 234.123 19.7232 233.456 19.7232C232.809 19.7232 232.227 19.8458 231.712 20.091C231.196 20.3363 230.756 20.6884 230.391 21.1474C230.033 21.6065 229.756 22.1598 229.561 22.8075C229.372 23.4552 229.278 24.1846 229.278 24.9957V26.486C229.278 27.3035 229.372 28.0392 229.561 28.6932C229.756 29.3408 230.036 29.8973 230.4 30.3626C230.765 30.8217 231.205 31.1738 231.721 31.4191C232.243 31.6643 232.828 31.7869 233.475 31.7869C234.148 31.7869 234.742 31.6643 235.258 31.4191C235.774 31.1738 236.211 30.8217 236.569 30.3626C236.927 29.8973 237.198 29.3408 237.38 28.6932C237.569 28.0392 237.663 27.3035 237.663 26.486Z" fill="white"/>
</svg>
