<svg width="42" height="42" viewBox="0 0 42 42" fill="none" xmlns="http://www.w3.org/2000/svg">
<circle cx="2.92053" cy="39.0795" r="2.42053" transform="rotate(-90 2.92053 39.0795)" stroke="white"/>
<circle cx="2.92053" cy="31.8475" r="2.42053" transform="rotate(-90 2.92053 31.8475)" stroke="white"/>
<circle cx="2.92053" cy="24.6161" r="2.42053" transform="rotate(-90 2.92053 24.6161)" stroke="white"/>
<circle cx="2.92053" cy="17.3842" r="2.42053" transform="rotate(-90 2.92053 17.3842)" stroke="white"/>
<circle cx="2.92053" cy="10.1522" r="2.42053" transform="rotate(-90 2.92053 10.1522)" stroke="white"/>
<circle cx="2.92053" cy="2.92029" r="2.42053" transform="rotate(-90 2.92053 2.92029)" stroke="white"/>
<circle cx="10.1524" cy="39.0792" r="2.42053" stroke="white"/>
<circle cx="10.1524" cy="31.8478" r="2.42053" stroke="white"/>
<circle cx="17.3842" cy="31.8478" r="2.42053" stroke="white"/>
<circle cx="17.3842" cy="24.6158" r="2.42053" stroke="white"/>
<circle cx="17.3842" cy="17.3839" r="2.42053" stroke="white"/>
<circle cx="24.6158" cy="31.8478" r="2.42053" stroke="white"/>
<circle cx="24.6158" cy="24.6158" r="2.42053" stroke="white"/>
<circle cx="10.1524" cy="24.6158" r="2.42053" stroke="white"/>
<circle cx="10.1524" cy="17.3839" r="2.42053" stroke="white"/>
<circle cx="10.1524" cy="10.1525" r="2.42053" stroke="white"/>
<circle cx="17.3842" cy="39.0792" r="2.42053" stroke="white"/>
<circle cx="24.6158" cy="39.0792" r="2.42053" stroke="white"/>
<circle cx="31.8477" cy="39.0792" r="2.42053" stroke="white"/>
<circle cx="31.8477" cy="31.8478" r="2.42053" stroke="white"/>
<circle cx="39.0795" cy="39.0792" r="2.42053" stroke="white"/>
<rect x="36.9936" y="32.2646" width="0.834437" height="4.17219" transform="rotate(-90 36.9936 32.2646)" fill="white"/>
<rect x="38.6624" y="29.7612" width="0.834437" height="4.17219" fill="white"/>
<rect x="36.715" y="25.0332" width="0.834437" height="4.17219" transform="rotate(-90 36.715 25.0332)" fill="white"/>
<rect x="38.384" y="22.5298" width="0.834437" height="4.17219" fill="white"/>
<rect x="36.9936" y="17.8013" width="0.834437" height="4.17219" transform="rotate(-90 36.9936 17.8013)" fill="white"/>
<rect x="38.6624" y="15.2979" width="0.834437" height="4.17219" fill="white"/>
<rect x="36.715" y="10.5693" width="0.834437" height="4.17219" transform="rotate(-90 36.715 10.5693)" fill="white"/>
<rect x="38.384" y="8.06592" width="0.834437" height="4.17219" fill="white"/>
<rect x="36.715" y="3.33789" width="0.834437" height="4.17219" transform="rotate(-90 36.715 3.33789)" fill="white"/>
<rect x="38.384" y="0.834473" width="0.834437" height="4.17219" fill="white"/>
<rect x="29.7614" y="3.33789" width="0.834437" height="4.17219" transform="rotate(-90 29.7614 3.33789)" fill="white"/>
<rect x="31.4304" y="0.834473" width="0.834437" height="4.17219" fill="white"/>
<rect x="22.5296" y="3.05957" width="0.834437" height="4.17219" transform="rotate(-90 22.5296 3.05957)" fill="white"/>
<rect x="24.1986" y="0.556152" width="0.834437" height="4.17219" fill="white"/>
<rect x="15.2983" y="3.05957" width="0.834437" height="4.17219" transform="rotate(-90 15.2983 3.05957)" fill="white"/>
<rect x="16.9671" y="0.556152" width="0.834437" height="4.17219" fill="white"/>
<rect x="8.06607" y="3.05957" width="0.834437" height="4.17219" transform="rotate(-90 8.06607 3.05957)" fill="white"/>
<rect x="9.73486" y="0.556152" width="0.834437" height="4.17219" fill="white"/>
</svg>
