<svg width="330" height="98" viewBox="0 0 330 98" fill="none" xmlns="http://www.w3.org/2000/svg">
<path d="M317.778 97.8886H12.2223C5.37781 97.8886 3.05176e-05 92.5108 3.05176e-05 85.6664V12.3331C3.05176e-05 5.48862 5.37781 0.11084 12.2223 0.11084H317.778C324.622 0.11084 330 5.48862 330 12.3331V85.6664C330 92.5108 324.622 97.8886 317.778 97.8886Z" fill="black"/>
<path d="M317.778 2.0664C323.4 2.0664 328.044 6.71084 328.044 12.3331V85.6664C328.044 91.2886 323.4 95.9331 317.778 95.9331H12.2223C6.60003 95.9331 1.95559 91.2886 1.95559 85.6664V12.3331C1.95559 6.71084 6.60003 2.0664 12.2223 2.0664H317.778ZM317.778 0.11084H12.2223C5.37781 0.11084 3.05176e-05 5.73306 3.05176e-05 12.3331V85.6664C3.05176e-05 92.5108 5.37781 97.8886 12.2223 97.8886H317.778C324.622 97.8886 330 92.5108 330 85.6664V12.3331C330 5.73306 324.622 0.11084 317.778 0.11084Z" fill="#00D7C2"/>
<path d="M166.467 53.3995C160.6 53.3995 155.956 57.7995 155.956 63.9106C155.956 69.7773 160.6 74.4217 166.467 74.4217C172.333 74.4217 176.978 70.0218 176.978 63.9106C176.978 57.5551 172.333 53.3995 166.467 53.3995ZM166.467 70.0218C163.289 70.0218 160.6 67.3329 160.6 63.6662C160.6 59.9995 163.289 57.3106 166.467 57.3106C169.644 57.3106 172.333 59.7551 172.333 63.6662C172.333 67.3329 169.644 70.0218 166.467 70.0218ZM143.733 53.3995C137.867 53.3995 133.222 57.7995 133.222 63.9106C133.222 69.7773 137.867 74.4217 143.733 74.4217C149.6 74.4217 154.244 70.0218 154.244 63.9106C154.244 57.5551 149.6 53.3995 143.733 53.3995ZM143.733 70.0218C140.556 70.0218 137.867 67.3329 137.867 63.6662C137.867 59.9995 140.556 57.3106 143.733 57.3106C146.911 57.3106 149.6 59.7551 149.6 63.6662C149.6 67.3329 146.911 70.0218 143.733 70.0218ZM116.6 56.5773V60.9773H127.111C126.867 63.4218 125.889 65.3773 124.667 66.5995C123.2 68.0662 120.756 69.7773 116.6 69.7773C110 69.7773 105.111 64.644 105.111 58.044C105.111 51.444 110.244 46.3106 116.6 46.3106C120.022 46.3106 122.711 47.7773 124.667 49.4884L127.844 46.3106C125.156 43.8662 121.733 41.9106 116.844 41.9106C108.044 41.9106 100.467 49.244 100.467 58.044C100.467 66.844 108.044 74.1773 116.844 74.1773C121.733 74.1773 125.156 72.7106 128.089 69.5329C131.022 66.5995 132 62.444 132 59.2662C132 58.2884 132 57.3106 131.756 56.5773H116.6ZM227.578 59.9995C226.6 57.5551 224.156 53.3995 218.778 53.3995C213.4 53.3995 209 57.5551 209 63.9106C209 69.7773 213.4 74.4217 219.267 74.4217C223.911 74.4217 226.844 71.4884 227.822 69.7773L224.4 67.3329C223.178 69.044 221.711 70.2662 219.267 70.2662C216.822 70.2662 215.356 69.2884 214.133 67.0884L228.067 61.2218L227.578 59.9995ZM213.4 63.4218C213.4 59.5106 216.578 57.3106 218.778 57.3106C220.489 57.3106 222.2 58.2884 222.689 59.5106L213.4 63.4218ZM201.911 73.444H206.556V42.8884H201.911V73.444ZM194.578 55.5995C193.356 54.3773 191.4 53.1551 188.956 53.1551C183.822 53.1551 178.933 57.7995 178.933 63.6662C178.933 69.5329 183.578 73.9329 188.956 73.9329C191.4 73.9329 193.356 72.7106 194.333 71.4884H194.578V72.9551C194.578 76.8662 192.378 79.0662 188.956 79.0662C186.267 79.0662 184.311 77.1106 183.822 75.3995L179.911 77.1106C181.133 79.7995 184.067 83.2217 189.2 83.2217C194.578 83.2217 198.978 80.044 198.978 72.4662V53.8884H194.578V55.5995ZM189.2 70.0218C186.022 70.0218 183.333 67.3329 183.333 63.6662C183.333 59.9995 186.022 57.3106 189.2 57.3106C192.378 57.3106 194.822 59.9995 194.822 63.6662C194.822 67.3329 192.378 70.0218 189.2 70.0218ZM248.844 42.8884H237.844V73.444H242.489V61.9551H248.844C253.978 61.9551 258.867 58.2884 258.867 52.4218C258.867 46.5551 253.978 42.8884 248.844 42.8884ZM249.089 57.5551H242.489V47.044H249.089C252.511 47.044 254.467 49.9773 254.467 52.1773C254.222 54.8662 252.267 57.5551 249.089 57.5551ZM277.2 53.1551C273.778 53.1551 270.356 54.6218 269.133 57.7995L273.289 59.5106C274.267 57.7995 275.733 57.3106 277.444 57.3106C279.889 57.3106 282.089 58.7773 282.333 61.2218V61.4662C281.6 60.9773 279.644 60.244 277.689 60.244C273.289 60.244 268.889 62.6884 268.889 67.0884C268.889 71.244 272.556 73.9329 276.467 73.9329C279.644 73.9329 281.111 72.4662 282.333 70.9995H282.578V73.444H286.978V61.7106C286.489 56.3329 282.333 53.1551 277.2 53.1551ZM276.711 70.0218C275.244 70.0218 273.044 69.2884 273.044 67.3329C273.044 64.8884 275.733 64.1551 277.933 64.1551C279.889 64.1551 280.867 64.644 282.089 65.1329C281.6 68.0662 279.156 70.0218 276.711 70.0218ZM302.378 53.8884L297.244 67.0884H297L291.622 53.8884H286.733L294.8 72.4662L290.156 82.7329H294.8L307.267 53.8884H302.378ZM261.311 73.444H265.956V42.8884H261.311V73.444Z" fill="white"/>
<path d="M25.4222 18.4438C24.6889 19.1772 24.4445 20.3994 24.4445 21.8661V75.8883C24.4445 77.355 24.9333 78.5772 25.6667 79.3105L25.9111 79.555L56.2222 49.2438V48.755L25.4222 18.4438Z" fill="url(#paint0_linear_21_209)"/>
<path d="M66 59.5107L55.9778 49.4885V48.7551L66 38.7329L66.2445 38.9774L78.2222 45.8218C81.6445 47.7774 81.6445 50.9551 78.2222 52.9107L66 59.5107Z" fill="url(#paint1_linear_21_209)"/>
<path d="M66.2445 59.2667L55.9778 49L25.4223 79.5556C26.6445 80.7778 28.3556 80.7778 30.5556 79.8L66.2445 59.2667Z" fill="url(#paint2_linear_21_209)"/>
<path d="M66.2445 38.7331L30.5556 18.4442C28.3556 17.222 26.6445 17.4664 25.4223 18.6886L55.9778 48.9997L66.2445 38.7331Z" fill="url(#paint3_linear_21_209)"/>
<path opacity="0.2" d="M66 59.022L30.5556 79.0664C28.6 80.2886 26.8889 80.0442 25.6667 79.0664L25.4223 79.3109L25.6667 79.5553C26.8889 80.5331 28.6 80.7775 30.5556 79.5553L66 59.022Z" fill="black"/>
<path opacity="0.12" d="M25.4222 79.0667C24.6889 78.3333 24.4445 77.1111 24.4445 75.6444V75.8889C24.4445 77.3556 24.9333 78.5778 25.6667 79.3111V79.0667H25.4222ZM78.2222 52.1778L66 59.0222L66.2445 59.2667L78.2222 52.4222C79.9333 51.4444 80.6667 50.2222 80.6667 49C80.6667 50.2222 79.6889 51.2 78.2222 52.1778Z" fill="black"/>
<path opacity="0.25" d="M30.5556 18.6884L78.2223 45.8217C79.6889 46.7995 80.6667 47.7773 80.6667 48.9995C80.6667 47.7773 79.9334 46.5551 78.2223 45.5773L30.5556 18.444C27.1334 16.4884 24.4445 17.9551 24.4445 21.8662V22.1106C24.4445 18.444 27.1334 16.7329 30.5556 18.6884Z" fill="white"/>
<path d="M106.109 33.1111H102.996L103.015 32.1207H106.109C107.096 32.1207 107.945 31.9006 108.655 31.4604C109.372 31.014 109.926 30.3978 110.315 29.6117C110.705 28.8257 110.9 27.914 110.9 26.8764V25.5936C110.9 24.8013 110.787 24.0845 110.561 23.4431C110.341 22.8017 110.023 22.2547 109.608 21.8019C109.193 21.3429 108.696 20.9907 108.118 20.7455C107.546 20.5003 106.904 20.3777 106.194 20.3777H102.94V19.3778H106.194C107.049 19.3778 107.832 19.5256 108.542 19.8212C109.259 20.1104 109.878 20.5317 110.4 21.0851C110.929 21.6321 111.334 22.2892 111.617 23.0564C111.906 23.8235 112.051 24.6787 112.051 25.6219V26.8764C112.051 27.8196 111.906 28.6748 111.617 29.442C111.334 30.2091 110.929 30.8662 110.4 31.4133C109.872 31.9604 109.247 32.3817 108.523 32.6772C107.8 32.9664 106.995 33.1111 106.109 33.1111ZM103.515 19.3778V33.1111H102.355V19.3778H103.515Z" fill="white"/>
<path d="M116.428 19.3778V33.1111H115.267V19.3778H116.428Z" fill="white"/>
<path d="M127.935 29.7344C127.935 29.3571 127.872 29.0207 127.746 28.7251C127.62 28.4296 127.413 28.1655 127.124 27.9328C126.841 27.6939 126.457 27.4738 125.973 27.2726C125.495 27.0651 124.898 26.8607 124.181 26.6595C123.495 26.4645 122.876 26.2507 122.323 26.0181C121.769 25.7854 121.295 25.5182 120.898 25.2164C120.509 24.9145 120.21 24.5624 120.002 24.16C119.795 23.7512 119.691 23.2765 119.691 22.7357C119.691 22.2075 119.804 21.7265 120.031 21.2926C120.257 20.8587 120.575 20.4846 120.983 20.1701C121.398 19.8557 121.886 19.6137 122.445 19.4439C123.011 19.2741 123.631 19.1892 124.303 19.1892C125.265 19.1892 126.095 19.3716 126.793 19.7363C127.498 20.101 128.042 20.5946 128.425 21.2171C128.815 21.8334 129.01 22.525 129.01 23.2922H127.85C127.85 22.6948 127.708 22.1635 127.425 21.6982C127.149 21.2266 126.746 20.8587 126.218 20.5946C125.696 20.3242 125.058 20.189 124.303 20.189C123.549 20.189 122.914 20.3053 122.398 20.538C121.889 20.7644 121.502 21.0693 121.238 21.4529C120.98 21.8302 120.851 22.2515 120.851 22.7168C120.851 23.0438 120.914 23.3456 121.04 23.6223C121.166 23.8927 121.37 24.1474 121.653 24.3863C121.942 24.619 122.323 24.8391 122.794 25.0466C123.266 25.2478 123.847 25.4396 124.539 25.6219C125.269 25.8232 125.916 26.0464 126.482 26.2916C127.048 26.5369 127.526 26.8198 127.916 27.1405C128.306 27.4549 128.601 27.8228 128.803 28.2441C129.004 28.6654 129.104 29.1559 129.104 29.7155C129.104 30.2751 128.985 30.7782 128.746 31.2246C128.513 31.6648 128.183 32.039 127.756 32.3471C127.334 32.6552 126.834 32.891 126.256 33.0545C125.684 33.218 125.058 33.2997 124.379 33.2997C123.769 33.2997 123.162 33.2211 122.558 33.0639C121.955 32.9067 121.401 32.6646 120.898 32.3376C120.402 32.0044 120.002 31.5768 119.7 31.0549C119.405 30.533 119.257 29.9104 119.257 29.1873H120.408C120.408 29.7658 120.524 30.2531 120.757 30.6493C120.99 31.0454 121.298 31.3661 121.681 31.6114C122.071 31.8566 122.499 32.0358 122.964 32.149C123.436 32.2559 123.907 32.3093 124.379 32.3093C125.102 32.3093 125.728 32.2024 126.256 31.9886C126.79 31.7749 127.202 31.4762 127.491 31.0926C127.787 30.7027 127.935 30.25 127.935 29.7344Z" fill="white"/>
<path d="M136.282 27.5178H132.368V26.5274H136.282C137.1 26.5274 137.763 26.3954 138.272 26.1313C138.788 25.8609 139.162 25.4962 139.395 25.0371C139.634 24.5781 139.753 24.0625 139.753 23.4903C139.753 22.9306 139.634 22.415 139.395 21.9434C139.162 21.4718 138.788 21.0945 138.272 20.8115C137.763 20.5223 137.1 20.3777 136.282 20.3777H132.773V33.1111H131.613V19.3778H136.282C137.288 19.3778 138.134 19.5508 138.819 19.8966C139.511 20.2425 140.033 20.7235 140.385 21.3397C140.737 21.956 140.913 22.6665 140.913 23.4714C140.913 24.314 140.737 25.0403 140.385 25.6502C140.033 26.2539 139.514 26.7161 138.829 27.0368C138.144 27.3575 137.295 27.5178 136.282 27.5178Z" fill="white"/>
<path d="M153.656 25.5088V26.9802C153.656 27.9423 153.531 28.8132 153.279 29.5929C153.034 30.3663 152.675 31.0297 152.204 31.5831C151.738 32.1364 151.179 32.5609 150.525 32.8564C149.871 33.1519 149.135 33.2997 148.318 33.2997C147.519 33.2997 146.79 33.1519 146.129 32.8564C145.475 32.5609 144.913 32.1364 144.441 31.5831C143.969 31.0297 143.605 30.3663 143.347 29.5929C143.089 28.8132 142.96 27.9423 142.96 26.9802V25.5088C142.96 24.5467 143.086 23.6789 143.337 22.9055C143.595 22.1258 143.96 21.4592 144.432 20.9059C144.903 20.3525 145.466 19.9281 146.12 19.6325C146.774 19.337 147.5 19.1892 148.299 19.1892C149.116 19.1892 149.852 19.337 150.506 19.6325C151.16 19.9281 151.723 20.3525 152.194 20.9059C152.666 21.4592 153.027 22.1258 153.279 22.9055C153.531 23.6789 153.656 24.5467 153.656 25.5088ZM152.506 26.9802V25.4899C152.506 24.6787 152.411 23.9493 152.223 23.3016C152.04 22.654 151.767 22.1006 151.402 21.6416C151.044 21.1825 150.603 20.8304 150.081 20.5852C149.56 20.3399 148.965 20.2173 148.299 20.2173C147.651 20.2173 147.069 20.3399 146.554 20.5852C146.038 20.8304 145.598 21.1825 145.233 21.6416C144.875 22.1006 144.598 22.654 144.403 23.3016C144.215 23.9493 144.12 24.6787 144.12 25.4899V26.9802C144.12 27.7976 144.215 28.5333 144.403 29.1873C144.598 29.835 144.878 30.3915 145.243 30.8568C145.607 31.3158 146.048 31.668 146.563 31.9132C147.085 32.1584 147.67 32.281 148.318 32.281C148.991 32.281 149.585 32.1584 150.1 31.9132C150.616 31.668 151.053 31.3158 151.411 30.8568C151.77 30.3915 152.04 29.835 152.223 29.1873C152.411 28.5333 152.506 27.7976 152.506 26.9802Z" fill="white"/>
<path d="M166.814 19.3778V33.1111H165.645L157.75 21.3775V33.1111H156.59V19.3778H157.75L165.663 31.1115V19.3778H166.814Z" fill="white"/>
<path d="M171.738 19.3778V33.1111H170.578V19.3778H171.738ZM170.493 18.246L172.294 15.605H173.652L171.474 18.246H170.493Z" fill="white"/>
<path d="M179.765 31.4039L184.094 19.3778H185.358L180.246 33.1111H179.312L179.765 31.4039ZM175.294 19.3778L179.604 31.4039L180.076 33.1111H179.133L174.03 19.3778H175.294Z" fill="white"/>
<path d="M195.931 32.1207V33.1111H188.206V32.1207H195.931ZM188.555 19.3778V33.1111H187.395V19.3778H188.555ZM194.969 25.537V26.5274H188.206V25.537H194.969ZM195.884 19.3778V20.3777H188.206V19.3778H195.884Z" fill="white"/>
<path d="M206.335 32.1207V33.1111H199.214V32.1207H206.335ZM199.553 19.3778V33.1111H198.393V19.3778H199.553Z" fill="white"/>
<path d="M223.52 19.3778V33.1111H222.351L214.456 21.3775V33.1111H213.296V19.3778H214.456L222.37 31.1115V19.3778H223.52Z" fill="white"/>
<path d="M237.169 25.5088V26.9802C237.169 27.9423 237.043 28.8132 236.791 29.5929C236.546 30.3663 236.188 31.0297 235.716 31.5831C235.251 32.1364 234.691 32.5609 234.037 32.8564C233.383 33.1519 232.648 33.2997 231.83 33.2997C231.031 33.2997 230.302 33.1519 229.642 32.8564C228.988 32.5609 228.425 32.1364 227.953 31.5831C227.482 31.0297 227.117 30.3663 226.859 29.5929C226.602 28.8132 226.473 27.9423 226.473 26.9802V25.5088C226.473 24.5467 226.598 23.6789 226.85 22.9055C227.108 22.1258 227.472 21.4592 227.944 20.9059C228.416 20.3525 228.978 19.9281 229.632 19.6325C230.286 19.337 231.013 19.1892 231.811 19.1892C232.629 19.1892 233.364 19.337 234.018 19.6325C234.672 19.9281 235.235 20.3525 235.707 20.9059C236.178 21.4592 236.54 22.1258 236.791 22.9055C237.043 23.6789 237.169 24.5467 237.169 25.5088ZM236.018 26.9802V25.4899C236.018 24.6787 235.924 23.9493 235.735 23.3016C235.553 22.654 235.279 22.1006 234.914 21.6416C234.556 21.1825 234.116 20.8304 233.594 20.5852C233.072 20.3399 232.478 20.2173 231.811 20.2173C231.164 20.2173 230.582 20.3399 230.066 20.5852C229.551 20.8304 229.11 21.1825 228.746 21.6416C228.387 22.1006 228.111 22.654 227.916 23.3016C227.727 23.9493 227.633 24.6787 227.633 25.4899V26.9802C227.633 27.7976 227.727 28.5333 227.916 29.1873C228.111 29.835 228.39 30.3915 228.755 30.8568C229.12 31.3158 229.56 31.668 230.076 31.9132C230.598 32.1584 231.182 32.281 231.83 32.281C232.503 32.281 233.097 32.1584 233.613 31.9132C234.128 31.668 234.565 31.3158 234.924 30.8568C235.282 30.3915 235.553 29.835 235.735 29.1873C235.924 28.5333 236.018 27.7976 236.018 26.9802Z" fill="white"/>
<defs>
<linearGradient id="paint0_linear_21_209" x1="53.2889" y1="21.4016" x2="12.2638" y2="62.4243" gradientUnits="userSpaceOnUse">
<stop stop-color="#00A0FF"/>
<stop offset="0.007" stop-color="#00A1FF"/>
<stop offset="0.26" stop-color="#00BEFF"/>
<stop offset="0.512" stop-color="#00D2FF"/>
<stop offset="0.76" stop-color="#00DFFF"/>
<stop offset="1" stop-color="#00E3FF"/>
</linearGradient>
<linearGradient id="paint1_linear_21_209" x1="82.7054" y1="49.002" x2="23.5571" y2="49.002" gradientUnits="userSpaceOnUse">
<stop stop-color="#FFE000"/>
<stop offset="0.409" stop-color="#FFBD00"/>
<stop offset="0.775" stop-color="#FFA500"/>
<stop offset="1" stop-color="#FF9C00"/>
</linearGradient>
<linearGradient id="paint2_linear_21_209" x1="60.6883" y1="54.6124" x2="5.05759" y2="110.243" gradientUnits="userSpaceOnUse">
<stop stop-color="#FF3A44"/>
<stop offset="1" stop-color="#C31162"/>
</linearGradient>
<linearGradient id="paint3_linear_21_209" x1="17.8371" y1="0.541065" x2="42.68" y2="25.384" gradientUnits="userSpaceOnUse">
<stop stop-color="#32A071"/>
<stop offset="0.069" stop-color="#2DA771"/>
<stop offset="0.476" stop-color="#15CF74"/>
<stop offset="0.801" stop-color="#06E775"/>
<stop offset="1" stop-color="#00F076"/>
</linearGradient>
</defs>
</svg>
