<svg width="85" height="85" viewBox="0 0 85 85" fill="none" xmlns="http://www.w3.org/2000/svg">
<rect width="85" height="85" rx="10" fill="white"/>
<path d="M12.6518 34.8975C12.6506 34.9321 12.6506 34.9733 12.6506 35.0555V35.3621C12.6506 35.4444 12.6506 35.4855 12.6518 35.5201C12.6906 36.5517 13.5672 37.3794 14.6597 37.4164C14.6966 37.4176 14.7402 37.4176 14.8278 37.4176C14.9149 37.4176 14.9584 37.4176 14.9948 37.4164C16.0879 37.3794 16.9651 36.5517 17.0032 35.5201C17.005 35.4855 17.005 35.4444 17.005 35.3621V35.0555C17.005 34.9733 17.005 34.9321 17.0032 34.8975C16.9651 33.8659 16.0879 33.0376 14.9954 33.0012C14.9584 33 14.9149 33 14.8278 33C14.7402 33 14.6966 33 14.6597 33.0012C13.5672 33.0376 12.6906 33.8659 12.6518 34.8975ZM41.1749 42.2133V50.6699C41.1749 52.1404 41.7426 52.8029 43.5352 52.8029C44.286 52.8029 45.0242 52.5942 45.4661 52.4368V55.8448C44.7147 56.0971 43.5662 56.2235 42.6264 56.2235C38.8588 56.2235 37.0727 54.3361 37.0727 51.0736V34.0096H41.1749V39.4368H45.4661V42.2139H41.1749V42.2133Z" fill="#101010"/>
<path fill-rule="evenodd" clip-rule="evenodd" d="M46.8544 47.3537C46.8544 42.3445 50.0131 38.9323 55.0682 38.9323C60.4692 38.9323 63.1461 42.8729 62.8635 48.5869H51.0686C51.2821 51.5185 52.6579 53.0051 55.0945 53.0051C57.1542 53.0051 58.2473 52.0116 58.7184 50.6067H62.7257C61.9469 54.0511 59.2193 56.2235 55.0688 56.2235C49.944 56.2235 46.8544 52.8435 46.8544 47.7699V47.3531V47.3537ZM55.0372 42.2151C52.789 42.2151 51.4455 43.4185 51.0686 45.811L58.7434 45.7478C58.5228 43.5157 57.317 42.2151 55.0372 42.2151Z" fill="#101010"/>
<path d="M28.8375 38.9323C26.1993 38.9323 24.5713 40.4911 23.7567 42.0243L23.5677 39.4368H19.6558V55.7184H23.7573V46.5677C23.7573 43.8669 25.1897 42.2139 27.3544 42.2139C29.5191 42.2139 30.3205 43.6463 30.3205 46.1258V55.7184H34.4221V45.2427C34.4287 41.608 32.8508 38.9323 28.8375 38.9323ZM69.2573 42.0243C70.2985 39.986 72.425 38.9323 74.022 38.9323C74.3059 38.9323 74.7537 38.9699 75 39.0265V42.2139C74.6037 42.1737 74.2057 42.1526 73.8073 42.1507C70.8919 42.1507 69.2573 43.9051 69.2573 46.8838V55.7184H65.1546V39.4368H69.1303L69.2567 42.0243H69.2573ZM10 39.4368V42.2103H12.7753V55.7184H16.8787V39.4368H10Z" fill="#101010"/>
</svg>
