<svg width="85" height="85" viewBox="0 0 85 85" fill="none" xmlns="http://www.w3.org/2000/svg">
<rect width="85" height="85" rx="10" fill="white"/>
<path fill-rule="evenodd" clip-rule="evenodd" d="M68.6203 47.0269H63.3595L61.19 51.0885H64.8779L68.6203 47.0269ZM72.1186 53.6275H66.9933V64.5295C66.9933 67.8699 64.7148 68.8317 63.0344 68.8317C61.4337 68.8317 59.6708 68.2436 59.6984 65.3305V53.6271H54.5731L54.5458 66.0522C54.5458 70.8615 57.3398 72.9992 61.1904 72.9992C63.8746 73.0261 65.9635 71.8766 67.1292 69.8464H67.1833V72.492H72.119V53.6275H72.1186ZM50.5588 58.6237C50.5588 53.9478 45.5698 53.1195 42.8034 53.1195C38.8169 53.1195 34.6676 53.9478 34.0439 59.7194H39.0065C39.1692 58.6241 39.6302 57.1006 42.1793 57.1006C43.5081 57.1006 45.5698 57.2081 45.5698 59.2924C45.5698 60.3608 44.566 60.682 43.7523 60.7886L39.1424 61.4565C35.861 61.9112 33.4205 63.8079 33.4205 67.4959C33.4205 71.3967 36.4579 73 39.3593 73C42.8848 73 44.5387 71.4236 45.678 70.275C45.7862 71.3174 45.8676 71.5844 46.1662 72.4929L50.5865 72.466C50.5865 70.3816 50.5592 68.8586 50.5592 68.8321L50.5588 58.6237ZM28.7016 47.0269H23.5763V53.6002H20.9186V57.1543H23.549V68.6176C23.549 71.0487 24.3355 72.7061 28.783 72.7061H29.4613C30.2746 72.7061 31.0879 72.652 31.8748 72.6259V68.8578C31.5221 68.8846 31.1429 68.9379 30.817 68.9379C28.7289 68.9379 28.6744 68.5102 28.6744 67.3876L28.7016 57.1539H31.9017V53.5998H28.7016V47.0269ZM18.5595 47H13.0273L13 72.4656H18.5323L18.5595 47Z" fill="#101010"/>
<path fill-rule="evenodd" clip-rule="evenodd" d="M45.5 65.8537V63.4048C44.9983 63.8082 44.1532 64.1309 42.095 64.4273C40.2213 64.75 38.6904 65.2346 38.6904 67.3075C38.6904 69.0299 40.0629 69.5953 41.0128 69.5953C43.2302 69.5957 45.5 68.1689 45.5 65.8537Z" fill="white"/>
</svg>
