<svg width="370" height="61" viewBox="0 0 370 61" fill="none" xmlns="http://www.w3.org/2000/svg">
<path d="M54.9296 28.0558C54.9296 12.561 42.6333 1.03674e-05 27.4649 1.03674e-05C12.2966 1.03674e-05 0 12.561 0 28.0558C0 36.2747 3.46019 43.6673 8.97306 48.7987V39.3997C8.97306 38.7558 9.10153 38.1392 9.33479 37.5781C9.27485 37.7306 9.24207 37.898 9.24207 38.0755C9.24207 38.3614 9.32978 38.6259 9.47761 38.8451V38.3888C9.47761 37.7449 9.60858 37.1277 9.84593 36.5666C9.7851 36.7191 9.75163 36.8871 9.75163 37.064L9.7532 37.0789C10.4446 35.536 11.9341 34.45 13.6843 34.3637C14.7428 27.5202 16.3672 20.7709 18.5584 14.1938C23.7187 15.9886 28.8761 17.7805 34.0364 19.5724C32.5395 24.0688 31.3469 28.6563 30.4629 33.3021C30.2833 34.2296 30.1188 35.1577 29.9695 36.0918C29.8412 36.865 29.7264 37.6418 29.6173 38.4192H30.9102C31.0175 37.6418 31.13 36.865 31.2577 36.0918C31.4041 35.1732 31.565 34.2541 31.7388 33.3414C32.6258 28.6163 33.8364 23.9526 35.3573 19.38C31.2904 17.97 27.2293 16.5599 23.16 15.1463C23.5065 14.4321 23.8593 13.7268 24.2208 13.0221C29.0493 15.6044 33.8778 18.1892 38.7069 20.7692C36.6093 24.8527 34.7864 29.0715 33.2416 33.3903C32.9156 34.285 32.6083 35.1851 32.3121 36.0918C32.0584 36.865 31.8164 37.6412 31.5825 38.4192H32.9197C33.1547 37.6406 33.3967 36.8638 33.651 36.0918C33.9408 35.2006 34.2458 34.3124 34.5654 33.4302C36.1101 29.1048 37.9389 24.8807 40.0365 20.7906C36.2326 18.7545 32.4258 16.7184 28.6219 14.6823C29.0732 14.0354 29.5304 13.3914 29.9934 12.7534C34.3741 16.0649 38.7547 19.377 43.1383 22.6885C40.6342 26.1442 38.3424 29.7488 36.2775 33.482C35.7993 34.3458 35.3334 35.2155 34.882 36.0918C34.4814 36.8614 34.0959 37.6388 33.7186 38.4192H35.1444C35.5258 37.6388 35.9148 36.8614 36.3166 36.0918C36.7644 35.231 37.2216 34.3762 37.6998 33.5279C39.7315 29.862 41.9877 26.3181 44.4498 22.9179C40.9987 20.3081 37.5441 17.6953 34.093 15.0885C34.6371 14.5208 35.1841 13.9561 35.7398 13.3974C38.0205 15.7587 40.303 18.1183 42.5848 20.4791C40.4546 18.275 38.3243 16.0709 36.1953 13.8644C36.3055 13.7518 36.4151 13.6398 36.5288 13.5272C40.3549 17.4898 44.185 21.4489 48.0151 25.4073C45.1688 28.2792 42.4945 31.3167 40.0009 34.4989C40.6552 34.7592 41.12 35.4044 41.12 36.1657V52.3944C49.3698 47.5537 54.9296 38.471 54.9296 28.0558Z" fill="url(#paint0_linear_25_2)"/>
<path d="M54.9296 28.0558C54.9296 12.561 42.6333 1.03674e-05 27.4649 1.03674e-05C12.2966 1.03674e-05 0 12.561 0 28.0558C0 36.2747 3.46019 43.6673 8.97306 48.7987V39.3997C8.97306 38.7558 9.10153 38.1392 9.33479 37.5781C9.27485 37.7306 9.24207 37.898 9.24207 38.0755C9.24207 38.3614 9.32978 38.6259 9.47761 38.8451V38.3888C9.47761 37.7449 9.60858 37.1277 9.84593 36.5666C9.7851 36.7191 9.75163 36.8871 9.75163 37.064L9.7532 37.0789C10.4446 35.536 11.9341 34.45 13.6843 34.3637C14.7428 27.5202 16.3672 20.7709 18.5584 14.1938C23.7187 15.9886 28.8761 17.7805 34.0364 19.5724C32.5395 24.0688 31.3469 28.6563 30.4629 33.3021C30.2833 34.2296 30.1188 35.1577 29.9695 36.0918C29.8412 36.865 29.7264 37.6418 29.6173 38.4192H30.9102C31.0175 37.6418 31.13 36.865 31.2577 36.0918C31.4041 35.1732 31.565 34.2541 31.7388 33.3414C32.6258 28.6163 33.8364 23.9526 35.3573 19.38C31.2904 17.97 27.2293 16.5599 23.16 15.1463C23.5065 14.4321 23.8593 13.7268 24.2208 13.0221C29.0493 15.6044 33.8778 18.1892 38.7069 20.7692C36.6093 24.8527 34.7864 29.0715 33.2416 33.3903C32.9156 34.285 32.6083 35.1851 32.3121 36.0918C32.0584 36.865 31.8164 37.6412 31.5825 38.4192H32.9197C33.1547 37.6406 33.3967 36.8638 33.651 36.0918C33.9408 35.2006 34.2458 34.3124 34.5654 33.4302C36.1101 29.1048 37.9389 24.8807 40.0365 20.7906C36.2326 18.7545 32.4258 16.7184 28.6219 14.6823C29.0732 14.0354 29.5304 13.3914 29.9934 12.7534C34.3741 16.0649 38.7547 19.377 43.1383 22.6885C40.6342 26.1442 38.3424 29.7488 36.2775 33.482C35.7993 34.3458 35.3334 35.2155 34.882 36.0918C34.4814 36.8614 34.0959 37.6388 33.7186 38.4192H35.1444C35.5258 37.6388 35.9148 36.8614 36.3166 36.0918C36.7644 35.231 37.2216 34.3762 37.6998 33.5279C39.7315 29.862 41.9877 26.3181 44.4498 22.9179C40.9987 20.3081 37.5441 17.6953 34.093 15.0885C34.6371 14.5208 35.1841 13.9561 35.7398 13.3974C38.0205 15.7587 40.303 18.1183 42.5848 20.4791C40.4546 18.275 38.3243 16.0709 36.1953 13.8644C36.3055 13.7518 36.4151 13.6398 36.5288 13.5272C40.3549 17.4898 44.185 21.4489 48.0151 25.4073C45.1688 28.2792 42.4945 31.3167 40.0009 34.4989C40.6552 34.7592 41.12 35.4044 41.12 36.1657V52.3944C49.3698 47.5537 54.9296 38.471 54.9296 28.0558Z" fill="url(#paint1_linear_25_2)"/>
<path d="M45.2371 22.9223L45.3103 22.8199C45.0972 22.6556 44.8804 22.4957 44.6679 22.332C45.553 23.252 46.4376 24.1727 47.3227 25.0921C44.9495 27.4977 42.6956 30.0178 40.5634 32.6391C42.6968 30.0178 44.9507 27.4977 47.3239 25.0915C46.626 24.3672 45.9315 23.6466 45.2371 22.9223Z" fill="url(#paint2_linear_25_2)"/>
<path d="M45.2371 22.9223L45.3103 22.8199C45.0972 22.6556 44.8804 22.4957 44.6679 22.332C45.553 23.252 46.4376 24.1727 47.3227 25.0921C44.9495 27.4977 42.6956 30.0178 40.5634 32.6391C42.6968 30.0178 44.9507 27.4977 47.3239 25.0915C46.626 24.3672 45.9315 23.6466 45.2371 22.9223Z" fill="url(#paint3_linear_25_2)"/>
<path d="M18.2229 35.557C18.6071 31.7785 21.1015 28.9587 23.7992 29.2647C25.1444 29.4146 26.2833 30.3177 27.0422 31.6505C26.3314 29.83 25.0027 28.5515 23.3725 28.3673C20.6781 28.0606 18.1801 30.881 17.7961 34.6595C17.6488 36.1078 17.8357 37.4843 18.2704 38.6516H18.42C18.1893 37.6998 18.1101 36.648 18.2229 35.557Z" fill="url(#paint4_linear_25_2)"/>
<path d="M18.2229 35.557C18.6071 31.7785 21.1015 28.9587 23.7992 29.2647C25.1444 29.4146 26.2833 30.3177 27.0422 31.6505C26.3314 29.83 25.0027 28.5515 23.3725 28.3673C20.6781 28.0606 18.1801 30.881 17.7961 34.6595C17.6488 36.1078 17.8357 37.4843 18.2704 38.6516H18.42C18.1893 37.6998 18.1101 36.648 18.2229 35.557Z" fill="url(#paint5_linear_25_2)"/>
<path d="M31.2676 19.2608L19.6535 15.4606L16.0563 29.2034L20.1631 16.4515L31.2676 19.2608Z" fill="url(#paint6_linear_25_2)"/>
<path d="M31.2676 19.2608L19.6535 15.4606L16.0563 29.2034L20.1631 16.4515L31.2676 19.2608Z" fill="url(#paint7_linear_25_2)"/>
<path d="M45.3894 23.1004L45.317 23.1994C46.0035 23.8991 46.6899 24.5953 47.3798 25.295C45.034 27.6197 42.806 30.0544 40.6971 32.5869C40.2441 33.132 39.7958 33.6801 39.354 34.234H39.5122C39.7369 34.234 39.9499 34.2803 40.1472 34.357C42.6431 31.229 45.32 28.2433 48.169 25.4204C44.3353 21.5294 40.5015 17.6378 36.6719 13.7428C36.5581 13.8535 36.4483 13.9635 36.338 14.0742C38.4691 16.2431 40.6013 18.4096 42.7336 20.5761C43.4072 21.2606 44.0808 21.9451 44.7544 22.6291C44.9645 22.7872 45.1787 22.9417 45.3894 23.1004Z" fill="url(#paint8_linear_25_2)"/>
<path d="M45.3894 23.1004L45.317 23.1994C46.0035 23.8991 46.6899 24.5953 47.3798 25.295C45.034 27.6197 42.806 30.0544 40.6971 32.5869C40.2441 33.132 39.7958 33.6801 39.354 34.234H39.5122C39.7369 34.234 39.9499 34.2803 40.1472 34.357C42.6431 31.229 45.32 28.2433 48.169 25.4204C44.3353 21.5294 40.5015 17.6378 36.6719 13.7428C36.5581 13.8535 36.4483 13.9635 36.338 14.0742C38.4691 16.2431 40.6013 18.4096 42.7336 20.5761C43.4072 21.2606 44.0808 21.9451 44.7544 22.6291C44.9645 22.7872 45.1787 22.9417 45.3894 23.1004Z" fill="url(#paint9_linear_25_2)"/>
<path d="M45.3894 23.1004L45.317 23.1994C46.0035 23.8991 46.6899 24.5953 47.3798 25.295C45.034 27.6197 42.806 30.0544 40.6971 32.5869C40.2441 33.132 39.7958 33.6801 39.354 34.234H39.5122C39.7369 34.234 39.9499 34.2803 40.1472 34.357C42.6431 31.229 45.32 28.2433 48.169 25.4204C44.3353 21.5294 40.5015 17.6378 36.6719 13.7428C36.5581 13.8535 36.4483 13.9635 36.338 14.0742C38.4691 16.2431 40.6013 18.4096 42.7336 20.5761C43.4072 21.2606 44.0808 21.9451 44.7544 22.6291C44.9645 22.7872 45.1787 22.9417 45.3894 23.1004Z" fill="url(#paint10_linear_25_2)"/>
<path d="M39.2611 34.4001C39.6895 33.8079 40.1242 33.2219 40.5634 32.6391C39.6607 33.8354 38.7778 35.05 37.9215 36.287C37.3827 37.0658 36.8576 37.8559 36.338 38.6516H37.1903C37.681 37.9028 38.1785 37.1591 38.6867 36.4254C39.1276 35.7881 39.5769 35.1583 40.0302 34.5316C39.839 34.4496 39.6324 34.4001 39.4145 34.4001H39.2611Z" fill="url(#paint11_linear_25_2)"/>
<path d="M39.2611 34.4001C39.6895 33.8079 40.1242 33.2219 40.5634 32.6391C39.6607 33.8354 38.7778 35.05 37.9215 36.287C37.3827 37.0658 36.8576 37.8559 36.338 38.6516H37.1903C37.681 37.9028 38.1785 37.1591 38.6867 36.4254C39.1276 35.7881 39.5769 35.1583 40.0302 34.5316C39.839 34.4496 39.6324 34.4001 39.4145 34.4001H39.2611Z" fill="url(#paint12_linear_25_2)"/>
<path d="M44.7888 22.332C43.9437 21.7597 43.0986 21.187 42.2535 20.6142C43.0964 21.1855 43.9378 21.7573 44.7814 22.3286L44.7888 22.332Z" fill="url(#paint13_linear_25_2)"/>
<path d="M44.7888 22.332C43.9437 21.7597 43.0986 21.187 42.2535 20.6142C43.0964 21.1855 43.9378 21.7573 44.7814 22.3286L44.7888 22.332Z" fill="url(#paint14_linear_25_2)"/>
<path d="M38.1208 60.2515C38.1208 60.5112 38.0866 60.7571 38.0282 60.9836C38.5204 60.7103 38.8733 59.9958 38.8733 59.1473V56.689H38.1208V60.2515Z" fill="url(#paint15_linear_25_2)"/>
<path d="M38.1208 60.2515C38.1208 60.5112 38.0866 60.7571 38.0282 60.9836C38.5204 60.7103 38.8733 59.9958 38.8733 59.1473V56.689H38.1208V60.2515Z" fill="url(#paint16_linear_25_2)"/>
<path d="M32.9578 39.4853L34.8791 39.5105H34.8823C35.0816 39.2227 35.2889 38.9377 35.493 38.6516H33.5437C33.3476 38.9293 33.1483 39.2065 32.9578 39.4853Z" fill="url(#paint17_linear_25_2)"/>
<path d="M31.2676 39.4877H31.2694L32.6782 39.5105C32.7679 39.2234 32.8643 38.9381 32.9577 38.6516H31.5397C31.4488 38.9299 31.3554 39.2077 31.2676 39.4872V39.4877Z" fill="url(#paint18_linear_25_2)"/>
<path d="M31.2676 39.4877H31.2694L32.6782 39.5105C32.7679 39.2234 32.8643 38.9381 32.9577 38.6516H31.5397C31.4488 38.9299 31.3554 39.2077 31.2676 39.4872V39.4877Z" fill="url(#paint19_linear_25_2)"/>
<path d="M31.2676 39.4877H31.2694L32.6782 39.5105C32.7679 39.2234 32.8643 38.9381 32.9577 38.6516H31.5397C31.4488 38.9299 31.3554 39.2077 31.2676 39.4872V39.4877Z" fill="#15BFB1"/>
<path d="M9.52119 38.6516H10.9859C10.1286 38.6516 9.43583 38.0256 9.43583 37.2555C9.43583 37.0732 9.47421 36.9001 9.54434 36.7424L9.57241 36.689L9.6185 36.6025L9.61666 36.5872C9.61666 36.4049 9.65586 36.2319 9.72709 36.0748C9.44915 36.6528 9.29578 37.2886 9.29578 37.952V38.422C9.36086 38.5061 9.43768 38.5816 9.52119 38.6516Z" fill="url(#paint20_linear_25_2)"/>
<path d="M9.52119 38.6516H10.9859C10.1286 38.6516 9.43583 38.0256 9.43583 37.2555C9.43583 37.0732 9.47421 36.9001 9.54434 36.7424L9.57241 36.689L9.6185 36.6025L9.61666 36.5872C9.61666 36.4049 9.65586 36.2319 9.72709 36.0748C9.44915 36.6528 9.29578 37.2886 9.29578 37.952V38.422C9.36086 38.5061 9.43768 38.5816 9.52119 38.6516Z" fill="url(#paint21_linear_25_2)"/>
<path d="M9.52119 38.6516H10.9859C10.1286 38.6516 9.43583 38.0256 9.43583 37.2555C9.43583 37.0732 9.47421 36.9001 9.54434 36.7424L9.57241 36.689L9.6185 36.6025L9.61666 36.5872C9.61666 36.4049 9.65586 36.2319 9.72709 36.0748C9.44915 36.6528 9.29578 37.2886 9.29578 37.952V38.422C9.36086 38.5061 9.43768 38.5816 9.52119 38.6516Z" fill="url(#paint22_linear_25_2)"/>
<path d="M38.8732 40.3734C38.8732 39.4226 38.1468 38.6516 37.2496 38.6516H36.9824C36.7655 38.9744 36.5512 39.299 36.338 39.6247C37.2125 39.6333 37.9188 40.3997 37.9188 41.3448V46.1473H38.4325V54.3753H37.9188V56.689H38.8732V40.3734Z" fill="url(#paint23_linear_25_2)"/>
<path d="M38.8732 40.3734C38.8732 39.4226 38.1468 38.6516 37.2496 38.6516H36.9824C36.7655 38.9744 36.5512 39.299 36.338 39.6247C37.2125 39.6333 37.9188 40.3997 37.9188 41.3448V46.1473H38.4325V54.3753H37.9188V56.689H38.8732V40.3734Z" fill="url(#paint24_linear_25_2)"/>
<path d="M9.38998 37.0825C9.32909 37.2503 9.29578 37.4343 9.29578 37.6282C9.29578 38.4473 9.89718 39.113 10.6415 39.113H9.36988C9.60958 39.3578 9.92777 39.5105 10.2805 39.5105H35.6343L35.6788 39.41C35.8958 39.0712 36.1181 38.7377 36.338 38.4023H35.2685C35.1167 38.7364 34.9626 39.0693 34.8144 39.4054H34.812L33.3832 39.376C33.5249 39.0504 33.6731 38.7266 33.819 38.4023H33.0067C32.9172 38.7227 32.8247 39.0419 32.7388 39.363L31.3882 39.3375H31.3864V39.3369C31.4706 39.0243 31.5601 38.7136 31.6473 38.4023H30.9637C30.9246 38.7097 30.8831 39.0171 30.8463 39.3251H30.8451L29.5337 39.2951C29.5699 38.9975 29.6108 38.6999 29.6493 38.4023H18.4965C18.581 38.7671 18.6848 39.1189 18.8087 39.4524C18.6322 39.1261 18.4791 38.7736 18.3469 38.4023H10.8238C10.0707 38.4023 9.46249 37.745 9.45437 36.9337L9.41435 37.0257L9.38998 37.0825Z" fill="url(#paint25_linear_25_2)"/>
<path d="M9.38998 37.0825C9.32909 37.2503 9.29578 37.4343 9.29578 37.6282C9.29578 38.4473 9.89718 39.113 10.6415 39.113H9.36988C9.60958 39.3578 9.92777 39.5105 10.2805 39.5105H35.6343L35.6788 39.41C35.8958 39.0712 36.1181 38.7377 36.338 38.4023H35.2685C35.1167 38.7364 34.9626 39.0693 34.8144 39.4054H34.812L33.3832 39.376C33.5249 39.0504 33.6731 38.7266 33.819 38.4023H33.0067C32.9172 38.7227 32.8247 39.0419 32.7388 39.363L31.3882 39.3375H31.3864V39.3369C31.4706 39.0243 31.5601 38.7136 31.6473 38.4023H30.9637C30.9246 38.7097 30.8831 39.0171 30.8463 39.3251H30.8451L29.5337 39.2951C29.5699 38.9975 29.6108 38.6999 29.6493 38.4023H18.4965C18.581 38.7671 18.6848 39.1189 18.8087 39.4524C18.6322 39.1261 18.4791 38.7736 18.3469 38.4023H10.8238C10.0707 38.4023 9.46249 37.745 9.45437 36.9337L9.41435 37.0257L9.38998 37.0825Z" fill="url(#paint26_linear_25_2)"/>
<path d="M35.54 39.4317L35.4929 39.5095H36.4029L36.4186 39.5105C36.6716 39.223 36.9257 38.9365 37.1831 38.6516H36.2379C36.005 38.9113 35.7697 39.1695 35.54 39.4317Z" fill="url(#paint27_linear_25_2)"/>
<path d="M35.54 39.4317L35.4929 39.5095H36.4029L36.4186 39.5105C36.6716 39.223 36.9257 38.9365 37.1831 38.6516H36.2379C36.005 38.9113 35.7697 39.1695 35.54 39.4317Z" fill="url(#paint28_linear_25_2)"/>
<path d="M35.54 39.4317L35.4929 39.5095H36.4029L36.4186 39.5105C36.6716 39.223 36.9257 38.9365 37.1831 38.6516H36.2379C36.005 38.9113 35.7697 39.1695 35.54 39.4317Z" fill="url(#paint29_linear_25_2)"/>
<path d="M38.0282 54.1122H38.8733V46.3819H38.0282V54.1122Z" fill="url(#paint30_linear_25_2)"/>
<path d="M38.0282 54.1122H38.8733V46.3819H38.0282V54.1122Z" fill="url(#paint31_linear_25_2)"/>
<path d="M33.7384 46.3819C31.4406 46.3819 29.5775 48.1125 29.5775 50.2471C29.5775 52.3821 31.4406 54.1122 33.7384 54.1122H38.8732V46.3819H33.7384Z" fill="url(#paint32_linear_25_2)"/>
<path d="M33.7384 46.3819C31.4406 46.3819 29.5775 48.1125 29.5775 50.2471C29.5775 52.3821 31.4406 54.1122 33.7384 54.1122H38.8732V46.3819H33.7384Z" fill="url(#paint33_linear_25_2)"/>
<path d="M75.032 38.3659C73.784 38.3659 72.624 38.1579 71.552 37.7419C70.496 37.3099 69.576 36.7099 68.792 35.9419C68.008 35.1739 67.4 34.2779 66.968 33.2539C66.536 32.2139 66.32 31.0779 66.32 29.8459C66.32 28.6139 66.536 27.4859 66.968 26.4619C67.4 25.4219 68.008 24.5179 68.792 23.7499C69.592 22.9819 70.52 22.3899 71.576 21.9739C72.632 21.5419 73.784 21.3259 75.032 21.3259C76.216 21.3259 77.32 21.5179 78.344 21.9019C79.384 22.2859 80.272 22.8699 81.008 23.6539L80.24 24.4459C79.52 23.7419 78.72 23.2379 77.84 22.9339C76.976 22.6139 76.056 22.4539 75.08 22.4539C74.008 22.4539 73.008 22.6379 72.08 23.0059C71.168 23.3739 70.368 23.8939 69.68 24.5659C69.008 25.2379 68.48 26.0219 68.096 26.9179C67.728 27.8139 67.544 28.7899 67.544 29.8459C67.544 30.9019 67.728 31.8779 68.096 32.7739C68.48 33.6699 69.008 34.4539 69.68 35.1259C70.368 35.7979 71.168 36.3179 72.08 36.6859C73.008 37.0539 74.008 37.2379 75.08 37.2379C76.056 37.2379 76.976 37.0859 77.84 36.7819C78.72 36.4619 79.52 35.9419 80.24 35.2219L81.008 36.0139C80.272 36.7979 79.384 37.3899 78.344 37.7899C77.32 38.1739 76.216 38.3659 75.032 38.3659ZM91.8841 38.3659C90.6361 38.3659 89.4761 38.1579 88.4041 37.7419C87.3481 37.3099 86.4201 36.7099 85.6201 35.9419C84.8361 35.1579 84.2281 34.2539 83.7961 33.2299C83.3641 32.1899 83.1481 31.0619 83.1481 29.8459C83.1481 28.6299 83.3641 27.5099 83.7961 26.4859C84.2281 25.4459 84.8361 24.5419 85.6201 23.7739C86.4201 22.9899 87.3481 22.3899 88.4041 21.9739C89.4761 21.5419 90.6361 21.3259 91.8841 21.3259C93.1321 21.3259 94.2841 21.5419 95.3401 21.9739C96.4121 22.3899 97.3401 22.9819 98.1241 23.7499C98.9081 24.5179 99.5161 25.4219 99.9481 26.4619C100.396 27.4859 100.62 28.6139 100.62 29.8459C100.62 31.0779 100.396 32.2139 99.9481 33.2539C99.5161 34.2779 98.9081 35.1739 98.1241 35.9419C97.3401 36.7099 96.4121 37.3099 95.3401 37.7419C94.2841 38.1579 93.1321 38.3659 91.8841 38.3659ZM91.8841 37.2379C92.9561 37.2379 93.9481 37.0539 94.8601 36.6859C95.7721 36.3179 96.5641 35.7979 97.2361 35.1259C97.9081 34.4539 98.4281 33.6699 98.7961 32.7739C99.1801 31.8779 99.3721 30.9019 99.3721 29.8459C99.3721 28.7739 99.1801 27.7979 98.7961 26.9179C98.4281 26.0219 97.9081 25.2379 97.2361 24.5659C96.5641 23.8939 95.7721 23.3739 94.8601 23.0059C93.9481 22.6379 92.9561 22.4539 91.8841 22.4539C90.8121 22.4539 89.8201 22.6379 88.9081 23.0059C87.9961 23.3739 87.1961 23.8939 86.5081 24.5659C85.8361 25.2379 85.3081 26.0219 84.9241 26.9179C84.5561 27.7979 84.3721 28.7739 84.3721 29.8459C84.3721 30.9019 84.5561 31.8779 84.9241 32.7739C85.3081 33.6699 85.8361 34.4539 86.5081 35.1259C87.1961 35.7979 87.9961 36.3179 88.9081 36.6859C89.8201 37.0539 90.8121 37.2379 91.8841 37.2379ZM104.866 38.2459V21.4459H105.898L117.874 36.7339H117.322V21.4459H118.546V38.2459H117.538L105.538 22.9579H106.09V38.2459H104.866ZM127.628 38.2459V22.5499H121.58V21.4459H134.9V22.5499H128.852V38.2459H127.628ZM137.936 38.2459V21.4459H143.96C145.368 21.4459 146.576 21.6699 147.584 22.1179C148.592 22.5659 149.368 23.2139 149.912 24.0619C150.456 24.8939 150.728 25.9099 150.728 27.1099C150.728 28.2779 150.456 29.2859 149.912 30.1339C149.368 30.9659 148.592 31.6139 147.584 32.0779C146.576 32.5259 145.368 32.7499 143.96 32.7499H138.608L139.16 32.1739V38.2459H137.936ZM149.6 38.2459L145.232 32.1499H146.624L150.992 38.2459H149.6ZM139.16 32.2459L138.608 31.6699H143.96C145.768 31.6699 147.136 31.2699 148.064 30.4699C149.008 29.6699 149.48 28.5499 149.48 27.1099C149.48 25.6539 149.008 24.5339 148.064 23.7499C147.136 22.9499 145.768 22.5499 143.96 22.5499H138.608L139.16 21.9499V32.2459ZM162.337 38.3659C161.089 38.3659 159.929 38.1579 158.857 37.7419C157.801 37.3099 156.873 36.7099 156.073 35.9419C155.289 35.1579 154.681 34.2539 154.249 33.2299C153.817 32.1899 153.601 31.0619 153.601 29.8459C153.601 28.6299 153.817 27.5099 154.249 26.4859C154.681 25.4459 155.289 24.5419 156.073 23.7739C156.873 22.9899 157.801 22.3899 158.857 21.9739C159.929 21.5419 161.089 21.3259 162.337 21.3259C163.585 21.3259 164.737 21.5419 165.793 21.9739C166.865 22.3899 167.793 22.9819 168.577 23.7499C169.361 24.5179 169.969 25.4219 170.401 26.4619C170.849 27.4859 171.073 28.6139 171.073 29.8459C171.073 31.0779 170.849 32.2139 170.401 33.2539C169.969 34.2779 169.361 35.1739 168.577 35.9419C167.793 36.7099 166.865 37.3099 165.793 37.7419C164.737 38.1579 163.585 38.3659 162.337 38.3659ZM162.337 37.2379C163.409 37.2379 164.401 37.0539 165.313 36.6859C166.225 36.3179 167.017 35.7979 167.689 35.1259C168.361 34.4539 168.881 33.6699 169.249 32.7739C169.633 31.8779 169.825 30.9019 169.825 29.8459C169.825 28.7739 169.633 27.7979 169.249 26.9179C168.881 26.0219 168.361 25.2379 167.689 24.5659C167.017 23.8939 166.225 23.3739 165.313 23.0059C164.401 22.6379 163.409 22.4539 162.337 22.4539C161.265 22.4539 160.273 22.6379 159.361 23.0059C158.449 23.3739 157.649 23.8939 156.961 24.5659C156.289 25.2379 155.761 26.0219 155.377 26.9179C155.009 27.7979 154.825 28.7739 154.825 29.8459C154.825 30.9019 155.009 31.8779 155.377 32.7739C155.761 33.6699 156.289 34.4539 156.961 35.1259C157.649 35.7979 158.449 36.3179 159.361 36.6859C160.273 37.0539 161.265 37.2379 162.337 37.2379ZM175.319 38.2459V21.4459H176.543V37.1419H186.215V38.2459H175.319ZM190.438 29.1739H199.534V30.2539H190.438V29.1739ZM190.582 37.1419H200.95V38.2459H189.358V21.4459H200.59V22.5499H190.582V37.1419Z" fill="white"/>
<path d="M214.873 29.0059H222.937V32.1259H214.873V29.0059ZM215.161 38.2459H211.273V21.4459H223.969V24.5659H215.161V38.2459ZM226.601 38.2459V21.4459H230.489V38.2459H226.601ZM234.476 38.2459V21.4459H237.692L247.604 33.5419H246.044V21.4459H249.884V38.2459H246.692L236.756 26.1499H238.316V38.2459H234.476ZM251.651 38.2459L259.139 21.4459H262.979L270.491 38.2459H266.411L260.267 23.4139H261.803L255.635 38.2459H251.651ZM255.395 34.6459L256.427 31.6939H265.067L266.123 34.6459H255.395ZM272.234 38.2459V21.4459H275.45L285.362 33.5419H283.802V21.4459H287.642V38.2459H284.45L274.514 26.1499H276.074V38.2459H272.234ZM299.657 38.5339C298.361 38.5339 297.153 38.3259 296.033 37.9099C294.929 37.4779 293.969 36.8699 293.153 36.0859C292.337 35.3019 291.697 34.3819 291.233 33.3259C290.785 32.2699 290.561 31.1099 290.561 29.8459C290.561 28.5819 290.785 27.4219 291.233 26.3659C291.697 25.3099 292.337 24.3899 293.153 23.6059C293.985 22.8219 294.953 22.2219 296.057 21.8059C297.161 21.3739 298.369 21.1579 299.681 21.1579C301.137 21.1579 302.449 21.4139 303.617 21.9259C304.801 22.4219 305.793 23.1579 306.593 24.1339L304.097 26.4379C303.521 25.7819 302.881 25.2939 302.177 24.9739C301.473 24.6379 300.705 24.4699 299.873 24.4699C299.089 24.4699 298.369 24.5979 297.713 24.8539C297.057 25.1099 296.489 25.4779 296.009 25.9579C295.529 26.4379 295.153 27.0059 294.881 27.6619C294.625 28.3179 294.497 29.0459 294.497 29.8459C294.497 30.6459 294.625 31.3739 294.881 32.0299C295.153 32.6859 295.529 33.2539 296.009 33.7339C296.489 34.2139 297.057 34.5819 297.713 34.8379C298.369 35.0939 299.089 35.2219 299.873 35.2219C300.705 35.2219 301.473 35.0619 302.177 34.7419C302.881 34.4059 303.521 33.9019 304.097 33.2299L306.593 35.5339C305.793 36.5099 304.801 37.2539 303.617 37.7659C302.449 38.2779 301.129 38.5339 299.657 38.5339ZM312.795 28.2139H320.883V31.2379H312.795V28.2139ZM313.083 35.1259H322.227V38.2459H309.219V21.4459H321.915V24.5659H313.083V35.1259ZM325.32 38.2459V21.4459H329.208V38.2459H325.32ZM333.195 38.2459V21.4459H340.467C341.971 21.4459 343.267 21.6939 344.355 22.1899C345.443 22.6699 346.283 23.3659 346.875 24.2779C347.467 25.1899 347.763 26.2779 347.763 27.5419C347.763 28.7899 347.467 29.8699 346.875 30.7819C346.283 31.6779 345.443 32.3659 344.355 32.8459C343.267 33.3259 341.971 33.5659 340.467 33.5659H335.355L337.083 31.8619V38.2459H333.195ZM343.875 38.2459L339.675 32.1499H343.827L348.075 38.2459H343.875ZM337.083 32.2939L335.355 30.4699H340.251C341.451 30.4699 342.347 30.2139 342.939 29.7019C343.531 29.1739 343.827 28.4539 343.827 27.5419C343.827 26.6139 343.531 25.8939 342.939 25.3819C342.347 24.8699 341.451 24.6139 340.251 24.6139H335.355L337.083 22.7659V32.2939ZM359.004 38.5339C357.676 38.5339 356.444 38.3179 355.308 37.8859C354.188 37.4539 353.212 36.8459 352.38 36.0619C351.564 35.2779 350.924 34.3579 350.46 33.3019C350.012 32.2459 349.788 31.0939 349.788 29.8459C349.788 28.5979 350.012 27.4459 350.46 26.3899C350.924 25.3339 351.572 24.4139 352.404 23.6299C353.236 22.8459 354.212 22.2379 355.332 21.8059C356.452 21.3739 357.668 21.1579 358.98 21.1579C360.308 21.1579 361.524 21.3739 362.628 21.8059C363.748 22.2379 364.716 22.8459 365.532 23.6299C366.364 24.4139 367.012 25.3339 367.476 26.3899C367.94 27.4299 368.172 28.5819 368.172 29.8459C368.172 31.0939 367.94 32.2539 367.476 33.3259C367.012 34.3819 366.364 35.3019 365.532 36.0859C364.716 36.8539 363.748 37.4539 362.628 37.8859C361.524 38.3179 360.316 38.5339 359.004 38.5339ZM358.98 35.2219C359.732 35.2219 360.42 35.0939 361.044 34.8379C361.684 34.5819 362.244 34.2139 362.724 33.7339C363.204 33.2539 363.572 32.6859 363.828 32.0299C364.1 31.3739 364.236 30.6459 364.236 29.8459C364.236 29.0459 364.1 28.3179 363.828 27.6619C363.572 27.0059 363.204 26.4379 362.724 25.9579C362.26 25.4779 361.708 25.1099 361.068 24.8539C360.428 24.5979 359.732 24.4699 358.98 24.4699C358.228 24.4699 357.532 24.5979 356.892 24.8539C356.268 25.1099 355.716 25.4779 355.236 25.9579C354.756 26.4379 354.38 27.0059 354.108 27.6619C353.852 28.3179 353.724 29.0459 353.724 29.8459C353.724 30.6299 353.852 31.3579 354.108 32.0299C354.38 32.6859 354.748 33.2539 355.212 33.7339C355.692 34.2139 356.252 34.5819 356.892 34.8379C357.532 35.0939 358.228 35.2219 358.98 35.2219Z" fill="#00D7C2"/>
<defs>
<linearGradient id="paint0_linear_25_2" x1="5.83151e-05" y1="26.1972" x2="54.9297" y2="26.1972" gradientUnits="userSpaceOnUse">
<stop stop-color="#A8EAFF"/>
<stop offset="1" stop-color="#00B9A7"/>
</linearGradient>
<linearGradient id="paint1_linear_25_2" x1="5.83151e-05" y1="26.1972" x2="54.9297" y2="26.1972" gradientUnits="userSpaceOnUse">
<stop stop-color="#A8EAFF"/>
<stop offset="1" stop-color="#00B9A7"/>
</linearGradient>
<linearGradient id="paint2_linear_25_2" x1="40.5634" y1="27.4856" x2="47.3239" y2="27.4856" gradientUnits="userSpaceOnUse">
<stop stop-color="#A8EAFF"/>
<stop offset="1" stop-color="#00B9A7"/>
</linearGradient>
<linearGradient id="paint3_linear_25_2" x1="40.5634" y1="27.4856" x2="47.3239" y2="27.4856" gradientUnits="userSpaceOnUse">
<stop stop-color="#A8EAFF"/>
<stop offset="1" stop-color="#00B9A7"/>
</linearGradient>
<linearGradient id="paint4_linear_25_2" x1="17.7465" y1="33.498" x2="27.0423" y2="33.498" gradientUnits="userSpaceOnUse">
<stop stop-color="#A8EAFF"/>
<stop offset="1" stop-color="#00B9A7"/>
</linearGradient>
<linearGradient id="paint5_linear_25_2" x1="17.7465" y1="33.498" x2="27.0423" y2="33.498" gradientUnits="userSpaceOnUse">
<stop stop-color="#A8EAFF"/>
<stop offset="1" stop-color="#00B9A7"/>
</linearGradient>
<linearGradient id="paint6_linear_25_2" x1="16.0564" y1="22.332" x2="31.2676" y2="22.332" gradientUnits="userSpaceOnUse">
<stop stop-color="#A8EAFF"/>
<stop offset="1" stop-color="#00B9A7"/>
</linearGradient>
<linearGradient id="paint7_linear_25_2" x1="16.0564" y1="22.332" x2="31.2676" y2="22.332" gradientUnits="userSpaceOnUse">
<stop stop-color="#A8EAFF"/>
<stop offset="1" stop-color="#00B9A7"/>
</linearGradient>
<linearGradient id="paint8_linear_25_2" x1="36.338" y1="24.0499" x2="48.169" y2="24.0499" gradientUnits="userSpaceOnUse">
<stop stop-color="#A8EAFF"/>
<stop offset="1" stop-color="#00B9A7"/>
</linearGradient>
<linearGradient id="paint9_linear_25_2" x1="36.338" y1="24.0499" x2="48.169" y2="24.0499" gradientUnits="userSpaceOnUse">
<stop stop-color="#A8EAFF"/>
<stop offset="1" stop-color="#00B9A7"/>
</linearGradient>
<linearGradient id="paint10_linear_25_2" x1="36.338" y1="24.0499" x2="48.169" y2="24.0499" gradientUnits="userSpaceOnUse">
<stop stop-color="#A8EAFF"/>
<stop offset="1" stop-color="#00B9A7"/>
</linearGradient>
<linearGradient id="paint11_linear_25_2" x1="36.338" y1="35.6453" x2="40.5634" y2="35.6453" gradientUnits="userSpaceOnUse">
<stop stop-color="#A8EAFF"/>
<stop offset="1" stop-color="#00B9A7"/>
</linearGradient>
<linearGradient id="paint12_linear_25_2" x1="36.338" y1="35.6453" x2="40.5634" y2="35.6453" gradientUnits="userSpaceOnUse">
<stop stop-color="#A8EAFF"/>
<stop offset="1" stop-color="#00B9A7"/>
</linearGradient>
<linearGradient id="paint13_linear_25_2" x1="42.2535" y1="21.4731" x2="44.7888" y2="21.4731" gradientUnits="userSpaceOnUse">
<stop stop-color="#A8EAFF"/>
<stop offset="1" stop-color="#00B9A7"/>
</linearGradient>
<linearGradient id="paint14_linear_25_2" x1="42.2535" y1="21.4731" x2="44.7888" y2="21.4731" gradientUnits="userSpaceOnUse">
<stop stop-color="#A8EAFF"/>
<stop offset="1" stop-color="#00B9A7"/>
</linearGradient>
<linearGradient id="paint15_linear_25_2" x1="38.0282" y1="58.8363" x2="38.8733" y2="58.8363" gradientUnits="userSpaceOnUse">
<stop stop-color="#A8EAFF"/>
<stop offset="1" stop-color="#00B9A7"/>
</linearGradient>
<linearGradient id="paint16_linear_25_2" x1="38.0282" y1="58.8363" x2="38.8733" y2="58.8363" gradientUnits="userSpaceOnUse">
<stop stop-color="#A8EAFF"/>
<stop offset="1" stop-color="#00B9A7"/>
</linearGradient>
<linearGradient id="paint17_linear_25_2" x1="32.9578" y1="39.081" x2="35.493" y2="39.081" gradientUnits="userSpaceOnUse">
<stop stop-color="#06BAAA"/>
<stop offset="1" stop-color="#00B9A7"/>
</linearGradient>
<linearGradient id="paint18_linear_25_2" x1="31.2676" y1="39.081" x2="32.9577" y2="39.081" gradientUnits="userSpaceOnUse">
<stop stop-color="#A8EAFF"/>
<stop offset="1" stop-color="#00B9A7"/>
</linearGradient>
<linearGradient id="paint19_linear_25_2" x1="31.2676" y1="39.081" x2="32.9577" y2="39.081" gradientUnits="userSpaceOnUse">
<stop stop-color="#A8EAFF"/>
<stop offset="1" stop-color="#00B9A7"/>
</linearGradient>
<linearGradient id="paint20_linear_25_2" x1="9.29578" y1="37.3632" x2="10.9859" y2="37.3632" gradientUnits="userSpaceOnUse">
<stop stop-color="#A8EAFF"/>
<stop offset="1" stop-color="#00B9A7"/>
</linearGradient>
<linearGradient id="paint21_linear_25_2" x1="9.29578" y1="37.3632" x2="10.9859" y2="37.3632" gradientUnits="userSpaceOnUse">
<stop stop-color="#A8EAFF"/>
<stop offset="1" stop-color="#00B9A7"/>
</linearGradient>
<linearGradient id="paint22_linear_25_2" x1="9.29578" y1="37.3632" x2="10.9859" y2="37.3632" gradientUnits="userSpaceOnUse">
<stop stop-color="#A8EAFF"/>
<stop offset="1" stop-color="#00B9A7"/>
</linearGradient>
<linearGradient id="paint23_linear_25_2" x1="36.338" y1="47.6703" x2="38.8732" y2="47.6703" gradientUnits="userSpaceOnUse">
<stop stop-color="#A8EAFF"/>
<stop offset="1" stop-color="#00B9A7"/>
</linearGradient>
<linearGradient id="paint24_linear_25_2" x1="36.338" y1="47.6703" x2="38.8732" y2="47.6703" gradientUnits="userSpaceOnUse">
<stop stop-color="#A8EAFF"/>
<stop offset="1" stop-color="#00B9A7"/>
</linearGradient>
<linearGradient id="paint25_linear_25_2" x1="9.29581" y1="38.2221" x2="36.3381" y2="38.2221" gradientUnits="userSpaceOnUse">
<stop stop-color="#A8EAFF"/>
<stop offset="1" stop-color="#00B9A7"/>
</linearGradient>
<linearGradient id="paint26_linear_25_2" x1="9.29581" y1="38.2221" x2="36.3381" y2="38.2221" gradientUnits="userSpaceOnUse">
<stop stop-color="#A8EAFF"/>
<stop offset="1" stop-color="#00B9A7"/>
</linearGradient>
<linearGradient id="paint27_linear_25_2" x1="35.4929" y1="39.081" x2="37.1831" y2="39.081" gradientUnits="userSpaceOnUse">
<stop stop-color="#A8EAFF"/>
<stop offset="1" stop-color="#00B9A7"/>
</linearGradient>
<linearGradient id="paint28_linear_25_2" x1="35.4929" y1="39.081" x2="37.1831" y2="39.081" gradientUnits="userSpaceOnUse">
<stop stop-color="#A8EAFF"/>
<stop offset="1" stop-color="#00B9A7"/>
</linearGradient>
<linearGradient id="paint29_linear_25_2" x1="35.4929" y1="39.081" x2="37.1831" y2="39.081" gradientUnits="userSpaceOnUse">
<stop offset="0.0208333" stop-color="#00B9A7"/>
<stop offset="1" stop-color="#A8EAFF"/>
</linearGradient>
<linearGradient id="paint30_linear_25_2" x1="38.0282" y1="50.2471" x2="38.8733" y2="50.2471" gradientUnits="userSpaceOnUse">
<stop stop-color="#A8EAFF"/>
<stop offset="1" stop-color="#00B9A7"/>
</linearGradient>
<linearGradient id="paint31_linear_25_2" x1="38.0282" y1="50.2471" x2="38.8733" y2="50.2471" gradientUnits="userSpaceOnUse">
<stop stop-color="#A8EAFF"/>
<stop offset="1" stop-color="#00B9A7"/>
</linearGradient>
<linearGradient id="paint32_linear_25_2" x1="29.5775" y1="50.2471" x2="38.8732" y2="50.2471" gradientUnits="userSpaceOnUse">
<stop stop-color="#A8EAFF"/>
<stop offset="1" stop-color="#00B9A7"/>
</linearGradient>
<linearGradient id="paint33_linear_25_2" x1="29.5775" y1="50.2471" x2="38.8732" y2="50.2471" gradientUnits="userSpaceOnUse">
<stop stop-color="#A8EAFF"/>
<stop offset="1" stop-color="#00B9A7"/>
</linearGradient>
</defs>
</svg>
