<svg width="85" height="85" viewBox="0 0 85 85" fill="none" xmlns="http://www.w3.org/2000/svg">
<rect width="85" height="85" rx="10" fill="white"/>
<path d="M23.8305 31.1726C25.7279 29.1699 28.2447 28 31.2015 28C36.9617 28 40.7807 32.2254 41.5113 38.5553C41.7482 40.6109 41.7461 43.509 41.7437 46.8658C41.7437 47.21 41.7437 47.5591 41.7437 47.9126V60.4877H33.8224V51.1868C33.8224 51.1868 33.8062 43.2265 33.7578 41.7388C33.5453 35.2593 29.7273 31.1879 23.8302 31.1835C22.0511 33.0721 21.0977 35.3811 20.9572 38.9118C20.9379 39.4042 20.9427 41.1497 20.949 43.4502C20.9524 44.6421 20.9562 45.9831 20.9572 47.3759C20.9632 53.4383 20.9572 60.489 20.9572 60.489H13.0358V46.175C13.0358 45.6846 13.0269 45.19 13.018 44.6933C13.0001 43.6944 12.982 42.6878 13.0358 41.6911C13.1254 40.0295 13.4115 38.3961 14.1832 36.8786C15.9497 33.4023 19.5692 31.164 23.4279 31.164C23.5627 31.164 23.6976 31.1671 23.831 31.1724L23.8305 31.1726Z" fill="#101010"/>
<path d="M72.9642 47.568C73.0181 46.5712 73 45.5645 72.9821 44.5657C72.9731 44.0691 72.9642 43.5745 72.9642 43.084V28.77H65.043C65.043 28.77 65.037 35.8207 65.043 41.8831C65.0443 43.2759 65.0476 44.6168 65.0509 45.8087C65.0573 48.1093 65.0622 49.8547 65.043 50.3472C64.9024 53.878 63.949 56.187 62.1699 58.0756C56.273 58.0714 52.4551 53.9996 52.2424 47.5203C52.194 46.0326 52.1735 42.3407 52.1735 38.0648V28.7639L44.2581 28.7712V41.3463C44.2581 41.6998 44.2581 42.0488 44.2581 42.3931C44.2555 45.7499 44.2537 48.6479 44.4904 50.7036C45.2195 57.0335 49.0386 61.2589 54.7987 61.2589C57.7556 61.2589 60.2724 60.089 62.1698 58.0863C62.3031 58.0915 62.4379 58.0946 62.5727 58.0946C66.4314 58.0946 70.0509 55.8564 71.8174 52.3801C72.5892 50.8625 72.8752 49.2292 72.9647 47.5676L72.9642 47.568Z" fill="#101010"/>
</svg>
