<svg width="85" height="85" viewBox="0 0 85 85" fill="none" xmlns="http://www.w3.org/2000/svg">
<rect width="85" height="85" rx="10" fill="white"/>
<path d="M42.8485 17.0014C42.6847 17.0099 42.5252 17.0572 42.3833 17.1396C42.2414 17.2219 42.121 17.3368 42.0322 17.4749C39.4356 21.51 39.0928 26.312 41.2402 30.1049C41.2415 30.107 41.2429 30.109 41.2442 30.111L49.5827 44.5783C51.2841 47.5293 51.4568 51.055 50.2656 54.2764L43.2344 42.0774C43.1435 41.9197 43.0127 41.7888 42.8552 41.6979C42.6977 41.607 42.5191 41.5592 42.3373 41.5594H42.9192L36.4819 30.3963C36.3909 30.2385 36.26 30.1075 36.1023 30.0166C35.9446 29.9256 35.7657 29.8779 35.5837 29.8784C35.4017 29.8788 35.223 29.9272 35.0657 30.0189C34.9084 30.1105 34.7781 30.2421 34.6878 30.4004C32.4066 34.4071 32.3078 39.182 34.2877 43.1963C34.2989 43.3539 34.3459 43.5069 34.4251 43.6435L42.2423 57.2023C43.8835 60.0492 44.0071 63.4843 42.7777 66.6475L30.7721 45.8227C30.4662 45.2928 30.2222 44.7173 30.0043 44.1068C29.9159 43.859 29.7365 43.6541 29.5028 43.5339C29.269 43.4136 28.9982 43.387 28.7456 43.4594C24.1682 44.7691 20.2937 46.6877 17.5077 49.0804C14.7216 51.473 13 54.4054 13 57.609C13 62.2976 16.6091 66.3331 22.0416 69.1504C27.4741 71.9678 34.8566 73.6667 43 73.6667C51.1434 73.6667 58.5259 71.9678 63.9584 69.1504C69.3909 66.3331 73 62.2976 73 57.609C73 54.3176 71.1856 51.3139 68.262 48.8821C65.4919 46.5779 61.644 44.7692 57.1857 43.4958C57.1233 41.7163 56.7376 39.9636 55.8361 38.4009V38.3988L43.7981 17.5174C43.7026 17.3521 43.5634 17.2165 43.3959 17.1254C43.2283 17.0344 43.0389 16.9914 42.8485 17.0014ZM42.9758 20.2348L54.0459 39.4348C54.0459 39.4355 54.0459 39.4362 54.0459 39.4368C54.8745 40.8725 55.2473 42.5078 55.1956 44.2161C55.1887 44.4496 55.2607 44.6786 55.4001 44.8659C55.5395 45.0532 55.738 45.1879 55.9634 45.248C60.5235 46.4647 64.3315 48.3063 66.9406 50.4765C69.5497 52.6467 70.931 55.0771 70.931 57.609C70.931 61.2165 68.0577 64.6917 63.0067 67.3112C57.9558 69.9306 50.8539 71.5947 43 71.5947C35.1461 71.5947 28.0442 69.9306 22.9933 67.3112C17.9423 64.6917 15.069 61.2165 15.069 57.609C15.069 55.1448 16.3779 52.7801 18.8553 50.6525C21.1606 48.6727 24.5301 47.002 28.489 45.7681C28.6479 46.1334 28.772 46.5004 28.9799 46.8607L42.014 69.462C42.1045 69.6186 42.2343 69.7487 42.3906 69.8394C42.5469 69.9301 42.7241 69.9783 42.9047 69.9791C43.0854 69.9799 43.2631 69.9334 43.4201 69.8441C43.5772 69.7548 43.7082 69.6259 43.8001 69.4701C46.2619 65.2771 46.3707 60.2188 44.0345 56.1663C44.0338 56.1663 44.0331 56.1663 44.0325 56.1663L36.3526 42.8463C36.3326 42.7711 36.3041 42.6985 36.2678 42.6298C34.7195 39.7388 34.5858 36.3474 35.7324 33.2392L41.4261 43.1134C41.5125 43.2638 41.6354 43.3901 41.7833 43.4806C41.9312 43.5711 42.0995 43.623 42.2726 43.6314H41.7412L49.5201 57.1254C49.6113 57.2831 49.7424 57.414 49.9002 57.5047C50.058 57.5955 50.2369 57.643 50.4189 57.6423C50.6009 57.6417 50.7795 57.593 50.9367 57.5012C51.0939 57.4094 51.2241 57.2777 51.3143 57.1193C53.7405 52.8571 53.7734 47.7025 51.3749 43.5423L43.0384 29.0831C41.5713 26.4918 41.5988 23.2777 42.9758 20.2348Z" fill="black"/>
</svg>
