<svg width="60" height="26" viewBox="0 0 60 26" fill="none" xmlns="http://www.w3.org/2000/svg">
<path fill-rule="evenodd" clip-rule="evenodd" d="M55.6203 0.0268641H50.3595L48.19 4.08851H51.8779L55.6203 0.0268641ZM59.1186 6.6275H53.9933V17.5295C53.9933 20.8699 51.7148 21.8317 50.0344 21.8317C48.4337 21.8317 46.6708 21.2436 46.6984 18.3305V6.62709H41.5731L41.5458 19.0522C41.5458 23.8615 44.3398 25.9992 48.1904 25.9992C50.8746 26.0261 52.9635 24.8766 54.1292 22.8464H54.1833V25.492H59.119V6.6275H59.1186ZM37.5588 11.6237C37.5588 6.94782 32.5698 6.11954 29.8034 6.11954C25.8169 6.11954 21.6676 6.94782 21.0439 12.7194H26.0065C26.1692 11.6241 26.6302 10.1006 29.1793 10.1006C30.5081 10.1006 32.5698 10.2081 32.5698 12.2924C32.5698 13.3608 31.566 13.682 30.7523 13.7886L26.1424 14.4565C22.861 14.9112 20.4205 16.8079 20.4205 20.4959C20.4205 24.3967 23.4579 26 26.3593 26C29.8848 26 31.5387 24.4236 32.678 23.275C32.7862 24.3174 32.8676 24.5844 33.1662 25.4929L37.5865 25.466C37.5865 23.3816 37.5592 21.8586 37.5592 21.8321L37.5588 11.6237ZM15.7016 0.0268641H10.5763V6.60023H7.91856V10.1543H10.549V21.6176C10.549 24.0487 11.3355 25.7061 15.783 25.7061H16.4613C17.2746 25.7061 18.0879 25.652 18.8748 25.6259V21.8578C18.5221 21.8846 18.1429 21.9379 17.817 21.9379C15.7289 21.9379 15.6744 21.5102 15.6744 20.3876L15.7016 10.1539H18.9017V6.59982H15.7016V0.0268641ZM5.55951 0H0.0272626L0 25.4656H5.53225L5.55951 0Z" fill="#101010"/>
</svg>
