<svg width="25" height="25" viewBox="0 0 25 25" fill="none" xmlns="http://www.w3.org/2000/svg">
<path d="M2.85622 13.9062L13.9062 2.85468C14.4866 2.2743 15.1756 1.81391 15.9339 1.49981C16.6922 1.18571 17.505 1.02405 18.3258 1.02405C19.1465 1.02405 19.9593 1.18571 20.7176 1.49981C21.4759 1.81391 22.1649 2.2743 22.7453 2.85468C23.3257 3.43506 23.786 4.12407 24.1001 4.88238C24.4142 5.64068 24.5759 6.45343 24.5759 7.27421C24.5759 8.09499 24.4142 8.90774 24.1001 9.66604C23.786 10.4243 23.3257 11.1134 22.7453 11.6937L11.6984 22.7422C11.1182 23.3229 10.4294 23.7836 9.67113 24.0981C8.9129 24.4125 8.10015 24.5746 7.27929 24.5749C6.45844 24.5753 5.64555 24.414 4.88704 24.1002C4.12853 23.7864 3.43925 23.3263 2.85856 22.7461C2.27787 22.1659 1.81715 21.477 1.50268 20.7188C1.18822 19.9606 1.02618 19.1478 1.02582 18.327C1.02546 17.5061 1.18678 16.6932 1.50057 15.9347C1.81436 15.1762 2.27604 14.4869 2.85622 13.9062ZM17.1187 15.1109L21.639 10.5906C22.0801 10.1566 22.4308 9.63955 22.671 9.06929C22.9113 8.49904 23.0362 7.88687 23.0386 7.26809C23.0411 6.64931 22.921 6.03617 22.6853 5.46404C22.4496 4.89191 22.1029 4.3721 21.6653 3.93461C21.2278 3.49711 20.7079 3.15059 20.1357 2.91502C19.5635 2.67946 18.9503 2.55951 18.3315 2.5621C17.7128 2.56469 17.1006 2.68977 16.5304 2.93012C15.9602 3.17048 15.4433 3.52135 15.0093 3.96249L10.489 8.4828L17.1187 15.1109Z" fill="white"/>
</svg>
