<svg width="25" height="25" viewBox="0 0 25 25" fill="none" xmlns="http://www.w3.org/2000/svg">
<path d="M12.5 1.5625C12.7072 1.5625 12.9059 1.64481 13.0525 1.79132C13.199 1.93784 13.2813 2.13655 13.2813 2.34375V10.5359L14.0625 11.0937V7.375C14.0625 5.89062 15.2656 4.6875 16.75 4.6875C17.5688 4.6875 18.3485 5.10938 19.0047 5.6125C19.6781 6.13125 20.3281 6.82031 20.9047 7.53281C22.0547 8.95156 23.0094 10.5734 23.3735 11.4078C23.6485 12.0406 23.9875 13.2203 24.2422 14.55C24.5 15.8891 24.6844 17.4516 24.6172 18.8609C24.5547 20.2156 24.2547 21.6578 23.3094 22.5016C22.2625 23.4391 20.775 23.3703 19.0266 22.4953L16.2219 21.0938C15.5731 20.7693 15.0274 20.2707 14.646 19.6536C14.2646 19.0365 14.0625 18.3254 14.0625 17.6V13.0141L12.5 11.8969L10.9375 13.0141V11.2719C10.7813 11.2719 10.6219 11.3188 10.4844 11.4172L6.57815 14.2078C6.49102 14.2658 6.41643 14.3408 6.35882 14.4282C6.30121 14.5156 6.26175 14.6136 6.24279 14.7166C6.22383 14.8195 6.22575 14.9252 6.24843 15.0274C6.27112 15.1296 6.31411 15.2262 6.37486 15.3115C6.4356 15.3967 6.51286 15.4689 6.60204 15.5237C6.69122 15.5785 6.79051 15.6148 6.894 15.6305C6.9975 15.6462 7.10309 15.641 7.20452 15.615C7.30594 15.5891 7.40111 15.5431 7.4844 15.4797L10.9375 13.0141V17.6C10.9375 18.3254 10.7355 19.0365 10.3541 19.6536C9.97268 20.2707 9.42699 20.7693 8.77815 21.0938L5.97346 22.4953C4.22346 23.3703 2.73909 23.4375 1.69065 22.5016C0.745336 21.6578 0.443774 20.2156 0.381274 18.8609C0.315649 17.4516 0.500024 15.8891 0.756274 14.55C1.01252 13.2188 1.35002 12.0406 1.62815 11.4063C1.99065 10.5734 2.94534 8.95156 4.09534 7.53281C4.67346 6.82031 5.3219 6.13125 5.99534 5.6125C6.65159 5.10938 7.43127 4.6875 8.25002 4.6875C9.7344 4.6875 10.9375 5.89062 10.9375 7.375V11.0937L11.7188 10.5359V2.34375C11.7188 2.13655 11.8011 1.93784 11.9476 1.79132C12.0941 1.64481 12.2928 1.5625 12.5 1.5625ZM17.5156 15.4797C17.5989 15.5431 17.6941 15.5891 17.7955 15.615C17.897 15.641 18.0025 15.6462 18.106 15.6305C18.2095 15.6148 18.3088 15.5785 18.398 15.5237C18.4872 15.4689 18.5644 15.3967 18.6252 15.3115C18.6859 15.2262 18.7289 15.1296 18.7516 15.0274C18.7743 14.9252 18.7762 14.8195 18.7573 14.7166C18.7383 14.6136 18.6988 14.5156 18.6412 14.4282C18.5836 14.3408 18.509 14.2658 18.4219 14.2078L14.5156 11.4172C14.3835 11.3226 14.225 11.2718 14.0625 11.2719V13.0141L17.5156 15.4812V15.4797Z" fill="white"/>
</svg>
