<svg width="25" height="25" viewBox="0 0 25 25" fill="none" xmlns="http://www.w3.org/2000/svg">
<path d="M10.9375 9.375H14.0625V12.5H17.1875V15.625H14.0625V18.75H10.9375V15.625H7.8125V12.5H10.9375V9.375Z" fill="white"/>
<path d="M3.125 1.5625C3.125 1.1481 3.28962 0.750671 3.58265 0.457646C3.87567 0.16462 4.2731 0 4.6875 0L20.3125 0C20.7269 0 21.1243 0.16462 21.4174 0.457646C21.7104 0.750671 21.875 1.1481 21.875 1.5625V4.6875C21.875 5.1019 21.7104 5.49933 21.4174 5.79235C21.1243 6.08538 20.7269 6.25 20.3125 6.25V22.6562C20.3125 23.2779 20.0656 23.874 19.626 24.3135C19.1865 24.7531 18.5904 25 17.9688 25H7.03125C6.40965 25 5.81351 24.7531 5.37397 24.3135C4.93443 23.874 4.6875 23.2779 4.6875 22.6562V6.25C4.2731 6.25 3.87567 6.08538 3.58265 5.79235C3.28962 5.49933 3.125 5.1019 3.125 4.6875V1.5625ZM6.25 6.25V22.6562C6.25 22.8635 6.33231 23.0622 6.47882 23.2087C6.62534 23.3552 6.82405 23.4375 7.03125 23.4375H17.9688C18.176 23.4375 18.3747 23.3552 18.5212 23.2087C18.6677 23.0622 18.75 22.8635 18.75 22.6562V6.25H6.25ZM4.6875 4.6875H20.3125V1.5625H4.6875V4.6875Z" fill="white"/>
</svg>
