<svg width="206" height="49" viewBox="0 0 206 49" fill="none" xmlns="http://www.w3.org/2000/svg">
<path d="M37.472 3.32801V48H28.512V28.992H9.37602V48H0.416016V3.32801H9.37602V21.696H28.512V3.32801H37.472Z" fill="white"/>
<path d="M79.251 29.504C79.251 30.784 79.1657 31.936 78.995 32.96H53.075C53.2883 35.52 54.1843 37.5253 55.763 38.976C57.3417 40.4267 59.283 41.152 61.587 41.152C64.915 41.152 67.283 39.7227 68.691 36.864H78.355C77.331 40.2773 75.3684 43.0933 72.467 45.312C69.5657 47.488 66.003 48.576 61.779 48.576C58.3657 48.576 55.2937 47.8293 52.563 46.336C49.875 44.8 47.763 42.6454 46.227 39.872C44.7337 37.0987 43.987 33.8987 43.987 30.272C43.987 26.6027 44.7337 23.3813 46.227 20.608C47.7203 17.8347 49.811 15.7013 52.499 14.208C55.187 12.7147 58.2803 11.968 61.779 11.968C65.1497 11.968 68.1577 12.6933 70.803 14.144C73.491 15.5947 75.5604 17.664 77.011 20.352C78.5044 22.9973 79.251 26.048 79.251 29.504ZM69.971 26.944C69.9283 24.64 69.0963 22.8053 67.475 21.44C65.8537 20.032 63.8697 19.328 61.523 19.328C59.3044 19.328 57.427 20.0107 55.891 21.376C54.3977 22.6987 53.4803 24.5547 53.139 26.944H69.971Z" fill="white"/>
<path d="M83.487 30.144C83.487 26.56 84.191 23.3813 85.599 20.608C87.0497 17.8347 88.991 15.7013 91.423 14.208C93.8977 12.7147 96.6497 11.968 99.679 11.968C102.324 11.968 104.628 12.5013 106.591 13.568C108.596 14.6347 110.196 15.9787 111.391 17.6V12.544H120.415V48H111.391V42.816C110.239 44.48 108.639 45.8667 106.591 46.976C104.586 48.0427 102.26 48.576 99.615 48.576C96.6284 48.576 93.8977 47.808 91.423 46.272C88.991 44.736 87.0497 42.5813 85.599 39.808C84.191 36.992 83.487 33.7707 83.487 30.144ZM111.391 30.272C111.391 28.096 110.964 26.24 110.111 24.704C109.258 23.1253 108.106 21.9307 106.655 21.12C105.204 20.2667 103.647 19.84 101.983 19.84C100.319 19.84 98.783 20.2453 97.375 21.056C95.967 21.8667 94.815 23.0613 93.919 24.64C93.0657 26.176 92.639 28.0107 92.639 30.144C92.639 32.2773 93.0657 34.1547 93.919 35.776C94.815 37.3547 95.967 38.5707 97.375 39.424C98.8257 40.2773 100.362 40.704 101.983 40.704C103.647 40.704 105.204 40.2987 106.655 39.488C108.106 38.6347 109.258 37.44 110.111 35.904C110.964 34.3253 111.391 32.448 111.391 30.272Z" fill="white"/>
<path d="M138.126 0.640015V48H129.166V0.640015H138.126Z" fill="white"/>
<path d="M157.411 19.904V37.056C157.411 38.2507 157.688 39.1253 158.243 39.68C158.84 40.192 159.821 40.448 161.187 40.448H165.347V48H159.715C152.163 48 148.387 44.3307 148.387 36.992V19.904H144.163V12.544H148.387V3.77601H157.411V12.544H165.347V19.904H157.411Z" fill="white"/>
<path d="M191.759 12.032C194.447 12.032 196.836 12.6293 198.927 13.824C201.018 14.976 202.639 16.704 203.791 19.008C204.986 21.2693 205.583 24 205.583 27.2V48H196.623V28.416C196.623 25.6 195.919 23.4453 194.511 21.952C193.103 20.416 191.183 19.648 188.751 19.648C186.276 19.648 184.314 20.416 182.863 21.952C181.455 23.4453 180.751 25.6 180.751 28.416V48H171.791V0.640015H180.751V16.96C181.903 15.424 183.439 14.2293 185.359 13.376C187.279 12.48 189.412 12.032 191.759 12.032Z" fill="white"/>
</svg>
