<svg xmlns="http://www.w3.org/2000/svg" xmlns:xlink="http://www.w3.org/1999/xlink" xml:space="preserve" version="1.1" style="shape-rendering:geometricPrecision;text-rendering:geometricPrecision;image-rendering:optimizeQuality;" viewBox="0 0 846.66 1058.325" x="0px" y="0px" fill-rule="evenodd" clip-rule="evenodd"><defs><style type="text/css">
   
    .fil0 {fill:black;fill-rule:nonzero}
   
  </style></defs><g><path class="fil0" d="M477.38 252.22l0 93.89 252.74 157.42 0 308.46c-204.53,0 -409.06,0 -613.58,0l0 -777.32 360.84 217.55zm32.27 248.76l48.98 0 0 42.01 -48.98 0 0 -42.01zm93.62 175.97l49 0 0 42 -49 0 0 -42zm-93.62 0l48.98 0 0 42 -48.98 0 0 -42zm93.62 -92.66l49 0 0 42.01 -49 0 0 -42.01zm-93.62 0l48.98 0 0 42.01 -48.98 0 0 -42.01zm-145.33 92.66l48.99 0 0 42 -48.99 0 0 -42zm-93.63 0l48.99 0 0 42 -48.99 0 0 -42zm-93.64 0l48.99 0 0 42 -48.99 0 0 -42zm187.27 -92.66l48.99 0 0 42.01 -48.99 0 0 -42.01zm-93.63 0l48.99 0 0 42.01 -48.99 0 0 -42.01zm-93.64 0l48.99 0 0 42.01 -48.99 0 0 -42.01zm187.27 -92.33l48.99 0 0 42 -48.99 0 0 -42zm-93.63 0l48.99 0 0 42 -48.99 0 0 -42zm-93.64 0l48.99 0 0 42 -48.99 0 0 -42zm187.27 -92.66l48.99 0 0 42.01 -48.99 0 0 -42.01zm-93.63 0l48.99 0 0 42.01 -48.99 0 0 -42.01zm-93.64 0l48.99 0 0 42.01 -48.99 0 0 -42.01zm187.27 -92.65l48.99 0 0 42 -48.99 0 0 -42zm-93.63 0l48.99 0 0 42 -48.99 0 0 -42zm-93.64 0l48.99 0 0 42 -48.99 0 0 -42zm300.33 89.55l0 373.2 210.15 0 0 -242.3 -210.15 -130.9zm-42.6 373.2c0,-164.38 0.01,-328.84 0.01,-493.18l-275.66 -166.19 0 659.37 275.65 0z"/></g><text x="0" y="861.66" fill="#000000" font-size="5px" font-weight="bold" font-family="'Helvetica Neue', Helvetica, Arial-Unicode, Arial, Sans-serif">Created by Wardella Pillay</text><text x="0" y="866.66" fill="#000000" font-size="5px" font-weight="bold" font-family="'Helvetica Neue', Helvetica, Arial-Unicode, Arial, Sans-serif">from the Noun Project</text></svg>