<svg xmlns="http://www.w3.org/2000/svg" xmlns:xlink="http://www.w3.org/1999/xlink" version="1.1" x="0px" y="0px" viewBox="0 0 100 125" style="enable-background:new 0 0 100 100;" xml:space="preserve"><path d="M77.6,27.4H64V25c0-3.97-3.23-7.2-7.2-7.2H43.2c-3.97,0-7.2,3.23-7.2,7.2v2.4H22.4c-3.97,0-7.2,3.23-7.2,7.2V53v20  c0,3.97,3.23,7.2,7.2,7.2h55.2c3.97,0,7.2-3.23,7.2-7.2V53V34.6C84.8,30.63,81.57,27.4,77.6,27.4z M40.8,25c0-1.32,1.08-2.4,2.4-2.4  h13.6c1.32,0,2.4,1.08,2.4,2.4v2.4H40.8V25z M20,34.6c0-1.32,1.08-2.4,2.4-2.4h16h23.2h16c1.32,0,2.4,1.08,2.4,2.4V53  c0,3.09-2.51,5.6-5.6,5.6H64v-2.4c0-1.33-1.07-2.4-2.4-2.4H38.4c-1.33,0-2.4,1.07-2.4,2.4v2.4H25.6c-3.09,0-5.6-2.51-5.6-5.6V34.6z   M59.2,58.6v4.8H40.8v-4.8H59.2z M77.6,75.4H22.4c-1.32,0-2.4-1.08-2.4-2.4V61.76c1.62,1.04,3.54,1.64,5.6,1.64H36v2.4  c0,1.33,1.07,2.4,2.4,2.4h23.2c1.33,0,2.4-1.07,2.4-2.4v-2.4h10.4c2.06,0,3.98-0.61,5.6-1.64V73C80,74.32,78.92,75.4,77.6,75.4z"/><text x="0" y="115" fill="#000000" font-size="5px" font-weight="bold" font-family="'Helvetica Neue', Helvetica, Arial-Unicode, Arial, Sans-serif">Created by Timor Barshtman</text><text x="0" y="120" fill="#000000" font-size="5px" font-weight="bold" font-family="'Helvetica Neue', Helvetica, Arial-Unicode, Arial, Sans-serif">from the Noun Project</text></svg>