<svg xmlns="http://www.w3.org/2000/svg" data-name="Layer 1" viewBox="0 0 95 118.75" x="0px" y="0px"><path d="M69.6,61.863,67.849,63.61l-7.985-7.988,1.748-1.748a.725.725,0,0,1,1.019,0L69.6,60.843a.736.736,0,0,1,0,1.02Zm-21.986,4.3a12.519,12.519,0,0,0,17.685,0l.5-.5-7.986-7.989L56.18,59.3a5.156,5.156,0,0,1-7.275,0L35.7,46.1a5.143,5.143,0,0,1,0-7.277l1.62-1.628-7.986-7.987-.5.5a12.519,12.519,0,0,0,0,17.685L47.611,66.164ZM34.159,25.4l6.966,6.968a.72.72,0,0,1,0,1.021L39.377,35.14l-7.985-7.988L33.14,25.4h0a.731.731,0,0,1,1.019,0ZM64.688,51.819a3.639,3.639,0,0,0-5.133,0l-2.776,2.773V54.6l-2.656,2.652a2.245,2.245,0,0,1-3.162,0L37.749,44.044a2.253,2.253,0,0,1,0-3.168l5.433-5.429a3.635,3.635,0,0,0,0-5.131l-6.966-6.968a3.634,3.634,0,0,0-5.133,0h0l-4.3,4.3a15.433,15.433,0,0,0,0,21.794L45.563,68.219a15.424,15.424,0,0,0,21.79,0l1.525-1.524v0l2.776-2.773a3.634,3.634,0,0,0,0-5.13l-6.966-6.969ZM47.5,90.8A43.454,43.454,0,1,0,16.689,77.982a1.454,1.454,0,0,1,.248,1.722A43.23,43.23,0,0,1,7.923,90.862c9.023.721,16.726-.254,22.955-2.906a1.462,1.462,0,0,1,1.088-.021A43.246,43.246,0,0,0,47.5,90.8Zm32.773-76.22a46.351,46.351,0,0,0-66.42,64.658A43.968,43.968,0,0,1,3.5,90.843a1.45,1.45,0,0,0,.746,2.567A76.437,76.437,0,0,0,13.493,94a47.557,47.557,0,0,0,17.976-3.142,46.354,46.354,0,0,0,48.8-76.276Z" style="" fill-rule="evenodd"/><text x="0" y="110" fill="#000000" font-size="5px" font-weight="bold" font-family="'Helvetica Neue', Helvetica, Arial-Unicode, Arial, Sans-serif">Created by Sunardi</text><text x="0" y="115" fill="#000000" font-size="5px" font-weight="bold" font-family="'Helvetica Neue', Helvetica, Arial-Unicode, Arial, Sans-serif">from the Noun Project</text></svg>