<svg xmlns="http://www.w3.org/2000/svg" data-name="Layer 1" viewBox="0 0 64 80" x="0px" y="0px"><title>address</title><path d="M50,60H14a3,3,0,0,1-3-3V22H53V57A3,3,0,0,1,50,60ZM13,24V57a1,1,0,0,0,1,1H50a1,1,0,0,0,1-1V24Z"/><path d="M54.11,24H52V22h2.11a.89.89,0,0,0,.49-1.63L32.49,5.63a.88.88,0,0,0-1,0L9.4,20.37A.89.89,0,0,0,9.89,22H12v2H9.89a2.89,2.89,0,0,1-1.6-5.29L30.4,4a2.87,2.87,0,0,1,3.2,0L55.71,18.71A2.89,2.89,0,0,1,54.11,24Z"/><path d="M40,60H24V44a5,5,0,0,1,5-5h6a5,5,0,0,1,5,5ZM26,58H38V44a3,3,0,0,0-3-3H29a3,3,0,0,0-3,3Z"/><rect x="16" y="34" width="2" height="5"/><rect x="46" y="34" width="2" height="5"/><rect x="16" y="30" width="2" height="2"/><rect x="46" y="30" width="2" height="2"/><text x="0" y="79" fill="#000000" font-size="5px" font-weight="bold" font-family="'Helvetica Neue', Helvetica, Arial-Unicode, Arial, Sans-serif">Created by Nattha Potchanad</text><text x="0" y="84" fill="#000000" font-size="5px" font-weight="bold" font-family="'Helvetica Neue', Helvetica, Arial-Unicode, Arial, Sans-serif">from the Noun Project</text></svg>