<svg xmlns="http://www.w3.org/2000/svg"  viewBox="0 0 64 64" width="256px" height="256px"><path d="M 31.853516 2.3027344 A 1.0001 1.0001 0 0 0 31.064453 2.7597656 C 28.554437 6.6546921 28.223024 11.290008 30.298828 14.951172 A 1.0001 1.0001 0 0 0 30.302734 14.957031 L 38.363281 28.921875 C 40.007921 31.770379 40.174875 35.173678 39.023438 38.283203 L 32.226562 26.507812 A 1.0001 1.0001 0 0 0 31.359375 26.007812 L 31.921875 26.007812 L 25.699219 15.232422 A 1.0001 1.0001 0 0 0 23.964844 15.236328 C 21.7597 19.103939 21.664225 23.713014 23.578125 27.587891 A 1.0001 1.0001 0 0 0 23.710938 28.019531 L 31.267578 41.107422 C 32.854052 43.855421 32.973523 47.17129 31.785156 50.224609 L 20.179688 30.123047 C 19.884013 29.611538 19.648088 29.056066 19.4375 28.466797 A 1.0001 1.0001 0 0 0 18.220703 27.841797 C 13.795924 29.106019 10.05059 30.958033 7.3574219 33.267578 C 4.6642539 35.577123 3 38.407649 3 41.5 C 3 46.025812 6.4887944 49.921111 11.740234 52.640625 C 16.991675 55.360139 24.128062 57 32 57 C 39.871938 57 47.008325 55.360139 52.259766 52.640625 C 57.511206 49.921111 61 46.025812 61 41.5 C 61 38.322958 59.246062 35.42356 56.419922 33.076172 C 53.742189 30.85205 50.022528 29.106182 45.712891 27.876953 C 45.652482 26.159314 45.279634 24.467466 44.408203 22.958984 L 44.408203 22.957031 L 32.771484 2.8007812 A 1.0001 1.0001 0 0 0 31.853516 2.3027344 z M 31.976562 5.4238281 L 42.677734 23.957031 A 1.0001 1.0001 0 0 0 42.677734 23.958984 C 43.478654 25.344815 43.839032 26.923295 43.789062 28.572266 A 1.0001 1.0001 0 0 0 44.53125 29.568359 C 48.939374 30.742753 52.620468 32.520373 55.142578 34.615234 C 57.664688 36.710049 59 39.056042 59 41.5 C 59 44.982188 56.222403 48.336749 51.339844 50.865234 C 46.457284 53.39372 39.592062 55 32 55 C 24.407938 55 17.542716 53.39372 12.660156 50.865234 C 7.7775969 48.336749 5 44.982188 5 41.5 C 5 39.121351 6.2653243 36.838861 8.6601562 34.785156 C 10.888628 32.874115 14.145784 31.261436 17.972656 30.070312 C 18.126263 30.422995 18.246247 30.777243 18.447266 31.125 L 31.046875 52.941406 A 1.0001 1.0001 0 0 0 32.773438 52.949219 C 35.153185 48.90183 35.258331 44.019175 33 40.107422 A 1.0001 1.0001 0 0 0 32.998047 40.107422 L 25.574219 27.25 A 1.0001 1.0001 0 0 0 25.492188 27.041016 C 23.995487 24.250494 23.866229 20.976795 24.974609 17.976562 L 30.478516 27.507812 A 1.0001 1.0001 0 0 0 31.296875 28.007812 L 30.783203 28.007812 L 38.302734 41.033203 A 1.0001 1.0001 0 0 0 40.037109 41.027344 C 42.382508 36.913196 42.414257 31.937586 40.095703 27.921875 L 32.037109 13.964844 C 30.618899 11.4635 30.645516 8.3610163 31.976562 5.4238281 z M 5.984375 18.986328 A 1.0001 1.0001 0 0 0 5 20 L 5 22 A 1.0001 1.0001 0 1 0 7 22 L 7 20 A 1.0001 1.0001 0 0 0 5.984375 18.986328 z M 10.984375 18.986328 A 1.0001 1.0001 0 0 0 10 20 L 10 22 A 1.0001 1.0001 0 1 0 12 22 L 12 20 A 1.0001 1.0001 0 0 0 10.984375 18.986328 z M 15.984375 18.986328 A 1.0001 1.0001 0 0 0 15 20 L 15 22 A 1.0001 1.0001 0 1 0 17 22 L 17 20 A 1.0001 1.0001 0 0 0 15.984375 18.986328 z M 48.984375 18.986328 A 1.0001 1.0001 0 0 0 48 20 L 48 22 A 1.0001 1.0001 0 1 0 50 22 L 50 20 A 1.0001 1.0001 0 0 0 48.984375 18.986328 z M 53.984375 18.986328 A 1.0001 1.0001 0 0 0 53 20 L 53 22 A 1.0001 1.0001 0 1 0 55 22 L 55 20 A 1.0001 1.0001 0 0 0 53.984375 18.986328 z M 58.984375 18.986328 A 1.0001 1.0001 0 0 0 58 20 L 58 22 A 1.0001 1.0001 0 1 0 60 22 L 60 20 A 1.0001 1.0001 0 0 0 58.984375 18.986328 z M 53.707031 36.583984 C 53.451906 36.561234 53.189516 36.636953 52.978516 36.814453 C 52.555516 37.168453 52.499516 37.798656 52.853516 38.222656 C 53.614516 39.132656 54 40.066 54 41 C 54 43.684 50.800406 46.325406 45.441406 48.066406 C 44.916406 48.237406 44.630781 48.801172 44.800781 49.326172 C 44.937781 49.748172 45.329953 50.017578 45.751953 50.017578 C 45.853953 50.017578 45.957547 50.00175 46.060547 49.96875 C 52.377547 47.91675 56 44.647 56 41 C 56 39.584 55.456719 38.218453 54.386719 36.939453 C 54.209219 36.727953 53.962156 36.606734 53.707031 36.583984 z M 40.720703 49.240234 C 39.786703 49.410234 38.809406 49.555875 37.816406 49.671875 C 37.268406 49.735875 36.875453 50.23225 36.939453 50.78125 C 36.999453 51.29025 37.431641 51.664062 37.931641 51.664062 C 37.970641 51.664062 38.010781 51.663203 38.050781 51.658203 C 39.085781 51.537203 40.104078 51.386031 41.080078 51.207031 C 41.623078 51.108031 41.983766 50.588922 41.884766 50.044922 C 41.784766 49.501922 41.269703 49.137234 40.720703 49.240234 z"/></svg>