<?xml version="1.0" encoding="UTF-8" standalone="no"?>
<svg
   xmlns:dc="http://purl.org/dc/elements/1.1/"
   xmlns:cc="http://creativecommons.org/ns#"
   xmlns:rdf="http://www.w3.org/1999/02/22-rdf-syntax-ns#"
   xmlns:svg="http://www.w3.org/2000/svg"
   xmlns="http://www.w3.org/2000/svg"
   viewBox="0 0 666.66669 666.66669"
   height="666.66669"
   width="666.66669"
   xml:space="preserve"
   id="svg2"
   version="1.1"><metadata
     id="metadata8"><rdf:RDF><cc:Work
         rdf:about=""><dc:format>image/svg+xml</dc:format><dc:type
           rdf:resource="http://purl.org/dc/dcmitype/StillImage" /></cc:Work></rdf:RDF></metadata><defs
     id="defs6"><clipPath
       id="clipPath42"
       clipPathUnits="userSpaceOnUse"><path
         id="path40"
         d="m 1876.5,3586.06 c 0,-31.14 -25.25,-56.39 -56.38,-56.39 -13.52,0 -26.31,5.03 -36.4,13.98 -5.45,4.84 -10.37,10.55 -13.28,17.3 -3.14,7.29 -2.17,13.93 -2.44,21.55 -0.31,8.33 -0.63,16.68 -0.93,25.02 0,29.66 -24.05,53.71 -53.71,53.71 -29.66,0 -53.7,-24.05 -53.7,-53.71 v -45.53 c -0.03,0 -0.03,-142.92 -0.03,-142.92 0,-31.14 -25.24,-56.38 -56.39,-56.38 -31.14,0 -56.38,25.24 -56.38,56.38 0,9.18 0,18.36 0,27.54 0,0.27 0,0.54 0,0.81 0,20.58 -0.01,41.16 -0.02,61.75 -0.02,29.69 6.25,70.8 -17.85,93.76 -9.93,9.47 -23.32,14.83 -37.05,14.83 -29.65,0 -53.7,-24.04 -53.7,-53.71 0,-16.68 0,-33.37 0,-50.06 0,-33.38 0,-66.77 0,-100.16 0,-22.12 -0.36,-44.15 0.42,-66.21 0.53,-14.97 -3.19,-25.61 -14.37,-35.78 -10.32,-9.39 -23.97,-14.66 -37.92,-14.66 -14.97,0 -29.53,6.08 -40.06,16.73 -14.74,14.9 -15.27,32.97 -15.27,52.6 0,11.3 0,22.6 0,33.9 0,31.07 0,62.15 0,93.23 0,33.37 0,66.75 0,100.11 0,24.86 0,49.71 0,74.57 0,6.55 0,13.11 0,19.66 0,29.66 -24.05,53.7 -53.72,53.7 -29.65,0 -53.7,-24.04 -53.7,-53.7 0,-20.59 0,-41.18 0,-61.77 0,-35.71 0,-71.42 0,-107.12 0,-11.88 0,-23.75 0.03,-35.63 0.08,-26.06 -30.93,-44.87 -54.15,-44.87 -31.14,0 -56.38,25.24 -56.38,56.39 v 67.01 h -0.79 v 32.26 c 0,29.66 -24.04,53.71 -53.7,53.71 -17.19,0 -33.64,-8.46 -43.66,-22.43 -12.54,-17.47 -8.96,-36.34 -9.87,-56.46 -0.53,-11.86 -5.987,-20.69 -14.561,-28.54 -10.305,-9.43 -23.945,-14.73 -37.91,-14.73 -31.145,0 -56.387,25.24 -56.387,56.38 v 305.4 c 0,31.14 25.242,56.38 56.387,56.38 12.527,0 24.844,-4.23 34.707,-11.96 6.648,-5.22 12.598,-11.77 15.714,-19.73 3.56,-9.13 1.87,-18.99 1.87,-28.54 0,-17 0,-33.99 0,-50.99 0,-16.98 0,-33.97 0,-50.94 0,-29.67 24.05,-53.71 53.71,-53.71 29.66,0 53.7,24.04 53.7,53.71 v 126.81 l 0.79,66.18 c 0,31.14 25.24,56.38 56.38,56.38 14.06,0 27.8,-5.36 38.14,-14.88 8.03,-7.41 13.86,-17.03 15.63,-27.89 1.38,-8.43 0.35,-17.45 0.35,-26.01 0,-17.51 0,-35.01 0,-52.52 0,-24.58 0,-49.16 0,-73.74 0,-29.66 24.05,-53.71 53.7,-53.71 29.67,0 53.72,24.05 53.72,53.71 v 290.8 c 5.01,26 27.86,45.65 55.33,45.65 28.86,0 52.61,-21.69 55.95,-49.65 v -226.37 c 0,-29.66 24.04,-53.71 53.71,-53.71 29.65,0 53.7,24.05 53.7,53.71 0,19.63 0,39.25 0,58.88 0,30.95 0,61.89 0,92.84 0,7.62 -1.09,15.59 1.12,23.02 2.04,6.85 6.95,13.47 11.87,18.56 10.55,10.94 25.32,17.22 40.52,17.22 31.15,0 56.39,-25.25 56.39,-56.39 v -142.08 c 0.03,0 0.03,-37.86 0.03,-37.86 0,-29.66 24.04,-53.7 53.7,-53.7 29.66,0 53.71,24.04 53.71,53.7 0.75,16.17 -1.69,34.56 8.74,48.15 10.14,13.21 27.77,21.19 44.31,21.19 31.13,0 56.38,-25.25 56.38,-56.39 z m 103.02,650.53 H 793.223 c -131.524,0 -238.145,-106.62 -238.145,-238.14 v -527.14 c 0,-131.52 106.621,-238.14 238.145,-238.14 H 1979.52 c 131.53,0 238.14,106.62 238.14,238.14 v 527.14 c 0,131.52 -106.61,238.14 -238.14,238.14 z" /></clipPath><linearGradient
       id="linearGradient48"
       spreadMethod="pad"
       gradientTransform="matrix(1662.58,0,0,-1662.58,555.08,3734.88)"
       gradientUnits="userSpaceOnUse"
       y2="0"
       x2="1"
       y1="0"
       x1="0"><stop
         id="stop44"
         offset="0"
         style="stop-opacity:1;stop-color:#4ac1a9" /><stop
         id="stop46"
         offset="1"
         style="stop-opacity:1;stop-color:#604eab" /></linearGradient><linearGradient
       id="linearGradient76"
       spreadMethod="pad"
       gradientTransform="matrix(1554.39,0,0,1554.39,2823.39,-1120.87)"
       gradientUnits="userSpaceOnUse"
       y2="0"
       x2="1"
       y1="0"
       x1="0"><stop
         id="stop72"
         offset="0"
         style="stop-opacity:1;stop-color:#4ac1a9" /><stop
         id="stop74"
         offset="1"
         style="stop-opacity:1;stop-color:#604eab" /></linearGradient><linearGradient
       id="linearGradient84"
       spreadMethod="pad"
       gradientTransform="matrix(1728.71,0,0,1728.71,2736.23,-1164.45)"
       gradientUnits="userSpaceOnUse"
       y2="0"
       x2="1"
       y1="0"
       x1="0"><stop
         id="stop80"
         offset="0"
         style="stop-opacity:1;stop-color:#4ac1a9" /><stop
         id="stop82"
         offset="1"
         style="stop-opacity:1;stop-color:#604eab" /></linearGradient><linearGradient
       id="linearGradient92"
       spreadMethod="pad"
       gradientTransform="matrix(1728.71,0,0,1728.71,2736.23,-1164.45)"
       gradientUnits="userSpaceOnUse"
       y2="0"
       x2="1"
       y1="0"
       x1="0"><stop
         id="stop88"
         offset="0"
         style="stop-opacity:1;stop-color:#4ac1a9" /><stop
         id="stop90"
         offset="1"
         style="stop-opacity:1;stop-color:#604eab" /></linearGradient><linearGradient
       id="linearGradient100"
       spreadMethod="pad"
       gradientTransform="matrix(1356.07,0,0,1356.07,2922.55,-1071.29)"
       gradientUnits="userSpaceOnUse"
       y2="0"
       x2="1"
       y1="0"
       x1="0"><stop
         id="stop96"
         offset="0"
         style="stop-opacity:1;stop-color:#4ac1a9" /><stop
         id="stop98"
         offset="1"
         style="stop-opacity:1;stop-color:#604eab" /></linearGradient><clipPath
       id="clipPath110"
       clipPathUnits="userSpaceOnUse"><path
         id="path108"
         d="m 3954.08,1232.27 c 0,195.23 -158.27,353.5 -353.49,353.5 -195.24,0 -353.51,-158.27 -353.51,-353.5" /></clipPath><linearGradient
       id="linearGradient116"
       spreadMethod="pad"
       gradientTransform="matrix(706.999,0,0,-706.999,3247.08,1409.02)"
       gradientUnits="userSpaceOnUse"
       y2="0"
       x2="1"
       y1="0"
       x1="0"><stop
         id="stop112"
         offset="0"
         style="stop-opacity:1;stop-color:#4ac1a9" /><stop
         id="stop114"
         offset="1"
         style="stop-opacity:1;stop-color:#604eab" /></linearGradient><linearGradient
       id="linearGradient124"
       spreadMethod="pad"
       gradientTransform="matrix(958.022,0,0,958.022,3121.57,-971.77)"
       gradientUnits="userSpaceOnUse"
       y2="0"
       x2="1"
       y1="0"
       x1="0"><stop
         id="stop120"
         offset="0"
         style="stop-opacity:1;stop-color:#4ac1a9" /><stop
         id="stop122"
         offset="1"
         style="stop-opacity:1;stop-color:#604eab" /></linearGradient><linearGradient
       id="linearGradient132"
       spreadMethod="pad"
       gradientTransform="matrix(1150.7,0,0,1150.7,3025.24,-1019.94)"
       gradientUnits="userSpaceOnUse"
       y2="0"
       x2="1"
       y1="0"
       x1="0"><stop
         id="stop128"
         offset="0"
         style="stop-opacity:1;stop-color:#4ac1a9" /><stop
         id="stop130"
         offset="1"
         style="stop-opacity:1;stop-color:#604eab" /></linearGradient><clipPath
       id="clipPath164"
       clipPathUnits="userSpaceOnUse"><path
         id="path162"
         d="m 1060.59,1118.04 941.76,543.73 c 65.59,37.86 65.59,132.52 0,170.39 l -941.76,543.73 c -65.578,37.86 -147.563,-9.46 -147.563,-85.2 V 1203.23 c 0,-75.73 81.985,-123.06 147.563,-85.19 z" /></clipPath><linearGradient
       id="linearGradient170"
       spreadMethod="pad"
       gradientTransform="matrix(1138.52,0,0,-1138.52,913.025,1746.96)"
       gradientUnits="userSpaceOnUse"
       y2="0"
       x2="1"
       y1="0"
       x1="0"><stop
         id="stop166"
         offset="0"
         style="stop-opacity:1;stop-color:#4ac1a9" /><stop
         id="stop168"
         offset="1"
         style="stop-opacity:1;stop-color:#604eab" /></linearGradient><clipPath
       id="clipPath184"
       clipPathUnits="userSpaceOnUse"><path
         id="path182"
         d="m 1315.39,1953.69 0.01,-2.57 c 0.39,1.74 -0.01,2.57 -0.01,2.57 z" /></clipPath><linearGradient
       id="linearGradient190"
       spreadMethod="pad"
       gradientTransform="matrix(0.174707,0,0,-0.174707,1315.4,1952.41)"
       gradientUnits="userSpaceOnUse"
       y2="0"
       x2="1"
       y1="0"
       x1="0"><stop
         id="stop186"
         offset="0"
         style="stop-opacity:1;stop-color:#4ac1a9" /><stop
         id="stop188"
         offset="1"
         style="stop-opacity:1;stop-color:#604eab" /></linearGradient><clipPath
       id="clipPath200"
       clipPathUnits="userSpaceOnUse"><path
         id="path198"
         d="m 1348.17,1757.97 c -11.54,0 -22.54,-2.3 -32.6,-6.44 l -0.17,199.59 c -1.17,-5.2 -9.42,-18.6 -56.74,-42.26 -95.83,-32.79 -75.65,-105.91 -75.65,-105.91 41.61,55.48 80.69,52.96 80.69,52.96 v -133.65 c -2.14,-20.18 -2.26,-36.47 -1.25,-49.61 0,-0.14 -0.01,-0.28 -0.01,-0.41 0,-12.14 2.54,-23.69 7.08,-34.14 2.46,-6.31 5.06,-10.44 7.06,-13.02 15.34,-23.24 41.67,-38.59 71.59,-38.59 47.36,0 85.75,38.39 85.75,85.75 0,47.34 -38.39,85.73 -85.75,85.73 z" /></clipPath><linearGradient
       id="linearGradient206"
       spreadMethod="pad"
       gradientTransform="matrix(252.677,0,0,-252.677,1181.24,1768.81)"
       gradientUnits="userSpaceOnUse"
       y2="0"
       x2="1"
       y1="0"
       x1="0"><stop
         id="stop202"
         offset="0"
         style="stop-opacity:1;stop-color:#4ac1a9" /><stop
         id="stop204"
         offset="1"
         style="stop-opacity:1;stop-color:#604eab" /></linearGradient><clipPath
       id="clipPath236"
       clipPathUnits="userSpaceOnUse"><path
         id="path234"
         d="m 3490.39,4493.2 0.01,-10.75 c 1.64,7.27 -0.01,10.75 -0.01,10.75 z" /></clipPath><linearGradient
       id="linearGradient242"
       spreadMethod="pad"
       gradientTransform="matrix(0.734346,0,0,-0.734346,3490.39,4487.83)"
       gradientUnits="userSpaceOnUse"
       y2="0"
       x2="1"
       y1="0"
       x1="0"><stop
         id="stop238"
         offset="0"
         style="stop-opacity:1;stop-color:#4ac1a9" /><stop
         id="stop240"
         offset="1"
         style="stop-opacity:1;stop-color:#604eab" /></linearGradient><clipPath
       id="clipPath252"
       clipPathUnits="userSpaceOnUse"><path
         id="path250"
         d="m 3628.18,3670.54 c -48.54,0 -94.8,-9.66 -137.07,-27.06 l -0.71,838.97 c -4.92,-21.91 -39.6,-78.22 -238.5,-177.66 -402.77,-137.8 -317.97,-445.18 -317.97,-445.18 174.89,233.19 339.18,222.59 339.18,222.59 v -561.77 c -9,-84.79 -9.54,-153.26 -5.26,-208.54 0,-0.57 -0.04,-1.14 -0.04,-1.72 0,-51.01 10.66,-99.52 29.77,-143.5 10.34,-26.49 21.24,-43.86 29.68,-54.72 64.46,-97.68 175.13,-162.16 300.92,-162.16 199.04,0 360.39,161.34 360.39,360.38 0,199.02 -161.35,360.37 -360.39,360.37 z" /></clipPath><linearGradient
       id="linearGradient258"
       spreadMethod="pad"
       gradientTransform="matrix(1062.08,0,0,-1062.08,2926.49,3716.12)"
       gradientUnits="userSpaceOnUse"
       y2="0"
       x2="1"
       y1="0"
       x1="0"><stop
         id="stop254"
         offset="0"
         style="stop-opacity:1;stop-color:#4ac1a9" /><stop
         id="stop256"
         offset="1"
         style="stop-opacity:1;stop-color:#604eab" /></linearGradient><clipPath
       id="clipPath270"
       clipPathUnits="userSpaceOnUse"><path
         id="path268"
         d="m 3732.02,3305.72 c 0,-55.74 -45.18,-100.92 -100.92,-100.92 -55.74,0 -100.92,45.18 -100.92,100.92 0,55.74 45.18,100.92 100.92,100.92 55.74,0 100.92,-45.18 100.92,-100.92 z" /></clipPath><linearGradient
       id="linearGradient276"
       spreadMethod="pad"
       gradientTransform="matrix(201.841,0,0,-201.841,3530.18,3305.72)"
       gradientUnits="userSpaceOnUse"
       y2="0"
       x2="1"
       y1="0"
       x1="0"><stop
         id="stop272"
         offset="0"
         style="stop-opacity:1;stop-color:#4ac1a9" /><stop
         id="stop274"
         offset="1"
         style="stop-opacity:1;stop-color:#604eab" /></linearGradient><clipPath
       id="clipPath290"
       clipPathUnits="userSpaceOnUse"><path
         id="path288"
         d="m 3635.07,3305.72 c 0,-13.23 -10.73,-23.97 -23.97,-23.97 -13.24,0 -23.96,10.74 -23.96,23.97 0,13.24 10.72,23.96 23.96,23.96 13.24,0 23.97,-10.72 23.97,-23.96 z" /></clipPath><linearGradient
       id="linearGradient296"
       spreadMethod="pad"
       gradientTransform="matrix(47.9314,0,0,-47.9314,3587.14,3305.72)"
       gradientUnits="userSpaceOnUse"
       y2="0"
       x2="1"
       y1="0"
       x1="0"><stop
         id="stop292"
         offset="0"
         style="stop-opacity:1;stop-color:#4ac1a9" /><stop
         id="stop294"
         offset="1"
         style="stop-opacity:1;stop-color:#604eab" /></linearGradient></defs><g
     transform="matrix(1.3333333,0,0,-1.3333333,0,666.66667)"
     id="g10"><g
       transform="scale(0.1)"
       id="g12"><path
         id="path14"
         style="fill:#d8d6d3;fill-opacity:1;fill-rule:nonzero;stroke:none"
         d="M 5000,0 H 0 V 5000 H 5000 V 0" /><g
         transform="scale(10)"
         id="g16"><text
           id="text20"
           style="font-variant:normal;font-weight:normal;font-size:20.46019936px;font-family:BebasNeueBold;-inkscape-font-specification:BebasNeueBold;writing-mode:lr-tb;fill:#65696e;fill-opacity:1;fill-rule:nonzero;stroke:none"
           transform="matrix(1,0,0,-1,67.6816,294.896)"><tspan
             id="tspan18"
             y="0"
             x="0 14.485413">DJ</tspan></text>
<text
           id="text24"
           style="font-variant:normal;font-weight:normal;font-size:20.46019936px;font-family:BebasNeueBook;-inkscape-font-specification:BebasNeueBook;writing-mode:lr-tb;fill:#65696e;fill-opacity:1;fill-rule:nonzero;stroke:none"
           transform="matrix(1,0,0,-1,93.5429,294.896)"><tspan
             id="tspan22"
             y="0"
             x="0 16.470707 30.300798 44.009808 52.725628">MUSIC</tspan></text>
<text
           id="text28"
           style="font-variant:normal;font-weight:normal;font-size:20.46019936px;font-family:BebasNeueBold;-inkscape-font-specification:BebasNeueBold;writing-mode:lr-tb;fill:#65696e;fill-opacity:1;fill-rule:nonzero;stroke:none"
           transform="matrix(1,0,0,-1,160.0589,294.896)"><tspan
             id="tspan26"
             y="0"
             x="0 13.073209 27.313406 41.430862">LOGO</tspan></text>
</g><g
         transform="scale(10)"
         id="g30"><text
           id="text34"
           style="font-variant:normal;font-weight:900;font-size:12.2517004px;font-family:Montserrat;-inkscape-font-specification:Montserrat-Black;writing-mode:lr-tb;fill:#604eab;fill-opacity:1;fill-rule:nonzero;stroke:none"
           transform="matrix(1,0,0,-1,91.5535,281.308)"><tspan
             id="tspan32"
             y="0"
             x="0 8.049367 15.485888 25.87533 35.296238 45.171108 55.021477 58.696266 68.546631 76.79203 85.91954">SLOGAN HERE</tspan></text>
</g><g
         id="g36"><g
           clip-path="url(#clipPath42)"
           id="g38"><path
             id="path50"
             style="fill:url(#linearGradient48);fill-opacity:1;fill-rule:nonzero;stroke:none"
             d="m 1876.5,3586.06 c 0,-31.14 -25.25,-56.39 -56.38,-56.39 -13.52,0 -26.31,5.03 -36.4,13.98 -5.45,4.84 -10.37,10.55 -13.28,17.3 -3.14,7.29 -2.17,13.93 -2.44,21.55 -0.31,8.33 -0.63,16.68 -0.93,25.02 0,29.66 -24.05,53.71 -53.71,53.71 -29.66,0 -53.7,-24.05 -53.7,-53.71 v -45.53 c -0.03,0 -0.03,-142.92 -0.03,-142.92 0,-31.14 -25.24,-56.38 -56.39,-56.38 -31.14,0 -56.38,25.24 -56.38,56.38 0,9.18 0,18.36 0,27.54 0,0.27 0,0.54 0,0.81 0,20.58 -0.01,41.16 -0.02,61.75 -0.02,29.69 6.25,70.8 -17.85,93.76 -9.93,9.47 -23.32,14.83 -37.05,14.83 -29.65,0 -53.7,-24.04 -53.7,-53.71 0,-16.68 0,-33.37 0,-50.06 0,-33.38 0,-66.77 0,-100.16 0,-22.12 -0.36,-44.15 0.42,-66.21 0.53,-14.97 -3.19,-25.61 -14.37,-35.78 -10.32,-9.39 -23.97,-14.66 -37.92,-14.66 -14.97,0 -29.53,6.08 -40.06,16.73 -14.74,14.9 -15.27,32.97 -15.27,52.6 0,11.3 0,22.6 0,33.9 0,31.07 0,62.15 0,93.23 0,33.37 0,66.75 0,100.11 0,24.86 0,49.71 0,74.57 0,6.55 0,13.11 0,19.66 0,29.66 -24.05,53.7 -53.72,53.7 -29.65,0 -53.7,-24.04 -53.7,-53.7 0,-20.59 0,-41.18 0,-61.77 0,-35.71 0,-71.42 0,-107.12 0,-11.88 0,-23.75 0.03,-35.63 0.08,-26.06 -30.93,-44.87 -54.15,-44.87 -31.14,0 -56.38,25.24 -56.38,56.39 v 67.01 h -0.79 v 32.26 c 0,29.66 -24.04,53.71 -53.7,53.71 -17.19,0 -33.64,-8.46 -43.66,-22.43 -12.54,-17.47 -8.96,-36.34 -9.87,-56.46 -0.53,-11.86 -5.987,-20.69 -14.561,-28.54 -10.305,-9.43 -23.945,-14.73 -37.91,-14.73 -31.145,0 -56.387,25.24 -56.387,56.38 v 305.4 c 0,31.14 25.242,56.38 56.387,56.38 12.527,0 24.844,-4.23 34.707,-11.96 6.648,-5.22 12.598,-11.77 15.714,-19.73 3.56,-9.13 1.87,-18.99 1.87,-28.54 0,-17 0,-33.99 0,-50.99 0,-16.98 0,-33.97 0,-50.94 0,-29.67 24.05,-53.71 53.71,-53.71 29.66,0 53.7,24.04 53.7,53.71 v 126.81 l 0.79,66.18 c 0,31.14 25.24,56.38 56.38,56.38 14.06,0 27.8,-5.36 38.14,-14.88 8.03,-7.41 13.86,-17.03 15.63,-27.89 1.38,-8.43 0.35,-17.45 0.35,-26.01 0,-17.51 0,-35.01 0,-52.52 0,-24.58 0,-49.16 0,-73.74 0,-29.66 24.05,-53.71 53.7,-53.71 29.67,0 53.72,24.05 53.72,53.71 v 290.8 c 5.01,26 27.86,45.65 55.33,45.65 28.86,0 52.61,-21.69 55.95,-49.65 v -226.37 c 0,-29.66 24.04,-53.71 53.71,-53.71 29.65,0 53.7,24.05 53.7,53.71 0,19.63 0,39.25 0,58.88 0,30.95 0,61.89 0,92.84 0,7.62 -1.09,15.59 1.12,23.02 2.04,6.85 6.95,13.47 11.87,18.56 10.55,10.94 25.32,17.22 40.52,17.22 31.15,0 56.39,-25.25 56.39,-56.39 v -142.08 c 0.03,0 0.03,-37.86 0.03,-37.86 0,-29.66 24.04,-53.7 53.7,-53.7 29.66,0 53.71,24.04 53.71,53.7 0.75,16.17 -1.69,34.56 8.74,48.15 10.14,13.21 27.77,21.19 44.31,21.19 31.13,0 56.38,-25.25 56.38,-56.39 z m 103.02,650.53 H 793.223 c -131.524,0 -238.145,-106.62 -238.145,-238.14 v -527.14 c 0,-131.52 106.621,-238.14 238.145,-238.14 H 1979.52 c 131.53,0 238.14,106.62 238.14,238.14 v 527.14 c 0,131.52 -106.61,238.14 -238.14,238.14" /></g></g><g
         transform="scale(10)"
         id="g52"><text
           id="text56"
           style="font-variant:normal;font-weight:normal;font-size:20.46019936px;font-family:BebasNeueBold;-inkscape-font-specification:BebasNeueBold;writing-mode:lr-tb;fill:#65696e;fill-opacity:1;fill-rule:nonzero;stroke:none"
           transform="matrix(1,0,0,-1,289.104,94.8332)"><tspan
             id="tspan54"
             y="0"
             x="0 14.485413">DJ</tspan></text>
<text
           id="text60"
           style="font-variant:normal;font-weight:normal;font-size:20.46019936px;font-family:BebasNeueBook;-inkscape-font-specification:BebasNeueBook;writing-mode:lr-tb;fill:#65696e;fill-opacity:1;fill-rule:nonzero;stroke:none"
           transform="matrix(1,0,0,-1,314.9649,94.8332)"><tspan
             id="tspan58"
             y="0"
             x="0 16.470707 30.300798 44.009789 52.725609">MUSIC</tspan></text>
<text
           id="text64"
           style="font-variant:normal;font-weight:normal;font-size:20.46019936px;font-family:BebasNeueBold;-inkscape-font-specification:BebasNeueBold;writing-mode:lr-tb;fill:#65696e;fill-opacity:1;fill-rule:nonzero;stroke:none"
           transform="matrix(1,0,0,-1,381.4801,94.8332)"><tspan
             id="tspan62"
             y="0"
             x="0 13.073188 27.313385 41.432007">LOGO</tspan></text>
</g><g
         transform="scale(10)"
         id="g66"><text
           id="text70"
           style="font-variant:normal;font-weight:900;font-size:12.2517004px;font-family:Montserrat;-inkscape-font-specification:Montserrat-Black;writing-mode:lr-tb;fill:#604eab;fill-opacity:1;fill-rule:nonzero;stroke:none"
           transform="matrix(1,0,0,-1,312.975,81.2461)"><tspan
             id="tspan68"
             y="0"
             x="0 8.049367 15.485888 25.874573 35.296131 45.171001 55.021366 58.696167 68.546539 76.791931 85.919449">SLOGAN HERE</tspan></text>
</g><path
         id="path78"
         style="fill:none;stroke:url(#linearGradient76);stroke-width:40;stroke-linecap:butt;stroke-linejoin:miter;stroke-miterlimit:10;stroke-dasharray:none;stroke-opacity:1"
         d="m 4357.77,1232.27 c 0,418.19 -339,757.19 -757.18,757.19 -418.2,0 -757.2,-339 -757.2,-757.19" /><path
         id="path86"
         style="fill:none;stroke:url(#linearGradient84);stroke-width:40;stroke-linecap:butt;stroke-linejoin:miter;stroke-miterlimit:10;stroke-dasharray:none;stroke-opacity:1"
         d="m 4444.94,1232.27 c 0,466.32 -378.04,844.36 -844.35,844.36 -466.33,0 -844.37,-378.04 -844.37,-844.36" /><path
         id="path94"
         style="fill:none;stroke:url(#linearGradient92);stroke-width:40;stroke-linecap:butt;stroke-linejoin:miter;stroke-miterlimit:10;stroke-dasharray:none;stroke-opacity:1"
         d="m 4444.94,1232.27 c 0,466.32 -378.04,844.36 -844.35,844.36 -466.33,0 -844.37,-378.04 -844.37,-844.36" /><path
         id="path102"
         style="fill:none;stroke:url(#linearGradient100);stroke-width:40;stroke-linecap:butt;stroke-linejoin:miter;stroke-miterlimit:10;stroke-dasharray:none;stroke-opacity:1"
         d="m 4258.61,1232.27 c 0,363.42 -294.61,658.03 -658.02,658.03 -363.43,0 -658.04,-294.61 -658.04,-658.03" /><g
         id="g104"><g
           clip-path="url(#clipPath110)"
           id="g106"><path
             id="path118"
             style="fill:url(#linearGradient116);fill-opacity:1;fill-rule:nonzero;stroke:none"
             d="m 3954.08,1232.27 c 0,195.23 -158.27,353.5 -353.49,353.5 -195.24,0 -353.51,-158.27 -353.51,-353.5" /></g></g><path
         id="path126"
         style="fill:none;stroke:url(#linearGradient124);stroke-width:40;stroke-linecap:butt;stroke-linejoin:miter;stroke-miterlimit:10;stroke-dasharray:none;stroke-opacity:1"
         d="m 4059.59,1232.27 c 0,253.5 -205.5,459.01 -459,459.01 -253.51,0 -459.02,-205.51 -459.02,-459.01" /><path
         id="path134"
         style="fill:none;stroke:url(#linearGradient132);stroke-width:40;stroke-linecap:butt;stroke-linejoin:miter;stroke-miterlimit:10;stroke-dasharray:none;stroke-opacity:1"
         d="m 4155.93,1232.27 c 0,306.71 -248.63,555.35 -555.34,555.35 -306.71,0 -555.36,-248.64 -555.36,-555.35" /><path
         id="path136"
         style="fill:#ffffff;fill-opacity:1;fill-rule:nonzero;stroke:none"
         d="m 3707.95,1232.27 c 0,59.29 -48.07,107.37 -107.36,107.37 -59.3,0 -107.38,-48.08 -107.38,-107.37" /><g
         transform="scale(10)"
         id="g138"><text
           id="text142"
           style="font-variant:normal;font-weight:normal;font-size:20.46019936px;font-family:BebasNeueBold;-inkscape-font-specification:BebasNeueBold;writing-mode:lr-tb;fill:#65696e;fill-opacity:1;fill-rule:nonzero;stroke:none"
           transform="matrix(1,0,0,-1,67.6816,79.575)"><tspan
             id="tspan140"
             y="0"
             x="0 14.485413">DJ</tspan></text>
<text
           id="text146"
           style="font-variant:normal;font-weight:normal;font-size:20.46019936px;font-family:BebasNeueBook;-inkscape-font-specification:BebasNeueBook;writing-mode:lr-tb;fill:#65696e;fill-opacity:1;fill-rule:nonzero;stroke:none"
           transform="matrix(1,0,0,-1,93.5429,79.575)"><tspan
             id="tspan144"
             y="0"
             x="0 16.470707 30.300798 44.009808 52.725628">MUSIC</tspan></text>
<text
           id="text150"
           style="font-variant:normal;font-weight:normal;font-size:20.46019936px;font-family:BebasNeueBold;-inkscape-font-specification:BebasNeueBold;writing-mode:lr-tb;fill:#65696e;fill-opacity:1;fill-rule:nonzero;stroke:none"
           transform="matrix(1,0,0,-1,160.0589,79.575)"><tspan
             id="tspan148"
             y="0"
             x="0 13.073209 27.313406 41.430862">LOGO</tspan></text>
</g><g
         transform="scale(10)"
         id="g152"><text
           id="text156"
           style="font-variant:normal;font-weight:900;font-size:12.2517004px;font-family:Montserrat;-inkscape-font-specification:Montserrat-Black;writing-mode:lr-tb;fill:#604eab;fill-opacity:1;fill-rule:nonzero;stroke:none"
           transform="matrix(1,0,0,-1,91.5527,65.9871)"><tspan
             id="tspan154"
             y="0"
             x="0 8.049367 15.485888 25.874598 35.296154 45.171024 55.021393 58.696194 68.546562 76.791954 85.919472">SLOGAN HERE</tspan></text>
</g><g
         id="g158"><g
           clip-path="url(#clipPath164)"
           id="g160"><path
             id="path172"
             style="fill:url(#linearGradient170);fill-opacity:1;fill-rule:nonzero;stroke:none"
             d="m 1060.59,1118.04 941.76,543.73 c 65.59,37.86 65.59,132.52 0,170.39 l -941.76,543.73 c -65.578,37.86 -147.563,-9.46 -147.563,-85.2 V 1203.23 c 0,-75.73 81.985,-123.06 147.563,-85.19" /></g></g><path
         id="path174"
         style="fill:#ffffff;fill-opacity:1;fill-rule:nonzero;stroke:none"
         d="m 1176.67,1402.73 515.45,297.6 c 35.9,20.72 35.9,72.54 0,93.26 l -515.45,297.59 c -35.9,20.73 -80.76,-5.17 -80.76,-46.62 v -595.19 c 0,-41.45 44.86,-67.36 80.76,-46.64" /><path
         id="path176"
         style="fill:none;stroke:#ffffff;stroke-width:40;stroke-linecap:butt;stroke-linejoin:miter;stroke-miterlimit:10;stroke-dasharray:none;stroke-opacity:1"
         d="m 1099.15,1218.22 791.75,457.12 c 55.13,31.83 55.13,111.41 0,143.24 l -791.75,457.11 c -55.14,31.84 -124.052,-7.95 -124.052,-71.62 v -914.23 c 0,-63.66 68.912,-103.44 124.052,-71.62 z" /><g
         id="g178"><g
           clip-path="url(#clipPath184)"
           id="g180"><path
             id="path192"
             style="fill:url(#linearGradient190);fill-opacity:1;fill-rule:nonzero;stroke:none"
             d="m 1315.39,1953.69 0.01,-2.57 c 0.39,1.74 -0.01,2.57 -0.01,2.57" /></g></g><g
         id="g194"><g
           clip-path="url(#clipPath200)"
           id="g196"><path
             id="path208"
             style="fill:url(#linearGradient206);fill-opacity:1;fill-rule:nonzero;stroke:none"
             d="m 1348.17,1757.97 c -11.54,0 -22.54,-2.3 -32.6,-6.44 l -0.17,199.59 c -1.17,-5.2 -9.42,-18.6 -56.74,-42.26 -95.83,-32.79 -75.65,-105.91 -75.65,-105.91 41.61,55.48 80.69,52.96 80.69,52.96 v -133.65 c -2.14,-20.18 -2.26,-36.47 -1.25,-49.61 0,-0.14 -0.01,-0.28 -0.01,-0.41 0,-12.14 2.54,-23.69 7.08,-34.14 2.46,-6.31 5.06,-10.44 7.06,-13.02 15.34,-23.24 41.67,-38.59 71.59,-38.59 47.36,0 85.75,38.39 85.75,85.75 0,47.34 -38.39,85.73 -85.75,85.73" /></g></g><g
         transform="scale(10)"
         id="g210"><text
           id="text214"
           style="font-variant:normal;font-weight:normal;font-size:20.46019936px;font-family:BebasNeueBold;-inkscape-font-specification:BebasNeueBold;writing-mode:lr-tb;fill:#65696e;fill-opacity:1;fill-rule:nonzero;stroke:none"
           transform="matrix(1,0,0,-1,291.104,269.234)"><tspan
             id="tspan212"
             y="0"
             x="0 14.485413">DJ</tspan></text>
<text
           id="text218"
           style="font-variant:normal;font-weight:normal;font-size:20.46019936px;font-family:BebasNeueBook;-inkscape-font-specification:BebasNeueBook;writing-mode:lr-tb;fill:#65696e;fill-opacity:1;fill-rule:nonzero;stroke:none"
           transform="matrix(1,0,0,-1,316.9649,269.234)"><tspan
             id="tspan216"
             y="0"
             x="0 16.470707 30.300798 44.009789 52.725609">MUSIC</tspan></text>
<text
           id="text222"
           style="font-variant:normal;font-weight:normal;font-size:20.46019936px;font-family:BebasNeueBold;-inkscape-font-specification:BebasNeueBold;writing-mode:lr-tb;fill:#65696e;fill-opacity:1;fill-rule:nonzero;stroke:none"
           transform="matrix(1,0,0,-1,383.4801,269.234)"><tspan
             id="tspan220"
             y="0"
             x="0 13.073188 27.313364 41.432026">LOGO</tspan></text>
</g><g
         transform="scale(10)"
         id="g224"><text
           id="text228"
           style="font-variant:normal;font-weight:900;font-size:12.2517004px;font-family:Montserrat;-inkscape-font-specification:Montserrat-Black;writing-mode:lr-tb;fill:#604eab;fill-opacity:1;fill-rule:nonzero;stroke:none"
           transform="matrix(1,0,0,-1,314.975,255.646)"><tspan
             id="tspan226"
             y="0"
             x="0 8.049367 15.485888 25.874573 35.296131 45.171001 55.021366 58.696167 68.546539 76.791931 85.919449">SLOGAN HERE</tspan></text>
</g><g
         id="g230"><g
           clip-path="url(#clipPath236)"
           id="g232"><path
             id="path244"
             style="fill:url(#linearGradient242);fill-opacity:1;fill-rule:nonzero;stroke:none"
             d="m 3490.39,4493.2 0.01,-10.75 c 1.64,7.27 -0.01,10.75 -0.01,10.75" /></g></g><g
         id="g246"><g
           clip-path="url(#clipPath252)"
           id="g248"><path
             id="path260"
             style="fill:url(#linearGradient258);fill-opacity:1;fill-rule:nonzero;stroke:none"
             d="m 3628.18,3670.54 c -48.54,0 -94.8,-9.66 -137.07,-27.06 l -0.71,838.97 c -4.92,-21.91 -39.6,-78.22 -238.5,-177.66 -402.77,-137.8 -317.97,-445.18 -317.97,-445.18 174.89,233.19 339.18,222.59 339.18,222.59 v -561.77 c -9,-84.79 -9.54,-153.26 -5.26,-208.54 0,-0.57 -0.04,-1.14 -0.04,-1.72 0,-51.01 10.66,-99.52 29.77,-143.5 10.34,-26.49 21.24,-43.86 29.68,-54.72 64.46,-97.68 175.13,-162.16 300.92,-162.16 199.04,0 360.39,161.34 360.39,360.38 0,199.02 -161.35,360.37 -360.39,360.37" /></g></g><path
         id="path262"
         style="fill:#ffffff;fill-opacity:1;fill-rule:nonzero;stroke:none"
         d="m 3896.62,3305.72 c 0,-146.64 -118.88,-265.52 -265.52,-265.52 -146.64,0 -265.51,118.88 -265.51,265.52 0,146.64 118.87,265.52 265.51,265.52 146.64,0 265.52,-118.88 265.52,-265.52" /><g
         id="g264"><g
           clip-path="url(#clipPath270)"
           id="g266"><path
             id="path278"
             style="fill:url(#linearGradient276);fill-opacity:1;fill-rule:nonzero;stroke:none"
             d="m 3732.02,3305.72 c 0,-55.74 -45.18,-100.92 -100.92,-100.92 -55.74,0 -100.92,45.18 -100.92,100.92 0,55.74 45.18,100.92 100.92,100.92 55.74,0 100.92,-45.18 100.92,-100.92" /></g></g><path
         id="path280"
         style="fill:#ffffff;fill-opacity:1;fill-rule:nonzero;stroke:none"
         d="m 3655.07,3305.72 c 0,-13.23 -10.73,-23.97 -23.97,-23.97 -13.24,0 -23.96,10.74 -23.96,23.97 0,13.24 10.72,23.96 23.96,23.96 13.24,0 23.97,-10.72 23.97,-23.96" /><path
         id="path282"
         style="fill:#ffffff;fill-opacity:1;fill-rule:nonzero;stroke:none"
         d="m 3631.1,3244.71 c -33.64,0 -61,27.37 -61,61.01 0,33.64 27.36,61 61,61 33.65,0 61.01,-27.36 61.01,-61 0,-33.64 -27.36,-61.01 -61.01,-61.01" /><g
         id="g284"><g
           clip-path="url(#clipPath290)"
           id="g286"><path
             id="path298"
             style="fill:url(#linearGradient296);fill-opacity:1;fill-rule:nonzero;stroke:none"
             d="m 3635.07,3305.72 c 0,-13.23 -10.73,-23.97 -23.97,-23.97 -13.24,0 -23.96,10.74 -23.96,23.97 0,13.24 10.72,23.96 23.96,23.96 13.24,0 23.97,-10.72 23.97,-23.96" /></g></g></g></g></svg>